<?xml version="1.0" encoding="UTF-8"?>
<svg id="Layer_1" data-name="Layer 1" xmlns="http://www.w3.org/2000/svg" viewBox="0 0 187.72 156.35">
  <defs>
    <style>
      .cls-1 {
        fill: #f5eded;
      }

      .cls-1, .cls-2 {
        stroke: #000;
        stroke-width: 4px;
      }

      .cls-2 {
        fill: #1077bc;
        stroke-miterlimit: 10;
      }
    </style>
  </defs>
  <path class="cls-1" d="M73.1,37.85c-1.7-2.8-4.03-4.95-6.97-6.45-2.95-1.5-6.43-2.25-10.43-2.25-7.4,0-13.23,2.4-17.48,7.2-4.25,4.8-6.38,11.25-6.38,19.35,0,9.1,2.27,16.03,6.83,20.77,4.55,4.75,11.17,7.12,19.88,7.12,10.3,0,17.65-4.65,22.05-13.95h-29.55v-21.15h54.9v28.5c-2.3,5.6-5.68,10.85-10.12,15.75-4.45,4.9-10.08,8.92-16.88,12.08-6.8,3.15-14.55,4.72-23.25,4.72-10.6,0-19.98-2.27-28.12-6.83-8.15-4.55-14.45-10.9-18.9-19.05-4.45-8.15-6.68-17.48-6.68-27.98s2.22-19.67,6.68-27.82c4.45-8.15,10.73-14.5,18.82-19.05,8.1-4.55,17.45-6.82,28.05-6.82,13.3,0,24.3,3.2,33,9.6,8.7,6.4,14.1,15.15,16.2,26.25h-31.65Z"/>
  <path class="cls-2" d="M185.34,48.47l-18.6,105.88h-29.55l7.5-42.5h-35.7l-7.5,42.5h-29.55l18.75-105.88h29.4l-7.05,39.95h35.85l7.05-39.95h29.4Z"/>
</svg>