<svg xmlns="http://www.w3.org/2000/svg" width="932" height="180" fill="none" viewBox="0 0 932 180"><g clip-path="url(#clip0_1201_3)"><path fill="#F5EDED" d="M61.952 81.352C60.8427 79.56 59.264 78.1947 57.216 77.256C55.168 76.232 52.6933 75.72 49.792 75.72C44.3307 75.72 40.1067 77.512 37.12 81.096C34.1333 84.5947 32.64 89.416 32.64 95.56C32.64 102.643 34.304 107.933 37.632 111.432C40.96 114.931 46.08 116.68 52.992 116.68C59.5627 116.68 64.8533 114.035 68.864 108.744H46.208V88.648H92.416V117.064C88.4907 123.805 83.072 129.608 76.16 134.472C69.248 139.251 60.5013 141.64 49.92 141.64C40.5333 141.64 32.3413 139.72 25.344 135.88C18.432 131.955 13.0987 126.493 9.344 119.496C5.67467 112.499 3.84 104.52 3.84 95.56C3.84 86.6 5.67467 78.6213 9.344 71.624C13.0987 64.6267 18.432 59.208 25.344 55.368C32.256 51.4427 40.3627 49.48 49.664 49.48C61.5253 49.48 71.168 52.3387 78.592 58.056C86.1013 63.7733 90.5387 71.5387 91.904 81.352H61.952ZM172.538 104.264C172.538 106.227 172.41 108.104 172.154 109.896H126.458C126.885 116.125 129.487 119.24 134.266 119.24C137.338 119.24 139.557 117.832 140.922 115.016H171.002C169.978 120.136 167.802 124.744 164.474 128.84C161.231 132.851 157.093 136.051 152.058 138.44C147.109 140.744 141.647 141.896 135.674 141.896C128.506 141.896 122.106 140.403 116.474 137.416C110.927 134.429 106.575 130.163 103.418 124.616C100.346 118.984 98.81 112.413 98.81 104.904C98.81 97.3947 100.346 90.8667 103.418 85.32C106.575 79.688 110.927 75.3787 116.474 72.392C122.106 69.4053 128.506 67.912 135.674 67.912C142.842 67.912 149.199 69.4053 154.746 72.392C160.378 75.2933 164.73 79.4747 167.802 84.936C170.959 90.3973 172.538 96.84 172.538 104.264ZM143.738 97.48C143.738 95.0907 142.97 93.2987 141.434 92.104C139.898 90.824 137.978 90.184 135.674 90.184C130.639 90.184 127.695 92.616 126.842 97.48H143.738ZM215.829 141.896C208.576 141.896 202.048 140.403 196.245 137.416C190.442 134.429 185.877 130.163 182.549 124.616C179.306 118.984 177.685 112.413 177.685 104.904C177.685 97.3947 179.306 90.8667 182.549 85.32C185.877 79.688 190.442 75.3787 196.245 72.392C202.048 69.4053 208.576 67.912 215.829 67.912C223.082 67.912 229.61 69.4053 235.413 72.392C241.216 75.3787 245.738 79.688 248.981 85.32C252.309 90.8667 253.973 97.3947 253.973 104.904C253.973 112.413 252.309 118.984 248.981 124.616C245.738 130.163 241.216 134.429 235.413 137.416C229.61 140.403 223.082 141.896 215.829 141.896ZM215.829 117.32C218.474 117.32 220.693 116.296 222.485 114.248C224.277 112.115 225.173 109 225.173 104.904C225.173 100.808 224.277 97.736 222.485 95.688C220.693 93.5547 218.474 92.488 215.829 92.488C213.184 92.488 210.965 93.5547 209.173 95.688C207.381 97.736 206.485 100.808 206.485 104.904C206.485 109 207.338 112.115 209.045 114.248C210.837 116.296 213.098 117.32 215.829 117.32ZM304.5 63.688C302.964 63.5173 301.897 63.432 301.3 63.432C299.167 63.432 297.545 63.8587 296.436 64.712C295.327 65.48 294.559 66.8453 294.132 68.808H304.5V92.488H293.876V141H265.46V92.488H257.78V68.808H265.46C265.631 59.4213 268.575 52.168 274.292 47.048C280.095 41.8427 288.201 39.24 298.612 39.24C299.807 39.24 301.769 39.3253 304.5 39.496V63.688ZM326.486 63.048C321.537 63.048 317.569 61.7253 314.582 59.08C311.595 56.4347 310.102 53.1067 310.102 49.096C310.102 45 311.595 41.6293 314.582 38.984C317.569 36.2533 321.537 34.888 326.486 34.888C331.35 34.888 335.275 36.2533 338.262 38.984C341.249 41.6293 342.742 45 342.742 49.096C342.742 53.1067 341.249 56.4347 338.262 59.08C335.275 61.7253 331.35 63.048 326.486 63.048ZM340.566 68.808V141H312.15V68.808H340.566ZM385.528 141.896C378.701 141.896 372.643 140.787 367.352 138.568C362.147 136.349 358.008 133.277 354.936 129.352C351.864 125.427 350.115 120.989 349.688 116.04H376.952C377.293 118.173 378.189 119.752 379.64 120.776C381.176 121.8 383.096 122.312 385.4 122.312C386.851 122.312 388.003 122.013 388.856 121.416C389.709 120.733 390.136 119.923 390.136 118.984C390.136 117.363 389.24 116.211 387.448 115.528C385.656 114.845 382.627 114.077 378.36 113.224C373.155 112.2 368.845 111.091 365.432 109.896C362.104 108.701 359.16 106.653 356.6 103.752C354.125 100.851 352.888 96.84 352.888 91.72C352.888 87.2827 354.04 83.272 356.344 79.688C358.733 76.0187 362.232 73.16 366.84 71.112C371.448 68.9787 377.037 67.912 383.608 67.912C393.336 67.912 400.931 70.3013 406.392 75.08C411.939 79.8587 415.267 86.088 416.376 93.768H391.16C390.733 91.8053 389.837 90.312 388.472 89.288C387.107 88.1787 385.272 87.624 382.968 87.624C381.517 87.624 380.408 87.9227 379.64 88.52C378.872 89.032 378.488 89.8427 378.488 90.952C378.488 92.4027 379.384 93.512 381.176 94.28C382.968 94.9627 385.827 95.688 389.752 96.456C394.957 97.48 399.352 98.632 402.936 99.912C406.52 101.192 409.635 103.411 412.28 106.568C414.925 109.64 416.248 113.907 416.248 119.368C416.248 123.635 415.011 127.475 412.536 130.888C410.061 134.301 406.477 136.989 401.784 138.952C397.176 140.915 391.757 141.896 385.528 141.896ZM441.861 63.048C436.912 63.048 432.944 61.7253 429.957 59.08C426.97 56.4347 425.477 53.1067 425.477 49.096C425.477 45 426.97 41.6293 429.957 38.984C432.944 36.2533 436.912 34.888 441.861 34.888C446.725 34.888 450.65 36.2533 453.637 38.984C456.624 41.6293 458.117 45 458.117 49.096C458.117 53.1067 456.624 56.4347 453.637 59.08C450.65 61.7253 446.725 63.048 441.861 63.048ZM455.941 68.808V141H427.525V68.808H455.941ZM464.935 104.904C464.935 97.3947 466.471 90.8667 469.543 85.32C472.7 79.688 477.052 75.3787 482.599 72.392C488.231 69.4053 494.631 67.912 501.799 67.912C511.186 67.912 519.079 70.5573 525.479 75.848C531.964 81.1387 536.06 88.4773 537.767 97.864H507.687C506.578 94.1093 504.402 92.232 501.159 92.232C498.855 92.232 497.02 93.2987 495.655 95.432C494.375 97.5653 493.735 100.723 493.735 104.904C493.735 109.085 494.375 112.243 495.655 114.376C497.02 116.509 498.855 117.576 501.159 117.576C504.402 117.576 506.578 115.699 507.687 111.944H537.767C536.06 121.331 531.964 128.669 525.479 133.96C519.079 139.251 511.186 141.896 501.799 141.896C494.631 141.896 488.231 140.403 482.599 137.416C477.052 134.429 472.7 130.163 469.543 124.616C466.471 118.984 464.935 112.413 464.935 104.904ZM542.935 104.904C542.935 97.3093 544.215 90.7387 546.775 85.192C549.42 79.56 553.004 75.2933 557.527 72.392C562.05 69.4053 567.127 67.912 572.759 67.912C577.452 67.912 581.506 68.8933 584.919 70.856C588.332 72.7333 590.935 75.336 592.727 78.664V68.808H621.015V141H592.727V131.144C590.935 134.472 588.332 137.117 584.919 139.08C581.506 140.957 577.452 141.896 572.759 141.896C567.127 141.896 562.05 140.445 557.527 137.544C553.004 134.557 549.42 130.291 546.775 124.744C544.215 119.112 542.935 112.499 542.935 104.904ZM592.727 104.904C592.727 101.064 591.746 98.0773 589.783 95.944C587.82 93.8107 585.303 92.744 582.231 92.744C579.159 92.744 576.642 93.8107 574.679 95.944C572.716 98.0773 571.735 101.064 571.735 104.904C571.735 108.744 572.716 111.731 574.679 113.864C576.642 115.997 579.159 117.064 582.231 117.064C585.303 117.064 587.82 115.997 589.783 113.864C591.746 111.731 592.727 108.744 592.727 104.904Z"/><path fill="#77BC10" d="M715.183 73.928C714.244 79.2187 712.068 83.6987 708.655 87.368C705.242 90.952 701.146 93.3413 696.367 94.536C700.804 95.6453 704.175 97.7787 706.479 100.936C708.868 104.008 710.063 107.635 710.063 111.816C710.063 113.181 709.935 114.632 709.679 116.168C708.314 124.104 704.602 130.248 698.543 134.6C692.57 138.867 684.676 141 674.863 141H627.375L643.375 50.376H689.583C697.775 50.376 704.132 51.9973 708.655 55.24C713.263 58.3973 715.567 63.048 715.567 69.192C715.567 70.6427 715.439 72.2213 715.183 73.928ZM685.231 79.432C685.316 79.0053 685.359 78.4507 685.359 77.768C685.359 76.0613 684.804 74.824 683.695 74.056C682.671 73.288 681.05 72.904 678.831 72.904H667.823L665.519 85.704H676.527C679.087 85.704 681.092 85.192 682.543 84.168C683.994 83.144 684.89 81.5653 685.231 79.432ZM681.391 111.944C681.476 111.517 681.519 110.963 681.519 110.28C681.519 107.037 679.343 105.416 674.991 105.416H662.063L659.887 118.216H672.815C675.375 118.216 677.338 117.747 678.703 116.808C680.154 115.784 681.05 114.163 681.391 111.944ZM760.059 46.28L743.291 141H714.875L731.643 46.28H760.059ZM790.301 141.896C783.901 141.896 778.269 140.659 773.405 138.184C768.541 135.709 764.744 132.211 762.013 127.688C759.282 123.08 757.917 117.747 757.917 111.688C757.917 103.325 759.88 95.816 763.805 89.16C767.816 82.504 773.277 77.2987 780.189 73.544C787.101 69.7893 794.824 67.912 803.357 67.912C809.757 67.912 815.389 69.192 820.253 71.752C825.117 74.2267 828.914 77.768 831.645 82.376C834.376 86.8987 835.741 92.1893 835.741 98.248C835.741 106.611 833.778 114.12 829.853 120.776C825.928 127.432 820.509 132.637 813.597 136.392C806.685 140.061 798.92 141.896 790.301 141.896ZM794.653 117.32C798.322 117.32 801.224 115.656 803.357 112.328C805.49 109 806.557 105.288 806.557 101.192C806.557 98.2907 805.832 96.1147 804.381 94.664C803.016 93.2133 801.224 92.488 799.005 92.488C795.336 92.488 792.434 94.152 790.301 97.48C788.168 100.808 787.101 104.52 787.101 108.616C787.101 111.517 787.784 113.693 789.149 115.144C790.514 116.595 792.349 117.32 794.653 117.32ZM876.412 67.912C881.105 67.912 884.988 68.8933 888.06 70.856C891.132 72.7333 893.265 75.336 894.46 78.664L896.252 68.808H924.54L911.996 139.72C910.801 146.461 908.455 152.605 904.956 158.152C901.543 163.699 896.764 168.136 890.62 171.464C884.561 174.792 877.223 176.456 868.604 176.456C857.596 176.456 849.191 173.981 843.388 169.032C837.585 164.168 834.684 157.469 834.684 148.936C834.684 147.741 834.727 146.845 834.812 146.248H862.716C862.887 150.003 865.617 151.88 870.908 151.88C874.236 151.88 876.967 151.027 879.1 149.32C881.319 147.613 882.855 144.413 883.708 139.72L885.244 131.144C882.855 134.472 879.783 137.117 876.028 139.08C872.273 140.957 868.049 141.896 863.356 141.896C856.103 141.896 850.257 139.464 845.82 134.6C841.383 129.736 839.164 122.995 839.164 114.376C839.164 111.133 839.463 107.976 840.06 104.904C841.425 97.3093 843.9 90.7387 847.484 85.192C851.068 79.56 855.377 75.2933 860.412 72.392C865.447 69.4053 870.78 67.912 876.412 67.912ZM889.852 104.904C890.023 104.136 890.108 103.112 890.108 101.832C890.108 98.9307 889.34 96.712 887.804 95.176C886.268 93.5547 884.177 92.744 881.532 92.744C878.46 92.744 875.729 93.8107 873.34 95.944C871.036 98.0773 869.543 101.064 868.86 104.904C868.689 105.672 868.604 106.696 868.604 107.976C868.604 110.877 869.372 113.139 870.908 114.76C872.444 116.296 874.535 117.064 877.18 117.064C880.252 117.064 882.94 115.997 885.244 113.864C887.633 111.731 889.169 108.744 889.852 104.904Z"/><path fill="#000" d="M61.952 81.352L60.6766 82.1415L61.1164 82.852H61.952V81.352ZM57.216 77.256L56.5452 78.5976L56.5679 78.609L56.591 78.6196L57.216 77.256ZM37.12 81.096L38.2608 82.0699L38.2666 82.0631L38.2723 82.0563L37.12 81.096ZM37.632 111.432L36.5452 112.466L36.5452 112.466L37.632 111.432ZM68.864 108.744L70.0594 109.65L71.8834 107.244H68.864V108.744ZM46.208 108.744H44.708V110.244H46.208V108.744ZM46.208 88.648V87.148H44.708V88.648H46.208ZM92.416 88.648H93.916V87.148H92.416V88.648ZM92.416 117.064L93.7123 117.819L93.916 117.469V117.064H92.416ZM76.16 134.472L77.0131 135.706L77.0232 135.699L76.16 134.472ZM25.344 135.88L24.6033 137.184L24.6128 137.19L24.6224 137.195L25.344 135.88ZM9.344 119.496L8.01557 120.193L8.01889 120.199L8.02226 120.205L9.344 119.496ZM9.344 71.624L8.02226 70.9148L8.01889 70.9211L8.01557 70.9274L9.344 71.624ZM25.344 55.368L26.0725 56.6793L26.0847 56.6723L25.344 55.368ZM78.592 58.056L77.6768 59.2444L77.6833 59.2495L78.592 58.056ZM91.904 81.352V82.852H93.6272L93.3897 81.1453L91.904 81.352ZM63.2274 80.5625C61.9517 78.5016 60.1382 76.9453 57.841 75.8924L56.591 78.6196C58.3898 79.4441 59.7337 80.6184 60.6766 82.1415L63.2274 80.5625ZM57.8868 75.9144C55.5824 74.7622 52.8657 74.22 49.792 74.22V77.22C52.521 77.22 54.7536 77.7018 56.5452 78.5976L57.8868 75.9144ZM49.792 74.22C43.9699 74.22 39.2893 76.1498 35.9677 80.1357L38.2723 82.0563C40.924 78.8742 44.6914 77.22 49.792 77.22V74.22ZM35.9792 80.1221C32.6927 83.9719 31.14 89.1799 31.14 95.56H34.14C34.14 89.6521 35.574 85.2174 38.2608 82.0699L35.9792 80.1221ZM31.14 95.56C31.14 102.85 32.8506 108.582 36.5452 112.466L38.7188 110.398C35.7574 107.285 34.14 102.436 34.14 95.56H31.14ZM36.5452 112.466C40.2601 116.371 45.849 118.18 52.992 118.18V115.18C46.311 115.18 41.6599 113.49 38.7188 110.398L36.5452 112.466ZM52.992 118.18C60.0378 118.18 65.7686 115.31 70.0594 109.65L67.6686 107.838C63.9381 112.759 59.0875 115.18 52.992 115.18V118.18ZM68.864 107.244H46.208V110.244H68.864V107.244ZM47.708 108.744V88.648H44.708V108.744H47.708ZM46.208 90.148H92.416V87.148H46.208V90.148ZM90.916 88.648V117.064H93.916V88.648H90.916ZM91.1197 116.309C87.3119 122.849 82.0471 128.495 75.2968 133.245L77.0232 135.699C84.0969 130.721 89.6694 124.762 93.7123 117.819L91.1197 116.309ZM75.307 133.238C68.7038 137.803 60.2758 140.14 49.92 140.14V143.14C60.7269 143.14 69.7922 140.698 77.013 135.706L75.307 133.238ZM49.92 140.14C40.7411 140.14 32.8058 138.264 26.0656 134.565L24.6224 137.195C31.8769 141.176 40.3256 143.14 49.92 143.14V140.14ZM26.0847 134.576C19.4184 130.79 14.2866 125.535 10.6657 118.787L8.02226 120.205C11.9108 127.452 17.4456 133.12 24.6033 137.184L26.0847 134.576ZM10.6724 118.799C7.13012 112.044 5.34 104.31 5.34 95.56H2.34C2.34 104.73 4.21921 112.953 8.01557 120.193L10.6724 118.799ZM5.34 95.56C5.34 86.8098 7.13012 79.0757 10.6724 72.3206L8.01557 70.9274C4.21921 78.167 2.34 86.3902 2.34 95.56H5.34ZM10.6657 72.3332C14.2851 65.5881 19.413 60.3789 26.0725 56.6792L24.6155 54.0568C17.451 58.0371 11.9123 63.6652 8.02226 70.9148L10.6657 72.3332ZM26.0847 56.6723C32.7351 52.8956 40.5778 50.98 49.664 50.98V47.98C40.1475 47.98 31.7769 49.9898 24.6033 54.0637L26.0847 56.6723ZM49.664 50.98C61.2835 50.98 70.578 53.7775 77.6768 59.2444L79.5072 56.8676C71.758 50.8998 61.7672 47.98 49.664 47.98V50.98ZM77.6833 59.2495C84.8606 64.714 89.1045 72.1159 90.4183 81.5587L93.3897 81.1453C91.9728 70.9615 87.3421 62.8327 79.5007 56.8625L77.6833 59.2495ZM91.904 79.852H61.952V82.852H91.904V79.852ZM172.154 109.896V111.396H173.455L173.639 110.108L172.154 109.896ZM126.458 109.896V108.396H124.852L124.962 109.998L126.458 109.896ZM140.922 115.016V113.516H139.982L139.572 114.362L140.922 115.016ZM171.002 115.016L172.473 115.31L172.832 113.516H171.002V115.016ZM164.474 128.84L163.31 127.894L163.308 127.897L164.474 128.84ZM152.058 138.44L152.691 139.8L152.701 139.795L152.058 138.44ZM116.474 137.416L115.763 138.737L115.771 138.741L116.474 137.416ZM103.418 124.616L102.101 125.334L102.108 125.346L102.114 125.358L103.418 124.616ZM103.418 85.32L102.11 84.5865L102.106 84.5932L103.418 85.32ZM116.474 72.392L115.771 71.0668L115.763 71.0713L116.474 72.392ZM154.746 72.392L154.035 73.7127L154.047 73.7192L154.059 73.7255L154.746 72.392ZM167.802 84.936L166.495 85.6714L166.499 85.6791L166.503 85.6868L167.802 84.936ZM143.738 97.48V98.98H145.238V97.48H143.738ZM141.434 92.104L140.474 93.2563L140.493 93.2725L140.513 93.288L141.434 92.104ZM126.842 97.48L125.365 97.2208L125.056 98.98H126.842V97.48ZM171.038 104.264C171.038 106.162 170.914 107.968 170.669 109.684L173.639 110.108C173.906 108.24 174.038 106.292 174.038 104.264H171.038ZM172.154 108.396H126.458V111.396H172.154V108.396ZM124.962 109.998C125.186 113.27 125.992 115.967 127.579 117.866C129.217 119.826 131.52 120.74 134.266 120.74V117.74C132.234 117.74 130.846 117.097 129.881 115.942C128.865 114.727 128.157 112.752 127.954 109.793L124.962 109.998ZM134.266 120.74C136.038 120.74 137.65 120.331 139.038 119.45C140.424 118.571 141.491 117.281 142.272 115.67L139.572 114.362C138.988 115.567 138.263 116.389 137.43 116.918C136.6 117.445 135.566 117.74 134.266 117.74V120.74ZM140.922 116.516H171.002V113.516H140.922V116.516ZM169.531 114.722C168.555 119.6 166.486 123.985 163.31 127.894L165.638 129.786C169.118 125.503 171.401 120.672 172.473 115.31L169.531 114.722ZM163.308 127.897C160.217 131.719 156.263 134.784 151.415 137.085L152.701 139.795C157.922 137.317 162.245 133.982 165.64 129.783L163.308 127.897ZM151.425 137.08C146.692 139.283 141.449 140.396 135.674 140.396V143.396C141.845 143.396 147.525 142.205 152.691 139.8L151.425 137.08ZM135.674 140.396C128.72 140.396 122.567 138.949 117.177 136.091L115.771 138.741C121.645 141.856 128.292 143.396 135.674 143.396V140.396ZM117.185 136.095C111.89 133.244 107.742 129.179 104.722 123.874L102.114 125.358C105.409 131.146 109.965 135.615 115.763 138.737L117.185 136.095ZM104.735 123.898C101.802 118.521 100.31 112.205 100.31 104.904H97.31C97.31 112.621 98.89 119.447 102.101 125.334L104.735 123.898ZM100.31 104.904C100.31 97.602 101.802 91.3333 104.73 86.0467L102.106 84.5932C98.8897 90.4001 97.31 97.1874 97.31 104.904H100.31ZM104.726 86.0535C107.748 80.6634 111.896 76.5608 117.185 73.7127L115.763 71.0713C109.959 74.1965 105.403 78.7126 102.11 84.5865L104.726 86.0535ZM117.177 73.7172C122.567 70.859 128.72 69.412 135.674 69.412V66.412C128.292 66.412 121.645 67.9517 115.771 71.0668L117.177 73.7172ZM135.674 69.412C142.628 69.412 148.735 70.8591 154.035 73.7127L155.457 71.0713C149.663 67.9516 143.056 66.412 135.674 66.412V69.412ZM154.059 73.7255C159.433 76.494 163.568 80.4688 166.495 85.6714L169.109 84.2006C165.892 78.4805 161.323 74.0927 155.433 71.0585L154.059 73.7255ZM166.503 85.6868C169.507 90.8824 171.038 97.0566 171.038 104.264H174.038C174.038 96.6234 172.412 89.9123 169.101 84.1852L166.503 85.6868ZM145.238 97.48C145.238 94.7447 144.34 92.4636 142.355 90.92L140.513 93.288C141.6 94.1337 142.238 95.4366 142.238 97.48H145.238ZM142.394 90.9517C140.548 89.4134 138.272 88.684 135.674 88.684V91.684C137.684 91.684 139.248 92.2346 140.474 93.2563L142.394 90.9517ZM135.674 88.684C132.92 88.684 130.551 89.3513 128.735 90.8516C126.915 92.3548 125.834 94.5423 125.365 97.2208L128.319 97.7392C128.703 95.5537 129.521 94.0932 130.645 93.1644C131.773 92.2327 133.393 91.684 135.674 91.684V88.684ZM126.842 98.98H143.738V95.98H126.842V98.98ZM196.245 137.416L196.931 136.082L196.931 136.082L196.245 137.416ZM182.549 124.616L181.249 125.364L181.256 125.376L181.263 125.388L182.549 124.616ZM182.549 85.32L181.258 84.5569L181.254 84.563L182.549 85.32ZM196.245 72.392L196.931 73.7257L196.931 73.7257L196.245 72.392ZM235.413 72.392L234.727 73.7257L234.727 73.7257L235.413 72.392ZM248.981 85.32L247.681 86.0684L247.688 86.0802L247.695 86.0917L248.981 85.32ZM248.981 124.616L247.69 123.853L247.686 123.859L248.981 124.616ZM235.413 137.416L234.727 136.082L234.727 136.082L235.413 137.416ZM222.485 114.248L223.614 115.236L223.624 115.224L223.634 115.213L222.485 114.248ZM222.485 95.688L221.336 96.6528L221.346 96.6644L221.356 96.6758L222.485 95.688ZM209.173 95.688L210.302 96.6758L210.312 96.6644L210.322 96.6528L209.173 95.688ZM209.045 114.248L207.874 115.185L207.894 115.211L207.916 115.236L209.045 114.248ZM215.829 140.396C208.787 140.396 202.499 138.948 196.931 136.082L195.559 138.75C201.596 141.857 208.364 143.396 215.829 143.396V140.396ZM196.931 136.082C191.375 133.222 187.018 129.149 183.835 123.844L181.263 125.388C184.736 131.176 189.51 135.636 195.559 138.75L196.931 136.082ZM183.849 123.868C180.757 118.497 179.185 112.192 179.185 104.904H176.185C176.185 112.635 177.856 119.471 181.249 125.364L183.849 123.868ZM179.185 104.904C179.185 97.6154 180.757 91.3578 183.844 86.077L181.254 84.563C177.856 90.3755 176.185 97.174 176.185 104.904H179.185ZM183.84 86.0831C187.025 80.6939 191.381 76.5826 196.931 73.7257L195.559 71.0583C189.504 74.1747 184.729 78.6821 181.258 84.5569L183.84 86.0831ZM196.931 73.7257C202.499 70.86 208.787 69.412 215.829 69.412V66.412C208.364 66.412 201.596 67.9506 195.559 71.0583L196.931 73.7257ZM215.829 69.412C222.871 69.412 229.159 70.86 234.727 73.7257L236.099 71.0583C230.062 67.9506 223.294 66.412 215.829 66.412V69.412ZM234.727 73.7257C240.274 76.5809 244.583 80.6876 247.681 86.0684L250.281 84.5715C246.894 78.6884 242.158 74.1764 236.099 71.0583L234.727 73.7257ZM247.695 86.0917C250.862 91.37 252.473 97.6221 252.473 104.904H255.473C255.473 97.1672 253.756 90.3634 250.267 84.5483L247.695 86.0917ZM252.473 104.904C252.473 112.185 250.862 118.484 247.69 123.853L250.272 125.379C253.756 119.484 255.473 112.641 255.473 104.904H252.473ZM247.686 123.859C244.59 129.155 240.28 133.224 234.727 136.082L236.099 138.75C242.151 135.635 246.887 131.17 250.276 125.373L247.686 123.859ZM234.727 136.082C229.159 138.948 222.871 140.396 215.829 140.396V143.396C223.294 143.396 230.062 141.857 236.099 138.75L234.727 136.082ZM215.829 118.82C218.921 118.82 221.546 117.599 223.614 115.236L221.356 113.26C219.84 114.993 218.028 115.82 215.829 115.82V118.82ZM223.634 115.213C225.738 112.707 226.673 109.192 226.673 104.904H223.673C223.673 108.808 222.816 111.522 221.336 113.283L223.634 115.213ZM226.673 104.904C226.673 100.622 225.741 97.1309 223.614 94.7002L221.356 96.6758C222.813 98.3411 223.673 100.994 223.673 104.904H226.673ZM223.634 94.7232C221.574 92.2713 218.944 90.988 215.829 90.988V93.988C218.005 93.988 219.812 94.8381 221.336 96.6528L223.634 94.7232ZM215.829 90.988C212.714 90.988 210.084 92.2713 208.024 94.7232L210.322 96.6528C211.846 94.8381 213.653 93.988 215.829 93.988V90.988ZM208.044 94.7002C205.917 97.1309 204.985 100.622 204.985 104.904H207.985C207.985 100.994 208.845 98.3411 210.302 96.6758L208.044 94.7002ZM204.985 104.904C204.985 109.178 205.871 112.682 207.874 115.185L210.216 113.311C208.806 111.548 207.985 108.822 207.985 104.904H204.985ZM207.916 115.236C209.994 117.611 212.668 118.82 215.829 118.82V115.82C213.529 115.82 211.68 114.981 210.174 113.26L207.916 115.236ZM304.5 63.688L304.334 65.1788L306 65.3639V63.688H304.5ZM296.436 64.712L297.29 65.9453L297.321 65.9239L297.351 65.9009L296.436 64.712ZM294.132 68.808L292.666 68.4894L292.271 70.308H294.132V68.808ZM304.5 68.808H306V67.308H304.5V68.808ZM304.5 92.488V93.988H306V92.488H304.5ZM293.876 92.488V90.988H292.376V92.488H293.876ZM293.876 141V142.5H295.376V141H293.876ZM265.46 141H263.96V142.5H265.46V141ZM265.46 92.488H266.96V90.988H265.46V92.488ZM257.78 92.488H256.28V93.988H257.78V92.488ZM257.78 68.808V67.308H256.28V68.808H257.78ZM265.46 68.808V70.308H266.933L266.96 68.8353L265.46 68.808ZM274.292 47.048L275.293 48.1654L275.294 48.1646L274.292 47.048ZM304.5 39.496H306V38.0868L304.594 37.9989L304.5 39.496ZM304.666 62.1972C303.134 62.027 301.991 61.932 301.3 61.932V64.932C301.804 64.932 302.794 65.0077 304.334 65.1788L304.666 62.1972ZM301.3 61.932C299 61.932 296.999 62.3867 295.521 63.5231L297.351 65.9009C298.092 65.3307 299.333 64.932 301.3 64.932V61.932ZM295.582 63.4787C294.037 64.5483 293.135 66.3333 292.666 68.4894L295.598 69.1266C295.982 67.3573 296.616 66.4117 297.29 65.9453L295.582 63.4787ZM294.132 70.308H304.5V67.308H294.132V70.308ZM303 68.808V92.488H306V68.808H303ZM304.5 90.988H293.876V93.988H304.5V90.988ZM292.376 92.488V141H295.376V92.488H292.376ZM293.876 139.5H265.46V142.5H293.876V139.5ZM266.96 141V92.488H263.96V141H266.96ZM265.46 90.988H257.78V93.988H265.46V90.988ZM259.28 92.488V68.808H256.28V92.488H259.28ZM257.78 70.308H265.46V67.308H257.78V70.308ZM266.96 68.8353C267.125 59.7654 269.954 52.9467 275.293 48.1654L273.291 45.9306C267.196 51.3892 264.137 59.0773 263.96 68.7807L266.96 68.8353ZM275.294 48.1646C280.74 43.279 288.445 40.74 298.612 40.74V37.74C287.958 37.74 279.449 40.4063 273.29 45.9314L275.294 48.1646ZM298.612 40.74C299.756 40.74 301.678 40.8225 304.406 40.9931L304.594 37.9989C301.861 37.8281 299.858 37.74 298.612 37.74V40.74ZM303 39.496V63.688H306V39.496H303ZM314.582 59.08L315.577 57.9571L315.577 57.9571L314.582 59.08ZM314.582 38.984L315.577 40.1069L315.585 40.099L315.594 40.091L314.582 38.984ZM338.262 38.984L337.25 40.091L337.259 40.099L337.267 40.1069L338.262 38.984ZM338.262 59.08L337.267 57.9571L337.267 57.9571L338.262 59.08ZM340.566 68.808H342.066V67.308H340.566V68.808ZM340.566 141V142.5H342.066V141H340.566ZM312.15 141H310.65V142.5H312.15V141ZM312.15 68.808V67.308H310.65V68.808H312.15ZM326.486 61.548C321.811 61.548 318.227 60.3049 315.577 57.9571L313.587 60.2029C316.91 63.1458 321.262 64.548 326.486 64.548V61.548ZM315.577 57.9571C312.913 55.5982 311.602 52.6799 311.602 49.096H308.602C308.602 53.5335 310.277 57.2711 313.587 60.2029L315.577 57.9571ZM311.602 49.096C311.602 45.4163 312.921 42.459 315.577 40.1069L313.587 37.8611C310.27 40.7997 308.602 44.5837 308.602 49.096H311.602ZM315.594 40.091C318.246 37.6667 321.824 36.388 326.486 36.388V33.388C321.25 33.388 316.892 34.84 313.57 37.877L315.594 40.091ZM326.486 36.388C331.055 36.388 334.593 37.6623 337.25 40.091L339.274 37.877C335.957 34.8444 331.645 33.388 326.486 33.388V36.388ZM337.267 40.1069C339.923 42.459 341.242 45.4163 341.242 49.096H344.242C344.242 44.5837 342.574 40.7997 339.257 37.8611L337.267 40.1069ZM341.242 49.096C341.242 52.6799 339.931 55.5982 337.267 57.9571L339.257 60.2029C342.567 57.2711 344.242 53.5335 344.242 49.096H341.242ZM337.267 57.9571C334.612 60.309 331.068 61.548 326.486 61.548V64.548C331.632 64.548 335.939 63.1416 339.257 60.2029L337.267 57.9571ZM339.066 68.808V141H342.066V68.808H339.066ZM340.566 139.5H312.15V142.5H340.566V139.5ZM313.65 141V68.808H310.65V141H313.65ZM312.15 70.308H340.566V67.308H312.15V70.308ZM367.352 138.568L366.764 139.948L366.772 139.951L367.352 138.568ZM349.688 116.04V114.54H348.053L348.194 116.169L349.688 116.04ZM376.952 116.04L378.433 115.803L378.231 114.54H376.952V116.04ZM379.64 120.776L378.775 122.001L378.791 122.013L378.808 122.024L379.64 120.776ZM388.856 121.416L389.716 122.645L389.756 122.617L389.793 122.587L388.856 121.416ZM378.36 113.224L378.654 111.753L378.65 111.752L378.36 113.224ZM365.432 109.896L364.925 111.308L364.936 111.312L365.432 109.896ZM356.6 103.752L355.459 104.725L355.467 104.735L355.475 104.744L356.6 103.752ZM356.344 79.688L355.087 78.8695L355.082 78.8769L356.344 79.688ZM366.84 71.112L367.449 72.4827L367.46 72.478L367.47 72.4732L366.84 71.112ZM406.392 75.08L405.404 76.2089L405.413 76.2164L406.392 75.08ZM416.376 93.768V95.268H418.108L417.861 93.5536L416.376 93.768ZM391.16 93.768L389.694 94.0866L389.951 95.268H391.16V93.768ZM388.472 89.288L387.526 90.4522L387.549 90.4705L387.572 90.488L388.472 89.288ZM379.64 88.52L380.472 89.7681L380.518 89.7377L380.561 89.704L379.64 88.52ZM381.176 94.28L380.585 95.6587L380.613 95.6708L380.642 95.6817L381.176 94.28ZM389.752 96.456L390.042 94.9842L390.04 94.9839L389.752 96.456ZM402.936 99.912L402.431 101.325L402.431 101.325L402.936 99.912ZM412.28 106.568L411.13 107.531L411.137 107.539L411.143 107.547L412.28 106.568ZM412.536 130.888L413.75 131.768L413.75 131.768L412.536 130.888ZM401.784 138.952L401.205 137.568L401.196 137.572L401.784 138.952ZM385.528 140.396C378.863 140.396 373.008 139.313 367.932 137.185L366.772 139.951C372.278 142.26 378.539 143.396 385.528 143.396V140.396ZM367.94 137.188C362.936 135.055 359.013 132.128 356.117 128.428L353.755 130.276C357.003 134.427 361.357 137.644 366.764 139.948L367.94 137.188ZM356.117 128.428C353.224 124.731 351.584 120.569 351.182 115.911L348.194 116.169C348.645 121.409 350.504 126.123 353.755 130.276L356.117 128.428ZM349.688 117.54H376.952V114.54H349.688V117.54ZM375.471 116.277C375.861 118.717 376.925 120.695 378.775 122.001L380.505 119.551C379.454 118.809 378.725 117.63 378.433 115.803L375.471 116.277ZM378.808 122.024C380.645 123.249 382.873 123.812 385.4 123.812V120.812C383.319 120.812 381.707 120.351 380.472 119.528L378.808 122.024ZM385.4 123.812C387.041 123.812 388.529 123.476 389.716 122.645L387.996 120.187C387.476 120.551 386.66 120.812 385.4 120.812V123.812ZM389.793 122.587C390.937 121.672 391.636 120.456 391.636 118.984H388.636C388.636 119.389 388.482 119.794 387.919 120.245L389.793 122.587ZM391.636 118.984C391.636 117.879 391.324 116.852 390.648 115.983C389.986 115.132 389.056 114.535 387.982 114.126L386.914 116.93C387.632 117.203 388.046 117.524 388.28 117.825C388.5 118.108 388.636 118.468 388.636 118.984H391.636ZM387.982 114.126C386.063 113.395 382.926 112.608 378.654 111.753L378.066 114.695C382.327 115.547 385.249 116.295 386.914 116.93L387.982 114.126ZM378.65 111.752C373.485 110.736 369.25 109.643 365.928 108.48L364.936 111.312C368.44 112.538 372.824 113.664 378.07 114.696L378.65 111.752ZM365.939 108.484C362.871 107.383 360.134 105.49 357.725 102.76L355.475 104.744C358.186 107.817 361.337 110.02 364.925 111.308L365.939 108.484ZM357.741 102.779C355.567 100.23 354.388 96.6063 354.388 91.72H351.388C351.388 97.0737 352.684 101.472 355.459 104.725L357.741 102.779ZM354.388 91.72C354.388 87.5577 355.464 83.8308 357.606 80.4991L355.082 78.8769C352.616 82.7132 351.388 87.0076 351.388 91.72H354.388ZM357.601 80.5065C359.809 77.1151 363.065 74.4313 367.449 72.4827L366.231 69.7413C361.399 71.8887 357.657 74.9222 355.087 78.8695L357.601 80.5065ZM367.47 72.4732C371.832 70.454 377.193 69.412 383.608 69.412V66.412C376.881 66.412 371.064 67.5033 366.21 69.7508L367.47 72.4732ZM383.608 69.412C393.098 69.412 400.298 71.7407 405.404 76.2089L407.38 73.9511C401.564 68.862 393.574 66.412 383.608 66.412V69.412ZM405.413 76.2164C410.668 80.7439 413.83 86.6374 414.891 93.9824L417.861 93.5536C416.703 85.5386 413.209 78.9735 407.371 73.9436L405.413 76.2164ZM416.376 92.268H391.16V95.268H416.376V92.268ZM392.626 93.4494C392.137 91.2001 391.075 89.3654 389.372 88.088L387.572 90.488C388.599 91.2586 389.33 92.4105 389.694 94.0866L392.626 93.4494ZM389.418 88.1238C387.712 86.7379 385.509 86.124 382.968 86.124V89.124C385.035 89.124 386.501 89.6195 387.526 90.4522L389.418 88.1238ZM382.968 86.124C381.34 86.124 379.852 86.4549 378.719 87.336L380.561 89.704C380.964 89.3905 381.694 89.124 382.968 89.124V86.124ZM378.808 87.2719C377.534 88.121 376.988 89.4574 376.988 90.952H379.988C379.988 90.2279 380.21 89.943 380.472 89.7681L378.808 87.2719ZM376.988 90.952C376.988 92.0139 377.326 92.988 377.993 93.8145C378.641 94.6162 379.543 95.2121 380.585 95.6587L381.767 92.9013C381.017 92.5799 380.575 92.2371 380.327 91.9295C380.098 91.6467 379.988 91.3408 379.988 90.952H376.988ZM380.642 95.6817C382.56 96.4125 385.525 97.1573 389.464 97.9281L390.04 94.9839C386.129 94.2187 383.376 93.5128 381.71 92.8783L380.642 95.6817ZM389.462 97.9278C394.621 98.9426 398.939 100.077 402.431 101.325L403.441 98.4994C399.765 97.1868 395.294 96.0174 390.042 94.9842L389.462 97.9278ZM402.431 101.325C405.744 102.508 408.642 104.561 411.13 107.531L413.43 105.605C410.628 102.26 407.296 99.8764 403.441 98.4994L402.431 101.325ZM411.143 107.547C413.484 110.264 414.748 114.14 414.748 119.368H417.748C417.748 113.673 416.367 109.016 413.417 105.589L411.143 107.547ZM414.748 119.368C414.748 123.322 413.608 126.854 411.322 130.008L413.75 131.768C416.413 128.096 417.748 123.947 417.748 119.368H414.748ZM411.322 130.008C409.039 133.156 405.697 135.69 401.205 137.568L402.363 140.336C407.257 138.289 411.084 135.447 413.75 131.768L411.322 130.008ZM401.196 137.572C396.813 139.439 391.603 140.396 385.528 140.396V143.396C391.912 143.396 397.539 142.391 402.372 140.332L401.196 137.572ZM429.957 59.08L430.952 57.9571L430.952 57.9571L429.957 59.08ZM429.957 38.984L430.952 40.1069L430.96 40.099L430.969 40.091L429.957 38.984ZM453.637 38.984L452.625 40.091L452.634 40.099L452.642 40.1069L453.637 38.984ZM453.637 59.08L452.642 57.9571L452.642 57.9571L453.637 59.08ZM455.941 68.808H457.441V67.308H455.941V68.808ZM455.941 141V142.5H457.441V141H455.941ZM427.525 141H426.025V142.5H427.525V141ZM427.525 68.808V67.308H426.025V68.808H427.525ZM441.861 61.548C437.186 61.548 433.602 60.3049 430.952 57.9571L428.962 60.2029C432.285 63.1458 436.637 64.548 441.861 64.548V61.548ZM430.952 57.9571C428.288 55.5982 426.977 52.6799 426.977 49.096H423.977C423.977 53.5335 425.652 57.2711 428.962 60.2029L430.952 57.9571ZM426.977 49.096C426.977 45.4163 428.296 42.459 430.952 40.1069L428.962 37.8611C425.645 40.7997 423.977 44.5837 423.977 49.096H426.977ZM430.969 40.091C433.621 37.6667 437.199 36.388 441.861 36.388V33.388C436.625 33.388 432.267 34.84 428.945 37.877L430.969 40.091ZM441.861 36.388C446.43 36.388 449.968 37.6623 452.625 40.091L454.649 37.877C451.332 34.8444 447.02 33.388 441.861 33.388V36.388ZM452.642 40.1069C455.298 42.459 456.617 45.4163 456.617 49.096H459.617C459.617 44.5837 457.949 40.7997 454.632 37.8611L452.642 40.1069ZM456.617 49.096C456.617 52.6799 455.306 55.5982 452.642 57.9571L454.632 60.2029C457.942 57.2711 459.617 53.5335 459.617 49.096H456.617ZM452.642 57.9571C449.987 60.309 446.443 61.548 441.861 61.548V64.548C447.007 64.548 451.314 63.1416 454.632 60.2029L452.642 57.9571ZM454.441 68.808V141H457.441V68.808H454.441ZM455.941 139.5H427.525V142.5H455.941V139.5ZM429.025 141V68.808H426.025V141H429.025ZM427.525 70.308H455.941V67.308H427.525V70.308ZM469.543 85.32L468.235 84.5865L468.231 84.5932L469.543 85.32ZM482.599 72.392L481.896 71.0668L481.888 71.0713L482.599 72.392ZM525.479 75.848L524.523 77.0041L524.531 77.0103L525.479 75.848ZM537.767 97.864V99.364H539.564L539.243 97.5957L537.767 97.864ZM507.687 97.864L506.248 98.289L506.566 99.364H507.687V97.864ZM495.655 95.432L494.392 94.6234L494.38 94.6417L494.369 94.6603L495.655 95.432ZM495.655 114.376L494.369 115.148L494.38 115.166L494.392 115.185L495.655 114.376ZM507.687 111.944V110.444H506.566L506.248 111.519L507.687 111.944ZM537.767 111.944L539.243 112.212L539.564 110.444H537.767V111.944ZM525.479 133.96L524.531 132.798L524.523 132.804L525.479 133.96ZM482.599 137.416L481.888 138.737L481.896 138.741L482.599 137.416ZM469.543 124.616L468.226 125.334L468.233 125.346L468.239 125.358L469.543 124.616ZM466.435 104.904C466.435 97.602 467.927 91.3333 470.855 86.0467L468.231 84.5932C465.015 90.4001 463.435 97.1874 463.435 104.904H466.435ZM470.851 86.0535C473.873 80.6634 478.021 76.5608 483.31 73.7127L481.888 71.0713C476.084 74.1965 471.528 78.7126 468.235 84.5865L470.851 86.0535ZM483.302 73.7172C488.692 70.859 494.845 69.412 501.799 69.412V66.412C494.417 66.412 487.77 67.9517 481.896 71.0668L483.302 73.7172ZM501.799 69.412C510.885 69.412 518.427 71.9646 524.523 77.0041L526.435 74.6919C519.731 69.15 511.486 66.412 501.799 66.412V69.412ZM524.531 77.0103C530.701 82.0438 534.639 89.0447 536.291 98.1323L539.243 97.5957C537.482 87.9099 533.228 80.2335 526.427 74.6857L524.531 77.0103ZM537.767 96.364H507.687V99.364H537.767V96.364ZM509.126 97.439C508.518 95.3826 507.574 93.6875 506.203 92.5043C504.807 91.3003 503.091 90.732 501.159 90.732V93.732C502.47 93.732 503.463 94.1023 504.243 94.7757C505.048 95.4698 505.747 96.5908 506.248 98.289L509.126 97.439ZM501.159 90.732C498.286 90.732 496 92.1102 494.392 94.6234L496.918 96.2406C498.041 94.4872 499.424 93.732 501.159 93.732V90.732ZM494.369 94.6603C492.883 97.1357 492.235 100.615 492.235 104.904H495.235C495.235 100.83 495.867 97.9949 496.941 96.2037L494.369 94.6603ZM492.235 104.904C492.235 109.193 492.883 112.672 494.369 115.148L496.941 113.604C495.867 111.813 495.235 108.978 495.235 104.904H492.235ZM494.392 115.185C496 117.698 498.286 119.076 501.159 119.076V116.076C499.424 116.076 498.041 115.321 496.918 113.567L494.392 115.185ZM501.159 119.076C503.091 119.076 504.807 118.508 506.203 117.304C507.574 116.12 508.518 114.425 509.126 112.369L506.248 111.519C505.747 113.217 505.048 114.338 504.243 115.032C503.463 115.706 502.47 116.076 501.159 116.076V119.076ZM507.687 113.444H537.767V110.444H507.687V113.444ZM536.291 111.676C534.639 120.763 530.701 127.764 524.531 132.798L526.427 135.122C533.228 129.575 537.482 121.898 539.243 112.212L536.291 111.676ZM524.523 132.804C518.427 137.843 510.885 140.396 501.799 140.396V143.396C511.486 143.396 519.731 140.658 526.435 135.116L524.523 132.804ZM501.799 140.396C494.845 140.396 488.692 138.949 483.302 136.091L481.896 138.741C487.77 141.856 494.417 143.396 501.799 143.396V140.396ZM483.31 136.095C478.015 133.244 473.867 129.179 470.847 123.874L468.239 125.358C471.534 131.146 476.09 135.615 481.888 138.737L483.31 136.095ZM470.86 123.898C467.927 118.521 466.435 112.205 466.435 104.904H463.435C463.435 112.621 465.015 119.447 468.226 125.334L470.86 123.898ZM546.775 85.192L545.417 84.5543L545.413 84.5634L546.775 85.192ZM557.527 72.392L558.337 73.6545L558.345 73.6492L558.354 73.6437L557.527 72.392ZM584.919 70.856L584.171 72.1564L584.184 72.1635L584.196 72.1703L584.919 70.856ZM592.727 78.664L591.406 79.3751L594.227 78.664H592.727ZM592.727 68.808V67.308H591.227V68.808H592.727ZM621.015 68.808H622.515V67.308H621.015V68.808ZM621.015 141V142.5H622.515V141H621.015ZM592.727 141H591.227V142.5H592.727V141ZM592.727 131.144H594.227L591.406 130.433L592.727 131.144ZM584.919 139.08L585.642 140.394L585.654 140.387L585.667 140.38L584.919 139.08ZM557.527 137.544L556.7 138.796L556.709 138.801L556.717 138.807L557.527 137.544ZM546.775 124.744L545.409 125.365L545.415 125.377L545.421 125.39L546.775 124.744ZM589.783 95.944L590.887 94.9284L590.887 94.9284L589.783 95.944ZM574.679 95.944L573.575 94.9284L573.575 94.9284L574.679 95.944ZM544.435 104.904C544.435 97.475 545.687 91.1283 548.137 85.8206L545.413 84.5634C542.743 90.349 541.435 97.1437 541.435 104.904H544.435ZM548.133 85.8297C550.677 80.4122 554.088 76.3805 558.337 73.6545L556.717 71.1295C551.921 74.2062 548.163 78.7078 545.417 84.5543L548.133 85.8297ZM558.354 73.6437C562.621 70.8256 567.409 69.412 572.759 69.412V66.412C566.845 66.412 561.478 67.9851 556.7 71.1403L558.354 73.6437ZM572.759 69.412C577.24 69.412 581.026 70.3476 584.171 72.1564L585.667 69.5556C581.986 67.4391 577.664 66.412 572.759 66.412V69.412ZM584.196 72.1703C587.364 73.9129 589.756 76.3097 591.406 79.3751L594.048 77.9528C592.114 74.3623 589.3 71.5538 585.642 69.5417L584.196 72.1703ZM594.227 78.664V68.808H591.227V78.664H594.227ZM592.727 70.308H621.015V67.308H592.727V70.308ZM619.515 68.808V141H622.515V68.808H619.515ZM621.015 139.5H592.727V142.5H621.015V139.5ZM594.227 141V131.144H591.227V141H594.227ZM591.406 130.433C589.752 133.504 587.353 135.95 584.171 137.78L585.667 140.38C589.312 138.285 592.118 135.44 594.048 131.855L591.406 130.433ZM584.196 137.766C581.045 139.499 577.251 140.396 572.759 140.396V143.396C577.654 143.396 581.966 142.416 585.642 140.394L584.196 137.766ZM572.759 140.396C567.4 140.396 562.606 139.02 558.337 136.281L556.717 138.807C561.493 141.871 566.854 143.396 572.759 143.396V140.396ZM558.354 136.292C554.088 133.475 550.673 129.432 548.129 124.098L545.421 125.39C548.168 131.149 551.921 135.639 556.7 138.796L558.354 136.292ZM548.141 124.123C545.687 118.725 544.435 112.332 544.435 104.904H541.435C541.435 112.665 542.743 119.499 545.409 125.365L548.141 124.123ZM594.227 104.904C594.227 100.813 593.178 97.4186 590.887 94.9284L588.679 96.9596C590.314 98.7361 591.227 101.315 591.227 104.904H594.227ZM590.887 94.9284C588.622 92.4662 585.694 91.244 582.231 91.244V94.244C584.912 94.244 587.019 95.1551 588.679 96.9596L590.887 94.9284ZM582.231 91.244C578.768 91.244 575.84 92.4662 573.575 94.9284L575.783 96.9596C577.443 95.1551 579.55 94.244 582.231 94.244V91.244ZM573.575 94.9284C571.284 97.4186 570.235 100.813 570.235 104.904H573.235C573.235 101.315 574.148 98.7361 575.783 96.9596L573.575 94.9284ZM570.235 104.904C570.235 108.995 571.284 112.389 573.575 114.88L575.783 112.848C574.148 111.072 573.235 108.493 573.235 104.904H570.235ZM573.575 114.88C575.84 117.342 578.768 118.564 582.231 118.564V115.564C579.55 115.564 577.443 114.653 575.783 112.848L573.575 114.88ZM582.231 118.564C585.694 118.564 588.622 117.342 590.887 114.88L588.679 112.848C587.019 114.653 584.912 115.564 582.231 115.564V118.564ZM590.887 114.88C593.178 112.389 594.227 108.995 594.227 104.904H591.227C591.227 108.493 590.314 111.072 588.679 112.848L590.887 114.88ZM715.183 73.928L716.66 74.19L716.663 74.1703L716.666 74.1505L715.183 73.928ZM708.655 87.368L709.741 88.4025L709.747 88.3961L709.753 88.3897L708.655 87.368ZM696.367 94.536L696.003 93.0808L696.003 95.9912L696.367 94.536ZM706.479 100.936L705.267 101.82L705.281 101.839L705.295 101.857L706.479 100.936ZM709.679 116.168L711.157 116.422L711.159 116.415L709.679 116.168ZM698.543 134.6L699.415 135.821L699.418 135.818L698.543 134.6ZM627.375 141L625.898 140.739L625.587 142.5H627.375V141ZM643.375 50.376V48.876H642.117L641.898 50.1152L643.375 50.376ZM708.655 55.24L707.781 56.459L707.794 56.4684L707.807 56.4774L708.655 55.24ZM685.231 79.432L683.76 79.1378L683.754 79.1663L683.75 79.195L685.231 79.432ZM683.695 74.056L682.795 75.256L682.818 75.2731L682.841 75.2893L683.695 74.056ZM667.823 72.904V71.404H666.569L666.347 72.6383L667.823 72.904ZM665.519 85.704L664.043 85.4383L663.725 87.204H665.519V85.704ZM682.543 84.168L681.678 82.9425L681.678 82.9425L682.543 84.168ZM681.391 111.944L679.92 111.65L679.914 111.683L679.908 111.716L681.391 111.944ZM662.063 105.416V103.916H660.796L660.584 105.165L662.063 105.416ZM659.887 118.216L658.408 117.965L658.11 119.716H659.887V118.216ZM678.703 116.808L679.553 118.044L679.56 118.039L679.568 118.033L678.703 116.808ZM713.706 73.666C712.814 78.6937 710.759 82.9039 707.557 86.3463L709.753 88.3897C713.378 84.4934 715.675 79.7436 716.66 74.19L713.706 73.666ZM707.569 86.3335C704.351 89.7127 700.505 91.9554 696.003 93.0808L696.731 95.9912C701.787 94.7272 706.133 92.1913 709.741 88.4025L707.569 86.3335ZM696.003 95.9912C700.161 97.0306 703.205 98.9935 705.267 101.82L707.691 100.052C705.145 96.5638 701.448 94.2601 696.731 93.0808L696.003 95.9912ZM705.295 101.857C707.464 104.645 708.563 107.942 708.563 111.816H711.563C711.563 107.328 710.273 103.371 707.663 100.015L705.295 101.857ZM708.563 111.816C708.563 113.088 708.444 114.456 708.199 115.921L711.159 116.415C711.426 114.808 711.563 113.274 711.563 111.816H708.563ZM708.201 115.914C706.896 123.496 703.38 129.279 697.668 133.382L699.418 135.818C705.824 131.217 709.731 124.712 711.157 116.422L708.201 115.914ZM697.671 133.379C692.025 137.412 684.468 139.5 674.863 139.5V142.5C684.885 142.5 693.114 140.321 699.415 135.821L697.671 133.379ZM674.863 139.5H627.375V142.5H674.863V139.5ZM628.852 141.261L644.852 50.6368L641.898 50.1152L625.898 140.739L628.852 141.261ZM643.375 51.876H689.583V48.876H643.375V51.876ZM689.583 51.876C697.602 51.876 703.608 53.4669 707.781 56.459L709.529 54.021C704.657 50.5277 697.948 48.876 689.583 48.876V51.876ZM707.807 56.4774C711.961 59.3238 714.067 63.4848 714.067 69.192H717.067C717.067 62.6112 714.565 57.4709 709.503 54.0026L707.807 56.4774ZM714.067 69.192C714.067 70.5558 713.947 72.0591 713.7 73.7055L716.666 74.1505C716.931 72.3835 717.067 70.7295 717.067 69.192H714.067ZM686.702 79.7262C686.814 79.1642 686.859 78.5005 686.859 77.768H683.859C683.859 78.4008 683.818 78.8464 683.76 79.1378L686.702 79.7262ZM686.859 77.768C686.859 75.7153 686.17 73.9449 684.549 72.8227L682.841 75.2893C683.439 75.7031 683.859 76.4074 683.859 77.768H686.859ZM684.595 72.856C683.181 71.7957 681.161 71.404 678.831 71.404V74.404C680.938 74.404 682.161 74.7803 682.795 75.256L684.595 72.856ZM678.831 71.404H667.823V74.404H678.831V71.404ZM666.347 72.6383L664.043 85.4383L666.995 85.9697L669.299 73.1697L666.347 72.6383ZM665.519 87.204H676.527V84.204H665.519V87.204ZM676.527 87.204C679.266 87.204 681.615 86.6592 683.408 85.3934L681.678 82.9425C680.57 83.7248 678.908 84.204 676.527 84.204V87.204ZM683.408 85.3934C685.258 84.0874 686.322 82.1088 686.712 79.669L683.75 79.195C683.458 81.0218 682.729 82.2006 681.678 82.9425L683.408 85.3934ZM682.862 112.238C682.974 111.676 683.019 111.013 683.019 110.28H680.019C680.019 110.913 679.978 111.358 679.92 111.65L682.862 112.238ZM683.019 110.28C683.019 108.289 682.328 106.58 680.783 105.429C679.322 104.34 677.31 103.916 674.991 103.916V106.916C677.024 106.916 678.276 107.302 678.991 107.835C679.622 108.305 680.019 109.028 680.019 110.28H683.019ZM674.991 103.916H662.063V106.916H674.991V103.916ZM660.584 105.165L658.408 117.965L661.366 118.467L663.542 105.667L660.584 105.165ZM659.887 119.716H672.815V116.716H659.887V119.716ZM672.815 119.716C675.525 119.716 677.835 119.225 679.553 118.044L677.853 115.572C676.84 116.268 675.225 116.716 672.815 116.716V119.716ZM679.568 118.033C681.434 116.716 682.488 114.681 682.874 112.172L679.908 111.716C679.612 113.645 678.873 114.852 677.838 115.583L679.568 118.033ZM760.059 46.28L761.536 46.5415L761.848 44.78H760.059V46.28ZM743.291 141V142.5H744.549L744.768 141.261L743.291 141ZM714.875 141L713.398 140.739L713.086 142.5H714.875V141ZM731.643 46.28V44.78H730.385L730.166 46.0185L731.643 46.28ZM758.582 46.0185L741.814 140.739L744.768 141.261L761.536 46.5415L758.582 46.0185ZM743.291 139.5H714.875V142.5H743.291V139.5ZM716.352 141.261L733.12 46.5415L730.166 46.0185L713.398 140.739L716.352 141.261ZM731.643 47.78H760.059V44.78H731.643V47.78ZM773.405 138.184L774.085 136.847L774.085 136.847L773.405 138.184ZM762.013 127.688L760.723 128.453L760.729 128.463L762.013 127.688ZM763.805 89.16L762.52 88.3858L762.517 88.3919L762.513 88.398L763.805 89.16ZM780.189 73.544L780.905 74.8621L780.905 74.8621L780.189 73.544ZM820.253 71.752L819.554 73.0794L819.564 73.0842L819.573 73.0889L820.253 71.752ZM831.645 82.376L830.355 83.1407L830.361 83.1513L831.645 82.376ZM829.853 120.776L831.145 121.538L831.145 121.538L829.853 120.776ZM813.597 136.392L814.3 137.717L814.307 137.714L814.313 137.71L813.597 136.392ZM804.381 94.664L803.289 95.692L803.304 95.7086L803.32 95.7247L804.381 94.664ZM790.301 97.48L791.564 98.2895L791.564 98.2895L790.301 97.48ZM790.301 140.396C784.097 140.396 778.705 139.197 774.085 136.847L772.725 139.521C777.833 142.12 783.705 143.396 790.301 143.396V140.396ZM774.085 136.847C769.462 134.495 765.878 131.187 763.297 126.913L760.729 128.463C763.609 133.234 767.62 136.924 772.725 139.521L774.085 136.847ZM763.303 126.923C760.727 122.576 759.417 117.514 759.417 111.688H756.417C756.417 117.98 757.837 123.584 760.723 128.453L763.303 126.923ZM759.417 111.688C759.417 103.571 761.319 96.3283 765.097 89.922L762.513 88.398C758.44 95.3037 756.417 103.08 756.417 111.688H759.417ZM765.09 89.9342C768.961 83.5098 774.225 78.4909 780.905 74.8621L779.473 72.2259C772.329 76.1064 766.67 81.4982 762.52 88.3858L765.09 89.9342ZM780.905 74.8621C787.579 71.2368 795.052 69.412 803.357 69.412V66.412C794.595 66.412 786.623 68.3419 779.473 72.2259L780.905 74.8621ZM803.357 69.412C809.554 69.412 814.939 70.6501 819.554 73.0794L820.952 70.4246C815.839 67.7339 809.96 66.412 803.357 66.412V69.412ZM819.573 73.0889C824.188 75.4371 827.772 78.7823 830.355 83.1407L832.935 81.6113C830.057 76.7537 826.046 73.0162 820.933 70.4151L819.573 73.0889ZM830.361 83.1513C832.931 87.4073 834.241 92.4217 834.241 98.248H837.241C837.241 91.9569 835.821 86.39 832.929 81.6007L830.361 83.1513ZM834.241 98.248C834.241 106.365 832.339 113.608 828.561 120.014L831.145 121.538C835.218 114.632 837.241 106.856 837.241 98.248H834.241ZM828.561 120.014C824.776 126.431 819.559 131.447 812.881 135.074L814.313 137.71C821.459 133.828 827.079 128.433 831.145 121.538L828.561 120.014ZM812.894 135.067C806.22 138.61 798.7 140.396 790.301 140.396V143.396C799.14 143.396 807.15 141.513 814.3 137.717L812.894 135.067ZM794.653 118.82C798.879 118.82 802.236 116.856 804.62 113.137L802.094 111.518C800.211 114.456 797.766 115.82 794.653 115.82V118.82ZM804.62 113.137C806.914 109.559 808.057 105.564 808.057 101.192H805.057C805.057 105.012 804.067 108.441 802.094 111.518L804.62 113.137ZM808.057 101.192C808.057 98.0594 807.273 95.4345 805.442 93.6033L803.32 95.7247C804.39 96.7948 805.057 98.5219 805.057 101.192H808.057ZM805.473 93.636C803.791 91.8482 801.585 90.988 799.005 90.988V93.988C800.862 93.988 802.241 94.5784 803.289 95.692L805.473 93.636ZM799.005 90.988C794.779 90.988 791.422 92.952 789.038 96.6705L791.564 98.2895C793.447 95.352 795.892 93.988 799.005 93.988V90.988ZM789.038 96.6705C786.744 100.249 785.601 104.244 785.601 108.616H788.601C788.601 104.796 789.591 101.367 791.564 98.2895L789.038 96.6705ZM785.601 108.616C785.601 111.727 786.331 114.339 788.057 116.172L790.241 114.116C789.236 113.048 788.601 111.308 788.601 108.616H785.601ZM788.057 116.172C789.751 117.972 792.006 118.82 794.653 118.82V115.82C792.692 115.82 791.278 115.218 790.241 114.116L788.057 116.172ZM888.06 70.856L887.252 72.12L887.265 72.1281L887.278 72.1359L888.06 70.856ZM894.46 78.664L893.048 79.1708L894.936 84.4302L895.936 78.9323L894.46 78.664ZM896.252 68.808V67.308H895L894.776 68.5397L896.252 68.808ZM924.54 68.808L926.017 69.0693L926.329 67.308H924.54V68.808ZM911.996 139.72L913.473 139.982L913.473 139.981L911.996 139.72ZM904.956 158.152L903.687 157.352L903.683 157.359L903.679 157.366L904.956 158.152ZM890.62 171.464L889.906 170.145L889.898 170.149L890.62 171.464ZM843.388 169.032L844.361 167.891L844.352 167.882L843.388 169.032ZM834.812 146.248V144.748H833.511L833.327 146.036L834.812 146.248ZM862.716 146.248L864.214 146.18L864.149 144.748H862.716V146.248ZM879.1 149.32L878.185 148.131L878.174 148.14L878.163 148.149L879.1 149.32ZM883.708 139.72L885.184 139.988L885.185 139.984L883.708 139.72ZM885.244 131.144L886.721 131.408L884.026 130.269L885.244 131.144ZM876.028 139.08L876.699 140.422L876.711 140.416L876.723 140.409L876.028 139.08ZM845.82 134.6L844.712 135.611L844.712 135.611L845.82 134.6ZM840.06 104.904L841.532 105.19L841.534 105.18L841.536 105.169L840.06 104.904ZM847.484 85.192L848.744 86.0061L848.749 85.9973L847.484 85.192ZM860.412 72.392L861.161 73.6916L861.169 73.6869L861.177 73.6821L860.412 72.392ZM889.852 104.904L888.388 104.579L888.381 104.61L888.375 104.641L889.852 104.904ZM887.804 95.176L886.715 96.2076L886.729 96.2223L886.743 96.2367L887.804 95.176ZM873.34 95.944L872.341 94.8251L872.331 94.8341L872.321 94.8434L873.34 95.944ZM868.86 104.904L870.324 105.229L870.331 105.198L870.337 105.167L868.86 104.904ZM870.908 114.76L869.819 115.792L869.833 115.806L869.847 115.821L870.908 114.76ZM885.244 113.864L884.245 112.745L884.235 112.754L884.225 112.763L885.244 113.864ZM876.412 69.412C880.9 69.412 884.482 70.35 887.252 72.12L888.868 69.592C885.494 67.4366 881.31 66.412 876.412 66.412V69.412ZM887.278 72.1359C890.064 73.8384 891.971 76.1711 893.048 79.1708L895.872 78.1572C894.559 74.5009 892.2 71.6283 888.842 69.5761L887.278 72.1359ZM895.936 78.9323L897.728 69.0763L894.776 68.5397L892.984 78.3957L895.936 78.9323ZM896.252 70.308H924.54V67.308H896.252V70.308ZM923.063 68.5467L910.519 139.459L913.473 139.981L926.017 69.0693L923.063 68.5467ZM910.519 139.458C909.357 146.017 907.078 151.977 903.687 157.352L906.225 158.952C909.832 153.234 912.246 146.906 913.473 139.982L910.519 139.458ZM903.679 157.366C900.413 162.672 895.836 166.933 889.906 170.145L891.334 172.783C897.692 169.339 902.672 164.725 906.233 158.938L903.679 157.366ZM889.898 170.149C884.109 173.329 877.032 174.956 868.604 174.956V177.956C877.414 177.956 885.014 176.255 891.342 172.779L889.898 170.149ZM868.604 174.956C857.798 174.956 849.794 172.525 844.361 167.891L842.415 170.173C848.587 175.438 857.394 177.956 868.604 177.956V174.956ZM844.352 167.882C838.935 163.342 836.184 157.089 836.184 148.936H833.184C833.184 157.85 836.236 164.994 842.424 170.182L844.352 167.882ZM836.184 148.936C836.184 147.758 836.227 146.948 836.297 146.46L833.327 146.036C833.226 146.742 833.184 147.725 833.184 148.936H836.184ZM834.812 147.748H862.716V144.748H834.812V147.748ZM861.218 146.316C861.321 148.591 862.234 150.465 864.042 151.708C865.766 152.893 868.125 153.38 870.908 153.38V150.38C868.4 150.38 866.748 149.928 865.742 149.236C864.819 148.602 864.282 147.66 864.214 146.18L861.218 146.316ZM870.908 153.38C874.5 153.38 877.583 152.454 880.037 150.491L878.163 148.149C876.35 149.599 873.972 150.38 870.908 150.38V153.38ZM880.015 150.509C882.675 148.462 884.307 144.81 885.184 139.988L882.232 139.452C881.402 144.017 879.962 146.765 878.185 148.131L880.015 150.509ZM885.185 139.984L886.721 131.408L883.767 130.88L882.231 139.456L885.185 139.984ZM884.026 130.269C881.778 133.4 878.887 135.893 875.333 137.751L876.723 140.409C880.678 138.342 883.932 135.544 886.462 132.019L884.026 130.269ZM875.357 137.738C871.834 139.5 867.844 140.396 863.356 140.396V143.396C868.254 143.396 872.712 142.415 876.699 140.422L875.357 137.738ZM863.356 140.396C856.477 140.396 851.051 138.108 846.928 133.589L844.712 135.611C849.464 140.82 855.729 143.396 863.356 143.396V140.396ZM846.928 133.589C842.813 129.078 840.664 122.739 840.664 114.376H837.664C837.664 123.25 839.953 130.394 844.712 135.611L846.928 133.589ZM840.664 114.376C840.664 111.226 840.954 108.165 841.532 105.19L838.588 104.618C837.971 107.787 837.664 111.041 837.664 114.376H840.664ZM841.536 105.169C842.872 97.7377 845.284 91.3603 848.744 86.0061L846.224 84.3779C842.516 90.117 839.978 96.881 838.584 104.639L841.536 105.169ZM848.749 85.9973C852.223 80.5388 856.365 76.4554 861.161 73.6916L859.663 71.0924C854.39 74.1313 849.913 78.5812 846.219 84.3867L848.749 85.9973ZM861.177 73.6821C865.99 70.8272 871.06 69.412 876.412 69.412V66.412C870.5 66.412 864.903 67.9835 859.647 71.1019L861.177 73.6821ZM891.316 105.229C891.521 104.309 891.608 103.162 891.608 101.832H888.608C888.608 103.062 888.525 103.963 888.388 104.579L891.316 105.229ZM891.608 101.832C891.608 98.6707 890.766 96.0171 888.865 94.1153L886.743 96.2367C887.914 97.4069 888.608 99.1906 888.608 101.832H891.608ZM888.893 94.1444C887.022 92.1691 884.507 91.244 881.532 91.244V94.244C883.848 94.244 885.514 94.9402 886.715 96.2076L888.893 94.1444ZM881.532 91.244C878.075 91.244 874.992 92.4578 872.341 94.8251L874.339 97.0629C876.466 95.1635 878.845 94.244 881.532 94.244V91.244ZM872.321 94.8434C869.724 97.2479 868.109 100.559 867.383 104.641L870.337 105.167C870.976 101.569 872.348 98.9068 874.359 97.0446L872.321 94.8434ZM867.396 104.579C867.191 105.499 867.104 106.646 867.104 107.976H870.104C870.104 106.746 870.187 105.845 870.324 105.229L867.396 104.579ZM867.104 107.976C867.104 111.142 867.947 113.816 869.819 115.792L871.997 113.728C870.797 112.461 870.104 110.612 870.104 107.976H867.104ZM869.847 115.821C871.724 117.697 874.229 118.564 877.18 118.564V115.564C874.84 115.564 873.164 114.895 871.969 113.699L869.847 115.821ZM877.18 118.564C880.639 118.564 883.689 117.348 886.263 114.965L884.225 112.763C882.191 114.646 879.865 115.564 877.18 115.564V118.564ZM886.243 114.983C888.934 112.58 890.601 109.263 891.329 105.167L888.375 104.641C887.738 108.225 886.333 110.881 884.245 112.745L886.243 114.983Z"/></g><defs><clipPath id="clip0_1201_3"><rect width="932" height="180" fill="#fff"/></clipPath></defs></svg>