<svg xmlns="http://www.w3.org/2000/svg" width="900" height="130" fill="none" viewBox="0 0 900 130"><mask id="path-1-outside-1_2_183" width="892" height="112" x="5" y="2" fill="#000" maskUnits="userSpaceOnUse"><rect width="892" height="112" x="5" y="2" fill="#fff"/><path d="M69.268 49.456C67.8173 47.0667 65.812 45.232 63.252 43.952C60.7773 42.672 57.8333 42.032 54.42 42.032C48.1053 42.032 43.1133 44.08 39.444 48.176C35.86 52.272 34.068 57.776 34.068 64.688C34.068 72.4533 35.988 78.384 39.828 82.48C43.7533 86.4907 49.428 88.496 56.852 88.496C65.6413 88.496 71.9133 84.528 75.668 76.592H50.452V58.544H97.3V82.864C95.3373 87.6427 92.436 92.1227 88.596 96.304C84.8413 100.485 80.0627 103.941 74.26 106.672C68.4573 109.317 61.844 110.64 54.42 110.64C45.3747 110.64 37.3533 108.72 30.356 104.88C23.444 100.955 18.068 95.536 14.228 88.624C10.4733 81.6267 8.596 73.648 8.596 64.688C8.596 55.8133 10.4733 47.92 14.228 41.008C18.068 34.0107 23.444 28.592 30.356 24.752C37.268 20.8267 45.2467 18.864 54.292 18.864C65.6413 18.864 75.028 21.5947 82.452 27.056C89.876 32.5173 94.484 39.984 96.276 49.456H69.268ZM177.151 73.264C177.151 75.2267 177.023 77.1893 176.767 79.152H129.279C129.535 83.0773 130.602 86.0213 132.479 87.984C134.442 89.8613 136.916 90.8 139.903 90.8C144.084 90.8 147.071 88.9227 148.863 85.168H175.615C174.506 90.1173 172.33 94.5547 169.087 98.48C165.93 102.32 161.919 105.349 157.055 107.568C152.191 109.787 146.815 110.896 140.927 110.896C133.844 110.896 127.53 109.403 121.983 106.416C116.522 103.429 112.212 99.1627 109.055 93.616C105.983 88.0693 104.447 81.5413 104.447 74.032C104.447 66.5227 105.983 60.0373 109.055 54.576C112.127 49.0293 116.394 44.7627 121.855 41.776C127.402 38.7893 133.759 37.296 140.927 37.296C148.01 37.296 154.282 38.7467 159.743 41.648C165.204 44.5493 169.471 48.7307 172.543 54.192C175.615 59.568 177.151 65.9253 177.151 73.264ZM151.551 66.992C151.551 63.92 150.527 61.5307 148.479 59.824C146.431 58.032 143.871 57.136 140.799 57.136C137.727 57.136 135.21 57.9893 133.247 59.696C131.284 61.3173 130.004 63.7493 129.407 66.992H151.551ZM220.826 110.896C213.658 110.896 207.215 109.403 201.498 106.416C195.866 103.429 191.429 99.1627 188.186 93.616C184.943 88.0693 183.322 81.5413 183.322 74.032C183.322 66.608 184.943 60.1227 188.186 54.576C191.514 49.0293 195.994 44.7627 201.626 41.776C207.343 38.7893 213.786 37.296 220.954 37.296C228.122 37.296 234.522 38.7893 240.154 41.776C245.871 44.7627 250.351 49.0293 253.594 54.576C256.922 60.1227 258.586 66.608 258.586 74.032C258.586 81.456 256.922 87.984 253.594 93.616C250.351 99.1627 245.871 103.429 240.154 106.416C234.437 109.403 227.994 110.896 220.826 110.896ZM220.826 89.136C224.325 89.136 227.226 87.856 229.53 85.296C231.919 82.6507 233.114 78.896 233.114 74.032C233.114 69.168 231.919 65.456 229.53 62.896C227.226 60.336 224.367 59.056 220.954 59.056C217.541 59.056 214.682 60.336 212.378 62.896C210.074 65.456 208.922 69.168 208.922 74.032C208.922 78.9813 210.031 82.736 212.25 85.296C214.469 87.856 217.327 89.136 220.826 89.136ZM307.577 59.056H296.313V110H271.097V59.056H263.289V38.192H271.097V37.552C271.097 28.336 273.785 21.296 279.161 16.432C284.622 11.4827 292.43 9.008 302.585 9.008C304.633 9.008 306.212 9.05066 307.321 9.13599V30.512C306.638 30.4267 305.7 30.384 304.505 30.384C301.774 30.384 299.769 31.024 298.489 32.304C297.209 33.4987 296.484 35.4613 296.313 38.192H307.577V59.056ZM329.215 31.536C324.778 31.536 321.194 30.3413 318.463 27.952C315.818 25.4773 314.495 22.4053 314.495 18.736C314.495 14.9813 315.818 11.8667 318.463 9.392C321.194 6.91733 324.778 5.67999 329.215 5.67999C333.567 5.67999 337.066 6.91733 339.711 9.392C342.442 11.8667 343.807 14.9813 343.807 18.736C343.807 22.4053 342.442 25.4773 339.711 27.952C337.066 30.3413 333.567 31.536 329.215 31.536ZM341.631 38.192V110H316.543V38.192H341.631ZM386.51 110.896C380.025 110.896 374.222 109.829 369.102 107.696C364.067 105.477 360.057 102.491 357.07 98.736C354.169 94.896 352.547 90.5867 352.206 85.808H376.526C376.867 88.112 377.934 89.904 379.726 91.184C381.518 92.464 383.737 93.104 386.382 93.104C388.43 93.104 390.051 92.6773 391.246 91.824C392.441 90.9707 393.038 89.8613 393.038 88.496C393.038 86.704 392.057 85.3813 390.094 84.528C388.131 83.6747 384.889 82.736 380.366 81.712C375.246 80.688 370.979 79.536 367.566 78.256C364.153 76.976 361.166 74.8853 358.606 71.984C356.131 69.0827 354.894 65.1573 354.894 60.208C354.894 55.9413 356.046 52.1013 358.35 48.688C360.654 45.1893 364.025 42.416 368.462 40.368C372.985 38.32 378.403 37.296 384.718 37.296C394.105 37.296 401.486 39.6 406.862 44.208C412.238 48.816 415.353 54.8747 416.206 62.384H393.55C393.123 60.08 392.099 58.3307 390.478 57.136C388.942 55.856 386.851 55.216 384.206 55.216C382.158 55.216 380.579 55.6 379.47 56.368C378.446 57.136 377.934 58.2027 377.934 59.568C377.934 61.2747 378.915 62.5973 380.878 63.536C382.841 64.3893 385.998 65.2853 390.35 66.224C395.555 67.3333 399.865 68.5707 403.278 69.936C406.777 71.3013 409.806 73.52 412.366 76.592C415.011 79.5787 416.334 83.6747 416.334 88.88C416.334 93.0613 415.097 96.816 412.622 100.144C410.233 103.472 406.777 106.117 402.254 108.08C397.817 109.957 392.569 110.896 386.51 110.896ZM441.34 31.536C436.903 31.536 433.319 30.3413 430.588 27.952C427.943 25.4773 426.62 22.4053 426.62 18.736C426.62 14.9813 427.943 11.8667 430.588 9.392C433.319 6.91733 436.903 5.67999 441.34 5.67999C445.692 5.67999 449.191 6.91733 451.836 9.392C454.567 11.8667 455.932 14.9813 455.932 18.736C455.932 22.4053 454.567 25.4773 451.836 27.952C449.191 30.3413 445.692 31.536 441.34 31.536ZM453.756 38.192V110H428.668V38.192H453.756ZM463.947 74.032C463.947 66.608 465.483 60.1227 468.555 54.576C471.627 49.0293 475.894 44.7627 481.355 41.776C486.902 38.7893 493.216 37.296 500.299 37.296C509.43 37.296 517.11 39.8133 523.339 44.848C529.568 49.7973 533.579 56.752 535.371 65.712H508.747C507.211 61.0187 504.224 58.672 499.787 58.672C496.63 58.672 494.112 59.9947 492.235 62.64C490.443 65.2 489.547 68.9973 489.547 74.032C489.547 79.0667 490.443 82.9067 492.235 85.552C494.112 88.1973 496.63 89.52 499.787 89.52C504.31 89.52 507.296 87.1733 508.747 82.48H535.371C533.579 91.3547 529.568 98.3093 523.339 103.344C517.11 108.379 509.43 110.896 500.299 110.896C493.216 110.896 486.902 109.403 481.355 106.416C475.894 103.429 471.627 99.1627 468.555 93.616C465.483 88.0693 463.947 81.5413 463.947 74.032ZM541.697 74.032C541.697 66.608 543.02 60.1227 545.665 54.576C548.396 49.0293 552.065 44.7627 556.673 41.776C561.366 38.7893 566.572 37.296 572.289 37.296C577.238 37.296 581.505 38.2773 585.089 40.24C588.673 42.2027 591.446 44.848 593.409 48.176V38.192H618.497V110H593.409V100.016C591.446 103.344 588.63 105.989 584.961 107.952C581.377 109.915 577.153 110.896 572.289 110.896C566.572 110.896 561.366 109.403 556.673 106.416C552.065 103.429 548.396 99.1627 545.665 93.616C543.02 87.984 541.697 81.456 541.697 74.032ZM593.409 74.032C593.409 69.424 592.129 65.7973 589.569 63.152C587.094 60.5067 584.022 59.184 580.353 59.184C576.598 59.184 573.484 60.5067 571.009 63.152C568.534 65.712 567.297 69.3387 567.297 74.032C567.297 78.64 568.534 82.3093 571.009 85.04C573.484 87.6853 576.598 89.008 580.353 89.008C584.022 89.008 587.094 87.6853 589.569 85.04C592.129 82.3947 593.409 78.7253 593.409 74.032Z"/><path d="M723.033 19.76L707.161 110H681.945L688.345 73.776H657.881L651.481 110H626.265L642.265 19.76H667.353L661.337 53.808H691.929L697.945 19.76H723.033ZM807.662 38.192L794.862 110H769.774L771.566 99.76C768.75 103.003 765.294 105.648 761.198 107.696C757.187 109.659 752.75 110.64 747.886 110.64C740.803 110.64 735.299 108.635 731.374 104.624C727.449 100.613 725.486 95.024 725.486 87.856C725.486 85.3813 725.742 82.736 726.254 79.92L733.55 38.192H758.638L751.854 76.72C751.598 77.8293 751.47 78.9387 751.47 80.048C751.47 83.12 752.366 85.552 754.158 87.344C755.95 89.0507 758.382 89.904 761.454 89.904C765.038 89.904 768.067 88.7947 770.542 86.576C773.017 84.3573 774.681 81.2853 775.534 77.36L782.446 38.192H807.662ZM845.236 48.176C847.711 44.848 850.911 42.2027 854.836 40.24C858.847 38.2773 863.284 37.296 868.148 37.296C875.657 37.296 881.673 39.7707 886.196 44.72C890.804 49.6693 893.108 56.4533 893.108 65.072C893.108 67.8027 892.852 70.7893 892.34 74.032C890.975 81.456 888.457 87.984 884.788 93.616C881.119 99.1627 876.681 103.429 871.476 106.416C866.356 109.403 860.937 110.896 855.22 110.896C850.271 110.896 846.175 109.957 842.932 108.08C839.775 106.117 837.513 103.429 836.148 100.016L834.356 110H809.14L825.908 15.28H851.124L845.236 48.176ZM866.74 74.032C866.996 72.752 867.124 71.5147 867.124 70.32C867.124 66.8213 866.1 64.0907 864.052 62.128C862.089 60.1653 859.529 59.184 856.372 59.184C852.703 59.184 849.332 60.5067 846.26 63.152C843.273 65.7973 841.396 69.424 840.628 74.032C840.372 75.312 840.244 76.5067 840.244 77.616C840.244 81.2 841.225 84.016 843.188 86.064C845.236 88.0267 847.839 89.008 850.996 89.008C854.751 89.008 858.121 87.6853 861.108 85.04C864.095 82.3093 865.972 78.64 866.74 74.032Z"/></mask><path fill="#F5EDED" d="M69.268 49.456C67.8173 47.0667 65.812 45.232 63.252 43.952C60.7773 42.672 57.8333 42.032 54.42 42.032C48.1053 42.032 43.1133 44.08 39.444 48.176C35.86 52.272 34.068 57.776 34.068 64.688C34.068 72.4533 35.988 78.384 39.828 82.48C43.7533 86.4907 49.428 88.496 56.852 88.496C65.6413 88.496 71.9133 84.528 75.668 76.592H50.452V58.544H97.3V82.864C95.3373 87.6427 92.436 92.1227 88.596 96.304C84.8413 100.485 80.0627 103.941 74.26 106.672C68.4573 109.317 61.844 110.64 54.42 110.64C45.3747 110.64 37.3533 108.72 30.356 104.88C23.444 100.955 18.068 95.536 14.228 88.624C10.4733 81.6267 8.596 73.648 8.596 64.688C8.596 55.8133 10.4733 47.92 14.228 41.008C18.068 34.0107 23.444 28.592 30.356 24.752C37.268 20.8267 45.2467 18.864 54.292 18.864C65.6413 18.864 75.028 21.5947 82.452 27.056C89.876 32.5173 94.484 39.984 96.276 49.456H69.268ZM177.151 73.264C177.151 75.2267 177.023 77.1893 176.767 79.152H129.279C129.535 83.0773 130.602 86.0213 132.479 87.984C134.442 89.8613 136.916 90.8 139.903 90.8C144.084 90.8 147.071 88.9227 148.863 85.168H175.615C174.506 90.1173 172.33 94.5547 169.087 98.48C165.93 102.32 161.919 105.349 157.055 107.568C152.191 109.787 146.815 110.896 140.927 110.896C133.844 110.896 127.53 109.403 121.983 106.416C116.522 103.429 112.212 99.1627 109.055 93.616C105.983 88.0693 104.447 81.5413 104.447 74.032C104.447 66.5227 105.983 60.0373 109.055 54.576C112.127 49.0293 116.394 44.7627 121.855 41.776C127.402 38.7893 133.759 37.296 140.927 37.296C148.01 37.296 154.282 38.7467 159.743 41.648C165.204 44.5493 169.471 48.7307 172.543 54.192C175.615 59.568 177.151 65.9253 177.151 73.264ZM151.551 66.992C151.551 63.92 150.527 61.5307 148.479 59.824C146.431 58.032 143.871 57.136 140.799 57.136C137.727 57.136 135.21 57.9893 133.247 59.696C131.284 61.3173 130.004 63.7493 129.407 66.992H151.551ZM220.826 110.896C213.658 110.896 207.215 109.403 201.498 106.416C195.866 103.429 191.429 99.1627 188.186 93.616C184.943 88.0693 183.322 81.5413 183.322 74.032C183.322 66.608 184.943 60.1227 188.186 54.576C191.514 49.0293 195.994 44.7627 201.626 41.776C207.343 38.7893 213.786 37.296 220.954 37.296C228.122 37.296 234.522 38.7893 240.154 41.776C245.871 44.7627 250.351 49.0293 253.594 54.576C256.922 60.1227 258.586 66.608 258.586 74.032C258.586 81.456 256.922 87.984 253.594 93.616C250.351 99.1627 245.871 103.429 240.154 106.416C234.437 109.403 227.994 110.896 220.826 110.896ZM220.826 89.136C224.325 89.136 227.226 87.856 229.53 85.296C231.919 82.6507 233.114 78.896 233.114 74.032C233.114 69.168 231.919 65.456 229.53 62.896C227.226 60.336 224.367 59.056 220.954 59.056C217.541 59.056 214.682 60.336 212.378 62.896C210.074 65.456 208.922 69.168 208.922 74.032C208.922 78.9813 210.031 82.736 212.25 85.296C214.469 87.856 217.327 89.136 220.826 89.136ZM307.577 59.056H296.313V110H271.097V59.056H263.289V38.192H271.097V37.552C271.097 28.336 273.785 21.296 279.161 16.432C284.622 11.4827 292.43 9.008 302.585 9.008C304.633 9.008 306.212 9.05066 307.321 9.13599V30.512C306.638 30.4267 305.7 30.384 304.505 30.384C301.774 30.384 299.769 31.024 298.489 32.304C297.209 33.4987 296.484 35.4613 296.313 38.192H307.577V59.056ZM329.215 31.536C324.778 31.536 321.194 30.3413 318.463 27.952C315.818 25.4773 314.495 22.4053 314.495 18.736C314.495 14.9813 315.818 11.8667 318.463 9.392C321.194 6.91733 324.778 5.67999 329.215 5.67999C333.567 5.67999 337.066 6.91733 339.711 9.392C342.442 11.8667 343.807 14.9813 343.807 18.736C343.807 22.4053 342.442 25.4773 339.711 27.952C337.066 30.3413 333.567 31.536 329.215 31.536ZM341.631 38.192V110H316.543V38.192H341.631ZM386.51 110.896C380.025 110.896 374.222 109.829 369.102 107.696C364.067 105.477 360.057 102.491 357.07 98.736C354.169 94.896 352.547 90.5867 352.206 85.808H376.526C376.867 88.112 377.934 89.904 379.726 91.184C381.518 92.464 383.737 93.104 386.382 93.104C388.43 93.104 390.051 92.6773 391.246 91.824C392.441 90.9707 393.038 89.8613 393.038 88.496C393.038 86.704 392.057 85.3813 390.094 84.528C388.131 83.6747 384.889 82.736 380.366 81.712C375.246 80.688 370.979 79.536 367.566 78.256C364.153 76.976 361.166 74.8853 358.606 71.984C356.131 69.0827 354.894 65.1573 354.894 60.208C354.894 55.9413 356.046 52.1013 358.35 48.688C360.654 45.1893 364.025 42.416 368.462 40.368C372.985 38.32 378.403 37.296 384.718 37.296C394.105 37.296 401.486 39.6 406.862 44.208C412.238 48.816 415.353 54.8747 416.206 62.384H393.55C393.123 60.08 392.099 58.3307 390.478 57.136C388.942 55.856 386.851 55.216 384.206 55.216C382.158 55.216 380.579 55.6 379.47 56.368C378.446 57.136 377.934 58.2027 377.934 59.568C377.934 61.2747 378.915 62.5973 380.878 63.536C382.841 64.3893 385.998 65.2853 390.35 66.224C395.555 67.3333 399.865 68.5707 403.278 69.936C406.777 71.3013 409.806 73.52 412.366 76.592C415.011 79.5787 416.334 83.6747 416.334 88.88C416.334 93.0613 415.097 96.816 412.622 100.144C410.233 103.472 406.777 106.117 402.254 108.08C397.817 109.957 392.569 110.896 386.51 110.896ZM441.34 31.536C436.903 31.536 433.319 30.3413 430.588 27.952C427.943 25.4773 426.62 22.4053 426.62 18.736C426.62 14.9813 427.943 11.8667 430.588 9.392C433.319 6.91733 436.903 5.67999 441.34 5.67999C445.692 5.67999 449.191 6.91733 451.836 9.392C454.567 11.8667 455.932 14.9813 455.932 18.736C455.932 22.4053 454.567 25.4773 451.836 27.952C449.191 30.3413 445.692 31.536 441.34 31.536ZM453.756 38.192V110H428.668V38.192H453.756ZM463.947 74.032C463.947 66.608 465.483 60.1227 468.555 54.576C471.627 49.0293 475.894 44.7627 481.355 41.776C486.902 38.7893 493.216 37.296 500.299 37.296C509.43 37.296 517.11 39.8133 523.339 44.848C529.568 49.7973 533.579 56.752 535.371 65.712H508.747C507.211 61.0187 504.224 58.672 499.787 58.672C496.63 58.672 494.112 59.9947 492.235 62.64C490.443 65.2 489.547 68.9973 489.547 74.032C489.547 79.0667 490.443 82.9067 492.235 85.552C494.112 88.1973 496.63 89.52 499.787 89.52C504.31 89.52 507.296 87.1733 508.747 82.48H535.371C533.579 91.3547 529.568 98.3093 523.339 103.344C517.11 108.379 509.43 110.896 500.299 110.896C493.216 110.896 486.902 109.403 481.355 106.416C475.894 103.429 471.627 99.1627 468.555 93.616C465.483 88.0693 463.947 81.5413 463.947 74.032ZM541.697 74.032C541.697 66.608 543.02 60.1227 545.665 54.576C548.396 49.0293 552.065 44.7627 556.673 41.776C561.366 38.7893 566.572 37.296 572.289 37.296C577.238 37.296 581.505 38.2773 585.089 40.24C588.673 42.2027 591.446 44.848 593.409 48.176V38.192H618.497V110H593.409V100.016C591.446 103.344 588.63 105.989 584.961 107.952C581.377 109.915 577.153 110.896 572.289 110.896C566.572 110.896 561.366 109.403 556.673 106.416C552.065 103.429 548.396 99.1627 545.665 93.616C543.02 87.984 541.697 81.456 541.697 74.032ZM593.409 74.032C593.409 69.424 592.129 65.7973 589.569 63.152C587.094 60.5067 584.022 59.184 580.353 59.184C576.598 59.184 573.484 60.5067 571.009 63.152C568.534 65.712 567.297 69.3387 567.297 74.032C567.297 78.64 568.534 82.3093 571.009 85.04C573.484 87.6853 576.598 89.008 580.353 89.008C584.022 89.008 587.094 87.6853 589.569 85.04C592.129 82.3947 593.409 78.7253 593.409 74.032Z"/><path fill="#1077BC" d="M723.033 19.76L707.161 110H681.945L688.345 73.776H657.881L651.481 110H626.265L642.265 19.76H667.353L661.337 53.808H691.929L697.945 19.76H723.033ZM807.662 38.192L794.862 110H769.774L771.566 99.76C768.75 103.003 765.294 105.648 761.198 107.696C757.187 109.659 752.75 110.64 747.886 110.64C740.803 110.64 735.299 108.635 731.374 104.624C727.449 100.613 725.486 95.024 725.486 87.856C725.486 85.3813 725.742 82.736 726.254 79.92L733.55 38.192H758.638L751.854 76.72C751.598 77.8293 751.47 78.9387 751.47 80.048C751.47 83.12 752.366 85.552 754.158 87.344C755.95 89.0507 758.382 89.904 761.454 89.904C765.038 89.904 768.067 88.7947 770.542 86.576C773.017 84.3573 774.681 81.2853 775.534 77.36L782.446 38.192H807.662ZM845.236 48.176C847.711 44.848 850.911 42.2027 854.836 40.24C858.847 38.2773 863.284 37.296 868.148 37.296C875.657 37.296 881.673 39.7707 886.196 44.72C890.804 49.6693 893.108 56.4533 893.108 65.072C893.108 67.8027 892.852 70.7893 892.34 74.032C890.975 81.456 888.457 87.984 884.788 93.616C881.119 99.1627 876.681 103.429 871.476 106.416C866.356 109.403 860.937 110.896 855.22 110.896C850.271 110.896 846.175 109.957 842.932 108.08C839.775 106.117 837.513 103.429 836.148 100.016L834.356 110H809.14L825.908 15.28H851.124L845.236 48.176ZM866.74 74.032C866.996 72.752 867.124 71.5147 867.124 70.32C867.124 66.8213 866.1 64.0907 864.052 62.128C862.089 60.1653 859.529 59.184 856.372 59.184C852.703 59.184 849.332 60.5067 846.26 63.152C843.273 65.7973 841.396 69.424 840.628 74.032C840.372 75.312 840.244 76.5067 840.244 77.616C840.244 81.2 841.225 84.016 843.188 86.064C845.236 88.0267 847.839 89.008 850.996 89.008C854.751 89.008 858.121 87.6853 861.108 85.04C864.095 82.3093 865.972 78.64 866.74 74.032Z"/><path fill="#000" d="M69.268 49.456L66.7036 51.0129L67.5798 52.456H69.268V49.456ZM63.252 43.952L61.8737 46.6166L61.892 46.6261L61.9104 46.6353L63.252 43.952ZM39.444 48.176L37.2095 46.1743L37.1978 46.1873L37.1863 46.2005L39.444 48.176ZM39.828 82.48L37.6394 84.5318L37.6614 84.5553L37.684 84.5784L39.828 82.48ZM75.668 76.592L78.3798 77.875L80.4062 73.592H75.668V76.592ZM50.452 76.592H47.452V79.592H50.452V76.592ZM50.452 58.544V55.544H47.452V58.544H50.452ZM97.3 58.544H100.3V55.544H97.3V58.544ZM97.3 82.864L100.075 84.0038L100.3 83.4561V82.864H97.3ZM88.596 96.304L86.3864 94.2748L86.3751 94.2871L86.3639 94.2996L88.596 96.304ZM74.26 106.672L75.5044 109.402L75.521 109.394L75.5374 109.386L74.26 106.672ZM30.356 104.88L28.8745 107.489L28.8935 107.499L28.9127 107.51L30.356 104.88ZM14.228 88.624L11.5845 90.0424L11.5949 90.0618L11.6055 90.0809L14.228 88.624ZM14.228 41.008L11.598 39.5647L11.5918 39.576L14.228 41.008ZM30.356 24.752L31.8129 27.3745L31.8252 27.3676L31.8375 27.3607L30.356 24.752ZM82.452 27.056L80.6743 29.4726L82.452 27.056ZM96.276 49.456V52.456H99.8968L99.2237 48.8983L96.276 49.456ZM71.8324 47.8991C70.081 45.0145 67.6464 42.7951 64.5936 41.2687L61.9104 46.6353C63.9776 47.6689 65.5536 49.1188 66.7036 51.0129L71.8324 47.8991ZM64.6303 41.2873C61.6442 39.7428 58.2065 39.032 54.42 39.032V45.032C57.4601 45.032 59.9105 45.6012 61.8737 46.6166L64.6303 41.2873ZM54.42 39.032C47.3922 39.032 41.5349 41.3459 37.2095 46.1743L41.6785 50.1777C44.6918 46.8141 48.8185 45.032 54.42 45.032V39.032ZM37.1863 46.2005C33.0056 50.9784 31.068 57.2514 31.068 64.688H37.068C37.068 58.3006 38.7144 53.5656 41.7017 50.1515L37.1863 46.2005ZM31.068 64.688C31.068 72.9207 33.1065 79.6967 37.6394 84.5318L42.0166 80.4282C38.8695 77.0713 37.068 71.9859 37.068 64.688H31.068ZM37.684 84.5784C42.3385 89.3341 48.892 91.496 56.852 91.496V85.496C49.964 85.496 45.1682 83.6473 41.972 80.3816L37.684 84.5784ZM56.852 91.496C61.7085 91.496 66.0537 90.395 69.7519 88.0552C73.4504 85.7154 76.3044 82.2616 78.3798 77.875L72.9562 75.309C71.2769 78.8584 69.1176 81.3566 66.5441 82.9848C63.9703 84.6131 60.7849 85.496 56.852 85.496V91.496ZM75.668 73.592H50.452V79.592H75.668V73.592ZM53.452 76.592V58.544H47.452V76.592H53.452ZM50.452 61.544H97.3V55.544H50.452V61.544ZM94.3 58.544V82.864H100.3V58.544H94.3ZM94.5249 81.7242C92.7095 86.1445 90.0106 90.3285 86.3864 94.2748L90.8056 98.3332C94.8614 93.9168 97.9652 89.1408 100.075 84.0038L94.5249 81.7242ZM86.3639 94.2996C82.912 98.1437 78.4737 101.374 72.9826 103.958L75.5374 109.386C81.6516 106.509 86.7707 102.827 90.8281 98.3084L86.3639 94.2996ZM73.0156 103.942C67.6626 106.383 61.4846 107.64 54.42 107.64V113.64C62.2034 113.64 69.2521 112.252 75.5044 109.402L73.0156 103.942ZM54.42 107.64C45.811 107.64 38.2981 105.816 31.7993 102.25L28.9127 107.51C36.4085 111.624 44.9383 113.64 54.42 113.64V107.64ZM31.8375 102.271C25.4016 98.6164 20.4216 93.595 16.8505 87.1671L11.6055 90.0809C15.7144 97.477 21.4864 103.293 28.8745 107.489L31.8375 102.271ZM16.8715 87.2055C13.3795 80.6978 11.596 73.2174 11.596 64.688H5.596C5.596 74.0786 7.56716 82.5555 11.5845 90.0424L16.8715 87.2055ZM11.596 64.688C11.596 56.2485 13.3775 48.8586 16.8642 42.44L11.5918 39.576C7.56916 46.9814 5.596 55.3782 5.596 64.688H11.596ZM16.858 42.4513C20.4287 35.9448 25.4002 30.9371 31.8129 27.3745L28.8991 22.1295C21.4878 26.2469 15.7073 32.0766 11.598 39.5647L16.858 42.4513ZM31.8375 27.3607C38.2385 23.7255 45.6933 21.864 54.292 21.864V15.864C44.8001 15.864 36.2975 17.9278 28.8745 22.1433L31.8375 27.3607ZM54.292 21.864C65.1524 21.864 73.8749 24.4707 80.6743 29.4726L84.2297 24.6394C76.1811 18.7186 66.1303 15.864 54.292 15.864V21.864ZM80.6743 29.4726C87.4571 34.4622 91.6701 41.2492 93.3283 50.0137L99.2237 48.8983C97.2979 38.7188 92.2949 30.5725 84.2297 24.6394L80.6743 29.4726ZM96.276 46.456H69.268V52.456H96.276V46.456ZM176.767 79.152V82.152H179.401L179.742 79.54L176.767 79.152ZM129.279 79.152V76.152H126.077L126.285 79.3472L129.279 79.152ZM132.479 87.984L130.311 90.0577L130.357 90.1058L130.405 90.1519L132.479 87.984ZM148.863 85.168V82.168H146.971L146.156 83.8758L148.863 85.168ZM175.615 85.168L178.542 85.8241L179.362 82.168H175.615V85.168ZM169.087 98.48L166.774 96.5694L166.77 96.5747L169.087 98.48ZM157.055 107.568L158.3 110.297L157.055 107.568ZM121.983 106.416L120.544 109.048L120.552 109.053L120.561 109.057L121.983 106.416ZM109.055 93.616L106.431 95.0695L106.439 95.0848L106.448 95.1001L109.055 93.616ZM109.055 54.576L111.67 56.0468L111.675 56.0382L111.679 56.0295L109.055 54.576ZM121.855 41.776L120.433 39.1346L120.424 39.1392L120.416 39.1439L121.855 41.776ZM159.743 41.648L161.15 38.9986V38.9986L159.743 41.648ZM172.543 54.192L169.928 55.6628L169.933 55.6716L169.938 55.6804L172.543 54.192ZM151.551 66.992V69.992H154.551V66.992H151.551ZM148.479 59.824L146.503 62.0817L146.531 62.1055L146.558 62.1287L148.479 59.824ZM133.247 59.696L135.158 62.0089L135.187 61.9847L135.216 61.9598L133.247 59.696ZM129.407 66.992L126.457 66.4485L125.804 69.992H129.407V66.992ZM174.151 73.264C174.151 75.0958 174.032 76.9289 173.792 78.764L179.742 79.54C180.014 77.4498 180.151 75.3575 180.151 73.264H174.151ZM176.767 76.152H129.279V82.152H176.767V76.152ZM126.285 79.3472C126.567 83.668 127.769 87.3995 130.311 90.0577L134.647 85.9103C133.435 84.6431 132.503 82.4866 132.273 78.9568L126.285 79.3472ZM130.405 90.1519C132.984 92.6187 136.228 93.8 139.903 93.8V87.8C137.605 87.8 135.899 87.104 134.553 85.8161L130.405 90.1519ZM139.903 93.8C142.453 93.8 144.822 93.223 146.876 91.9319C148.93 90.6402 150.474 88.7569 151.57 86.4602L146.156 83.8758C145.46 85.3338 144.614 86.2664 143.682 86.8521C142.75 87.4383 141.535 87.8 139.903 87.8V93.8ZM148.863 88.168H175.615V82.168H148.863V88.168ZM172.688 84.5119C171.682 88.9987 169.717 93.0066 166.774 96.5694L171.4 100.391C174.942 96.1028 177.329 91.236 178.542 85.8241L172.688 84.5119ZM166.77 96.5747C163.924 100.036 160.29 102.795 155.81 104.839L158.3 110.297C163.548 107.904 167.935 104.604 171.404 100.385L166.77 96.5747ZM155.81 104.839C151.375 106.862 146.429 107.896 140.927 107.896V113.896C147.201 113.896 153.007 112.712 158.3 110.297L155.81 104.839ZM140.927 107.896C134.278 107.896 128.463 106.498 123.405 103.775L120.561 109.057C126.596 112.307 133.41 113.896 140.927 113.896V107.896ZM123.422 103.784C118.462 101.071 114.552 97.2079 111.662 92.1319L106.448 95.1001C109.873 101.117 114.581 105.787 120.544 109.048L123.422 103.784ZM111.679 92.1625C108.896 87.1361 107.447 81.1267 107.447 74.032H101.447C101.447 81.956 103.07 89.0025 106.431 95.0695L111.679 92.1625ZM107.447 74.032C107.447 66.9357 108.896 60.9777 111.67 56.0468L106.44 53.1052C103.07 59.0969 101.447 66.1096 101.447 74.032H107.447ZM111.679 56.0295C114.481 50.9702 118.341 47.1168 123.294 44.4081L120.416 39.1439C114.446 42.4086 109.773 47.0884 106.431 53.1225L111.679 56.0295ZM123.277 44.4174C128.33 41.6969 134.186 40.296 140.927 40.296V34.296C133.332 34.296 126.474 35.8818 120.433 39.1346L123.277 44.4174ZM140.927 40.296C147.591 40.296 153.367 41.6578 158.336 44.2973L161.15 38.9986C155.196 35.8355 148.429 34.296 140.927 34.296V40.296ZM158.336 44.2973C163.283 46.9256 167.134 50.6947 169.928 55.6628L175.158 52.7212C171.808 46.7667 167.126 42.173 161.15 38.9986L158.336 44.2973ZM169.938 55.6804C172.707 60.5257 174.151 66.3503 174.151 73.264H180.151C180.151 65.5003 178.523 58.6103 175.148 52.7036L169.938 55.6804ZM154.551 66.992C154.551 63.1812 153.24 59.8864 150.4 57.5193L146.558 62.1287C147.814 63.175 148.551 64.6588 148.551 66.992H154.551ZM150.455 57.5663C147.789 55.2337 144.498 54.136 140.799 54.136V60.136C143.244 60.136 145.073 60.8303 146.503 62.0817L150.455 57.5663ZM140.799 54.136C137.142 54.136 133.883 55.1674 131.278 57.4322L135.216 61.9598C136.536 60.8113 138.312 60.136 140.799 60.136V54.136ZM131.336 57.3831C128.686 59.5723 127.143 62.7205 126.457 66.4485L132.357 67.5355C132.865 64.7782 133.882 63.0624 135.158 62.0089L131.336 57.3831ZM129.407 69.992H151.551V63.992H129.407V69.992ZM201.498 106.416L200.092 109.066L200.101 109.071L200.109 109.075L201.498 106.416ZM188.186 93.616L190.776 92.1019L188.186 93.616ZM188.186 54.576L185.614 53.0325L185.605 53.0472L185.596 53.0619L188.186 54.576ZM201.626 41.776L200.237 39.1169L200.229 39.1213L200.22 39.1256L201.626 41.776ZM240.154 41.776L238.748 44.4264L238.757 44.4307L238.765 44.435L240.154 41.776ZM253.594 54.576L251.004 56.0901L251.013 56.1048L251.022 56.1195L253.594 54.576ZM253.594 93.616L251.011 92.0898L251.004 92.1019L253.594 93.616ZM240.154 106.416L238.765 103.757L240.154 106.416ZM229.53 85.296L227.304 83.2851L227.3 83.2891L229.53 85.296ZM229.53 62.896L227.3 64.9029L227.318 64.9231L227.337 64.9429L229.53 62.896ZM212.25 85.296L209.983 87.2608L209.983 87.2608L212.25 85.296ZM220.826 107.896C214.087 107.896 208.13 106.496 202.887 103.757L200.109 109.075C206.301 112.31 213.229 113.896 220.826 113.896V107.896ZM202.904 103.766C197.768 101.042 193.739 97.1711 190.776 92.1019L185.596 95.1301C189.118 101.154 193.964 105.816 200.092 109.066L202.904 103.766ZM190.776 92.1019C187.844 87.0871 186.322 81.0999 186.322 74.032H180.322C180.322 81.9827 182.043 89.0516 185.596 95.1301L190.776 92.1019ZM186.322 74.032C186.322 67.0563 187.841 61.11 190.776 56.0901L185.596 53.0619C182.045 59.1353 180.322 66.1597 180.322 74.032H186.322ZM190.758 56.1195C193.81 51.0339 197.889 47.1533 203.032 44.4264L200.22 39.1256C194.099 42.3721 189.218 47.0248 185.614 53.0325L190.758 56.1195ZM203.015 44.435C208.258 41.6964 214.215 40.296 220.954 40.296V34.296C213.357 34.296 206.429 35.8823 200.237 39.1169L203.015 44.435ZM220.954 40.296C227.694 40.296 233.601 41.6966 238.748 44.4264L241.56 39.1256C235.443 35.8821 228.55 34.296 220.954 34.296V40.296ZM238.765 44.435C243.984 47.1616 248.047 51.0324 251.004 56.0901L256.184 53.0619C252.655 47.0262 247.758 42.3637 241.543 39.1169L238.765 44.435ZM251.022 56.1195C254.031 61.1344 255.586 67.07 255.586 74.032H261.586C261.586 66.146 259.814 59.1109 256.166 53.0325L251.022 56.1195ZM255.586 74.032C255.586 80.993 254.031 86.9797 251.011 92.0898L256.177 95.1422C259.813 88.9883 261.586 81.919 261.586 74.032H255.586ZM251.004 92.1019C248.047 97.1596 243.984 101.03 238.765 103.757L241.543 109.075C247.758 105.828 252.655 101.166 256.184 95.1301L251.004 92.1019ZM238.765 103.757C233.522 106.496 227.565 107.896 220.826 107.896V113.896C228.423 113.896 235.351 112.31 241.543 109.075L238.765 103.757ZM220.826 92.136C225.16 92.136 228.877 90.5064 231.76 87.3029L227.3 83.2891C225.575 85.2056 223.49 86.136 220.826 86.136V92.136ZM231.756 87.3069C234.801 83.9363 236.114 79.3657 236.114 74.032H230.114C230.114 78.4263 229.038 81.365 227.304 83.2851L231.756 87.3069ZM236.114 74.032C236.114 68.7059 234.804 64.1495 231.723 60.849L227.337 64.9429C229.035 66.7625 230.114 69.6301 230.114 74.032H236.114ZM231.76 60.8891C228.893 57.7035 225.227 56.056 220.954 56.056V62.056C223.508 62.056 225.559 62.9685 227.3 64.9029L231.76 60.8891ZM220.954 56.056C216.681 56.056 213.015 57.7035 210.148 60.8891L214.608 64.9029C216.349 62.9685 218.4 62.056 220.954 62.056V56.056ZM210.148 60.8891C207.177 64.1906 205.922 68.7312 205.922 74.032H211.922C211.922 69.6048 212.971 66.7214 214.608 64.9029L210.148 60.8891ZM205.922 74.032C205.922 79.3777 207.115 83.9515 209.983 87.2608L214.517 83.3312C212.948 81.5205 211.922 78.585 211.922 74.032H205.922ZM209.983 87.2608C212.792 90.5025 216.49 92.136 220.826 92.136V86.136C218.165 86.136 216.145 85.2095 214.517 83.3312L209.983 87.2608ZM307.577 59.056V62.056H310.577V59.056H307.577ZM296.313 59.056V56.056H293.313V59.056H296.313ZM296.313 110V113H299.313V110H296.313ZM271.097 110H268.097V113H271.097V110ZM271.097 59.056H274.097V56.056H271.097V59.056ZM263.289 59.056H260.289V62.056H263.289V59.056ZM263.289 38.192V35.192H260.289V38.192H263.289ZM271.097 38.192V41.192H274.097V38.192H271.097ZM279.161 16.432L281.174 18.6566L281.176 18.655L279.161 16.432ZM307.321 9.13599H310.321V6.3579L307.551 6.14483L307.321 9.13599ZM307.321 30.512L306.949 33.4888L310.321 33.9103V30.512H307.321ZM298.489 32.304L300.536 34.4972L300.574 34.4619L300.61 34.4253L298.489 32.304ZM296.313 38.192L293.319 38.0049L293.12 41.192H296.313V38.192ZM307.577 38.192H310.577V35.192H307.577V38.192ZM307.577 56.056H296.313V62.056H307.577V56.056ZM293.313 59.056V110H299.313V59.056H293.313ZM296.313 107H271.097V113H296.313V107ZM274.097 110V59.056H268.097V110H274.097ZM271.097 56.056H263.289V62.056H271.097V56.056ZM266.289 59.056V38.192H260.289V59.056H266.289ZM263.289 41.192H271.097V35.192H263.289V41.192ZM274.097 38.192V37.552H268.097V38.192H274.097ZM274.097 37.552C274.097 28.9383 276.588 22.8058 281.174 18.6566L277.148 14.2074C270.982 19.7862 268.097 27.7337 268.097 37.552H274.097ZM281.176 18.655C285.906 14.3678 292.892 12.008 302.585 12.008V6.008C291.969 6.008 283.338 8.59751 277.146 14.209L281.176 18.655ZM302.585 12.008C304.608 12.008 306.097 12.0507 307.091 12.1272L307.551 6.14483C306.327 6.05064 304.658 6.008 302.585 6.008V12.008ZM304.321 9.13599V30.512H310.321V9.13599H304.321ZM307.693 27.5352C306.829 27.4272 305.748 27.384 304.505 27.384V33.384C305.651 33.384 306.447 33.4261 306.949 33.4888L307.693 27.5352ZM304.505 27.384C301.378 27.384 298.441 28.1098 296.368 30.1827L300.61 34.4253C301.097 33.9382 302.171 33.384 304.505 33.384V27.384ZM296.442 30.1108C294.358 32.0562 293.511 34.924 293.319 38.0049L299.307 38.3791C299.456 35.9987 300.06 34.9411 300.536 34.4972L296.442 30.1108ZM296.313 41.192H307.577V35.192H296.313V41.192ZM304.577 38.192V59.056H310.577V38.192H304.577ZM318.463 27.952L316.414 30.1428L316.45 30.1769L316.487 30.2097L318.463 27.952ZM318.463 9.392L316.448 7.16904L316.431 7.18497L316.414 7.20118L318.463 9.392ZM339.711 9.392L337.662 11.5828L337.679 11.599L337.696 11.615L339.711 9.392ZM339.711 27.952L341.722 30.1783L341.726 30.175L339.711 27.952ZM341.631 38.192H344.631V35.192H341.631V38.192ZM341.631 110V113H344.631V110H341.631ZM316.543 110H313.543V113H316.543V110ZM316.543 38.192V35.192H313.543V38.192H316.543ZM329.215 28.536C325.335 28.536 322.507 27.5044 320.439 25.6943L316.487 30.2097C319.88 33.1782 324.22 34.536 329.215 34.536V28.536ZM320.512 25.7612C318.482 23.8621 317.495 21.5872 317.495 18.736H311.495C311.495 23.2235 313.153 27.0926 316.414 30.1428L320.512 25.7612ZM317.495 18.736C317.495 15.7775 318.498 13.4673 320.512 11.5828L316.414 7.20118C313.137 10.2661 311.495 14.1852 311.495 18.736H317.495ZM320.478 11.615C322.548 9.73837 325.362 8.67999 329.215 8.67999V2.67999C324.193 2.67999 319.839 4.09629 316.448 7.16904L320.478 11.615ZM329.215 8.67999C332.968 8.67999 335.68 9.72928 337.662 11.5828L341.76 7.20119C338.451 4.10538 334.166 2.67999 329.215 2.67999V8.67999ZM337.696 11.615C339.786 13.5088 340.807 15.81 340.807 18.736H346.807C346.807 14.1527 345.097 10.2245 341.726 7.16904L337.696 11.615ZM340.807 18.736C340.807 21.5543 339.803 23.8202 337.696 25.729L341.726 30.175C345.081 27.1344 346.807 23.2564 346.807 18.736H340.807ZM337.7 25.7257C335.722 27.5126 332.996 28.536 329.215 28.536V34.536C334.138 34.536 338.41 33.17 341.722 30.1783L337.7 25.7257ZM338.631 38.192V110H344.631V38.192H338.631ZM341.631 107H316.543V113H341.631V107ZM319.543 110V38.192H313.543V110H319.543ZM316.543 41.192H341.631V35.192H316.543V41.192ZM369.102 107.696L367.892 110.441L367.92 110.454L367.948 110.465L369.102 107.696ZM357.07 98.736L354.676 100.545L354.699 100.574L354.722 100.604L357.07 98.736ZM352.206 85.808V82.808H348.984L349.214 86.0217L352.206 85.808ZM376.526 85.808L379.494 85.3684L379.114 82.808H376.526V85.808ZM390.094 84.528L391.29 81.7768L390.094 84.528ZM380.366 81.712L381.028 78.7861L380.992 78.7777L380.954 78.7703L380.366 81.712ZM367.566 78.256L366.513 81.065L367.566 78.256ZM358.606 71.984L356.323 73.9308L356.34 73.95L356.356 73.9689L358.606 71.984ZM358.35 48.688L360.837 50.3664L360.846 50.3522L360.855 50.338L358.35 48.688ZM368.462 40.368L367.224 37.6351L367.215 37.6396L367.205 37.6441L368.462 40.368ZM406.862 44.208L404.91 46.4858L406.862 44.208ZM416.206 62.384V65.384H419.566L419.187 62.0453L416.206 62.384ZM393.55 62.384L390.6 62.9303L391.055 65.384H393.55V62.384ZM390.478 57.136L388.557 59.4407L388.626 59.498L388.698 59.5512L390.478 57.136ZM379.47 56.368L377.762 53.9014L377.716 53.9338L377.67 53.968L379.47 56.368ZM380.878 63.536L379.584 66.2424L379.632 66.2657L379.682 66.2872L380.878 63.536ZM390.35 66.224L389.717 69.1566L389.725 69.1581L390.35 66.224ZM403.278 69.936L402.164 72.7214L402.176 72.7261L402.187 72.7307L403.278 69.936ZM412.366 76.592L410.061 78.5126L410.09 78.5473L410.12 78.5811L412.366 76.592ZM412.622 100.144L410.215 98.3539L410.2 98.374L410.185 98.3944L412.622 100.144ZM402.254 108.08L403.423 110.843L403.436 110.838L403.448 110.832L402.254 108.08ZM386.51 107.896C380.355 107.896 374.954 106.884 370.256 104.927L367.948 110.465C373.49 112.774 379.695 113.896 386.51 113.896V107.896ZM370.312 104.951C365.656 102.899 362.06 100.19 359.418 96.8684L354.722 100.604C358.053 104.791 362.478 108.056 367.892 110.441L370.312 104.951ZM359.464 96.9275C356.91 93.5478 355.498 89.7918 355.198 85.5943L349.214 86.0217C349.596 91.3815 351.427 96.2442 354.676 100.545L359.464 96.9275ZM352.206 88.808H376.526V82.808H352.206V88.808ZM373.558 86.2476C374.011 89.3054 375.486 91.8422 377.982 93.6252L381.47 88.7428C380.382 87.9658 379.723 86.9186 379.494 85.3684L373.558 86.2476ZM377.982 93.6252C380.379 95.3369 383.24 96.104 386.382 96.104V90.104C384.233 90.104 382.657 89.5911 381.47 88.7428L377.982 93.6252ZM386.382 96.104C388.815 96.104 391.121 95.6002 392.99 94.2652L389.502 89.3828C388.982 89.7545 388.045 90.104 386.382 90.104V96.104ZM392.99 94.2652C394.903 92.8984 396.038 90.9126 396.038 88.496H390.038C390.038 88.81 389.978 89.0429 389.502 89.3828L392.99 94.2652ZM396.038 88.496C396.038 87.0162 395.62 85.597 394.711 84.3725C393.827 83.1811 392.613 82.3518 391.29 81.7768L388.898 87.2792C389.538 87.5576 389.795 87.8162 389.893 87.9475C389.966 88.0457 390.038 88.1838 390.038 88.496H396.038ZM391.29 81.7768C389.051 80.8034 385.573 79.8151 381.028 78.7861L379.704 84.6379C384.204 85.6569 387.211 86.5459 388.898 87.2792L391.29 81.7768ZM380.954 78.7703C375.931 77.7656 371.832 76.6519 368.619 75.447L366.513 81.065C370.126 82.4201 374.561 83.6104 379.778 84.6537L380.954 78.7703ZM368.619 75.447C365.694 74.3502 363.111 72.5552 360.856 69.9991L356.356 73.9689C359.221 77.2154 362.611 79.6018 366.513 81.065L368.619 75.447ZM360.888 70.0372C359 67.8235 357.894 64.6603 357.894 60.208H351.894C351.894 65.6543 353.262 70.3418 356.323 73.9308L360.888 70.0372ZM357.894 60.208C357.894 56.5166 358.88 53.2654 360.837 50.3664L355.863 47.0096C353.212 50.9373 351.894 55.366 351.894 60.208H357.894ZM360.855 50.338C362.803 47.38 365.704 44.9451 369.719 43.0919L367.205 37.6441C362.345 39.8869 358.505 42.9987 355.844 47.038L360.855 50.338ZM369.7 43.1009C373.743 41.2699 378.718 40.296 384.718 40.296V34.296C378.089 34.296 372.226 35.3701 367.224 37.6351L369.7 43.1009ZM384.718 40.296C393.625 40.296 400.233 42.4774 404.91 46.4858L408.814 41.9302C402.739 36.7226 394.585 34.296 384.718 34.296V40.296ZM404.91 46.4858C409.669 50.5653 412.451 55.9109 413.225 62.7227L419.187 62.0453C418.254 53.8385 414.807 47.0667 408.814 41.9302L404.91 46.4858ZM416.206 59.384H393.55V65.384H416.206V59.384ZM396.5 61.8377C395.959 58.9158 394.592 56.4406 392.258 54.7208L388.698 59.5512C389.607 60.2207 390.288 61.2442 390.6 62.9303L396.5 61.8377ZM392.399 54.8313C390.171 52.9746 387.324 52.216 384.206 52.216V58.216C386.378 58.216 387.714 58.7374 388.557 59.4407L392.399 54.8313ZM384.206 52.216C381.844 52.216 379.572 52.6488 377.762 53.9014L381.178 58.8346C381.587 58.5511 382.472 58.216 384.206 58.216V52.216ZM377.67 53.968C375.834 55.3451 374.934 57.3317 374.934 59.568H380.934C380.934 59.0737 381.058 58.9269 381.27 58.768L377.67 53.968ZM374.934 59.568C374.934 62.7672 376.922 64.9694 379.584 66.2424L382.172 60.8296C380.909 60.2252 380.934 59.7821 380.934 59.568H374.934ZM379.682 66.2872C381.932 67.2654 385.333 68.2108 389.717 69.1566L390.983 63.2914C386.663 62.3599 383.75 61.5133 382.074 60.7848L379.682 66.2872ZM389.725 69.1581C394.83 70.2462 398.962 71.4406 402.164 72.7214L404.392 67.1506C400.767 65.7007 396.281 64.4205 390.975 63.2899L389.725 69.1581ZM402.187 72.7307C405.183 73.8999 407.804 75.8038 410.061 78.5126L414.671 74.6714C411.808 71.2362 408.37 68.7027 404.369 67.1413L402.187 72.7307ZM410.12 78.5811C412.147 80.8694 413.334 84.1792 413.334 88.88H419.334C419.334 83.1701 417.876 78.2879 414.612 74.6029L410.12 78.5811ZM413.334 88.88C413.334 92.4222 412.301 95.548 410.215 98.3539L415.029 101.934C417.892 98.084 419.334 93.7005 419.334 88.88H413.334ZM410.185 98.3944C408.171 101.2 405.187 103.537 401.06 105.328L403.448 110.832C408.367 108.698 412.295 105.744 415.059 101.894L410.185 98.3944ZM401.085 105.317C397.1 107.003 392.267 107.896 386.51 107.896V113.896C392.87 113.896 398.534 112.911 403.423 110.843L401.085 105.317ZM430.588 27.952L428.539 30.1428L428.575 30.1769L428.612 30.2097L430.588 27.952ZM430.588 9.392L428.573 7.16904L428.556 7.18497L428.539 7.20118L430.588 9.392ZM451.836 9.392L449.787 11.5828L449.804 11.599L449.821 11.615L451.836 9.392ZM451.836 27.952L453.847 30.1783L453.851 30.175L451.836 27.952ZM453.756 38.192H456.756V35.192H453.756V38.192ZM453.756 110V113H456.756V110H453.756ZM428.668 110H425.668V113H428.668V110ZM428.668 38.192V35.192H425.668V38.192H428.668ZM441.34 28.536C437.46 28.536 434.632 27.5044 432.564 25.6943L428.612 30.2097C432.005 33.1782 436.345 34.536 441.34 34.536V28.536ZM432.637 25.7612C430.607 23.8621 429.62 21.5872 429.62 18.736H423.62C423.62 23.2235 425.278 27.0926 428.539 30.1428L432.637 25.7612ZM429.62 18.736C429.62 15.7775 430.623 13.4673 432.637 11.5828L428.539 7.20118C425.262 10.2661 423.62 14.1852 423.62 18.736H429.62ZM432.603 11.615C434.673 9.73837 437.487 8.67999 441.34 8.67999V2.67999C436.318 2.67999 431.964 4.09629 428.573 7.16904L432.603 11.615ZM441.34 8.67999C445.093 8.67999 447.805 9.72928 449.787 11.5828L453.885 7.20119C450.576 4.10538 446.291 2.67999 441.34 2.67999V8.67999ZM449.821 11.615C451.911 13.5088 452.932 15.81 452.932 18.736H458.932C458.932 14.1527 457.222 10.2245 453.851 7.16904L449.821 11.615ZM452.932 18.736C452.932 21.5543 451.928 23.8202 449.821 25.729L453.851 30.175C457.206 27.1344 458.932 23.2564 458.932 18.736H452.932ZM449.825 25.7257C447.847 27.5126 445.121 28.536 441.34 28.536V34.536C446.263 34.536 450.535 33.17 453.847 30.1783L449.825 25.7257ZM450.756 38.192V110H456.756V38.192H450.756ZM453.756 107H428.668V113H453.756V107ZM431.668 110V38.192H425.668V110H431.668ZM428.668 41.192H453.756V35.192H428.668V41.192ZM468.555 54.576L471.179 56.0295L468.555 54.576ZM481.355 41.776L479.933 39.1346L479.924 39.1392L479.916 39.1439L481.355 41.776ZM523.339 44.848L521.453 47.1812L521.463 47.1891L521.473 47.1969L523.339 44.848ZM535.371 65.712V68.712H539.03L538.313 65.1236L535.371 65.712ZM508.747 65.712L505.896 66.6451L506.572 68.712H508.747V65.712ZM492.235 62.64L489.788 60.9038L489.783 60.9117L489.777 60.9196L492.235 62.64ZM492.235 85.552L489.751 87.2345L489.77 87.2616L489.788 87.2882L492.235 85.552ZM508.747 82.48V79.48H506.534L505.881 81.5941L508.747 82.48ZM535.371 82.48L538.312 83.0738L539.037 79.48H535.371V82.48ZM523.339 103.344L525.225 105.677L523.339 103.344ZM481.355 106.416L479.916 109.048L479.924 109.053L479.933 109.057L481.355 106.416ZM468.555 93.616L471.179 92.1625L468.555 93.616ZM466.947 74.032C466.947 67.0292 468.393 61.0607 471.179 56.0295L465.931 53.1225C462.573 59.1846 460.947 66.1868 460.947 74.032H466.947ZM471.179 56.0295C473.981 50.9702 477.841 47.1168 482.794 44.4081L479.916 39.1439C473.946 42.4086 469.273 47.0884 465.931 53.1225L471.179 56.0295ZM482.777 44.4174C487.835 41.6941 493.65 40.296 500.299 40.296V34.296C492.783 34.296 485.969 35.8845 479.933 39.1346L482.777 44.4174ZM500.299 40.296C508.845 40.296 515.832 42.6376 521.453 47.1812L525.225 42.5148C518.388 36.989 510.015 34.296 500.299 34.296V40.296ZM521.473 47.1969C527.065 51.6402 530.755 57.9266 532.429 66.3003L538.313 65.1236C536.404 55.5774 532.071 47.9544 525.205 42.4991L521.473 47.1969ZM535.371 62.712H508.747V68.712H535.371V62.712ZM511.598 64.7789C510.701 62.036 509.289 59.708 507.208 58.073C505.101 56.417 502.56 55.672 499.787 55.672V61.672C501.451 61.672 502.623 62.1003 503.502 62.791C504.407 63.5026 505.257 64.6947 505.896 66.6451L511.598 64.7789ZM499.787 55.672C495.626 55.672 492.21 57.4915 489.788 60.9038L494.682 64.3762C496.015 62.4979 497.633 61.672 499.787 61.672V55.672ZM489.777 60.9196C487.476 64.2071 486.547 68.7265 486.547 74.032H492.547C492.547 69.2682 493.41 66.1929 494.693 64.3604L489.777 60.9196ZM486.547 74.032C486.547 79.3483 487.48 83.882 489.751 87.2345L494.719 83.8695C493.406 81.9313 492.547 78.785 492.547 74.032H486.547ZM489.788 87.2882C492.21 90.7005 495.626 92.52 499.787 92.52V86.52C497.633 86.52 496.015 85.6941 494.682 83.8158L489.788 87.2882ZM499.787 92.52C502.588 92.52 505.155 91.7829 507.272 90.119C509.368 88.4723 510.76 86.1252 511.613 83.3659L505.881 81.5941C505.283 83.5281 504.456 84.7011 503.566 85.401C502.697 86.0838 501.509 86.52 499.787 86.52V92.52ZM508.747 85.48H535.371V79.48H508.747V85.48ZM532.43 81.8862C530.758 90.1706 527.068 96.4725 521.453 101.011L525.225 105.677C532.068 100.146 536.4 92.5387 538.312 83.0738L532.43 81.8862ZM521.453 101.011C515.832 105.554 508.845 107.896 500.299 107.896V113.896C510.015 113.896 518.388 111.203 525.225 105.677L521.453 101.011ZM500.299 107.896C493.65 107.896 487.835 106.498 482.777 103.775L479.933 109.057C485.969 112.307 492.783 113.896 500.299 113.896V107.896ZM482.794 103.784C477.841 101.075 473.981 97.2218 471.179 92.1625L465.931 95.0695C469.273 101.104 473.946 105.783 479.916 109.048L482.794 103.784ZM471.179 92.1625C468.396 87.1361 466.947 81.1267 466.947 74.032H460.947C460.947 81.956 462.57 89.0025 465.931 95.0695L471.179 92.1625ZM545.665 54.576L542.974 53.2509L542.965 53.2677L542.957 53.2846L545.665 54.576ZM556.673 41.776L555.062 39.245L555.052 39.2517L555.041 39.2585L556.673 41.776ZM585.089 40.24L583.648 42.8713L585.089 40.24ZM593.409 48.176L590.825 49.7L596.409 59.1686V48.176H593.409ZM593.409 38.192V35.192H590.409V38.192H593.409ZM618.497 38.192H621.497V35.192H618.497V38.192ZM618.497 110V113H621.497V110H618.497ZM593.409 110H590.409V113H593.409V110ZM593.409 100.016H596.409V89.0234L590.825 98.492L593.409 100.016ZM584.961 107.952L583.546 105.307L583.533 105.314L583.52 105.321L584.961 107.952ZM556.673 106.416L555.041 108.933L555.052 108.94L555.062 108.947L556.673 106.416ZM545.665 93.616L542.95 94.8914L542.961 94.9163L542.974 94.941L545.665 93.616ZM589.569 63.152L587.378 65.2015L587.396 65.22L587.413 65.2383L589.569 63.152ZM571.009 63.152L573.166 65.2371L573.183 65.2194L573.2 65.2015L571.009 63.152ZM571.009 85.04L568.786 87.0546L568.802 87.0721L568.818 87.0895L571.009 85.04ZM589.569 85.04L587.413 82.9537L587.396 82.972L587.378 82.9905L589.569 85.04ZM544.697 74.032C544.697 66.9633 545.956 60.9355 548.373 55.8674L542.957 53.2846C540.084 59.3098 538.697 66.2527 538.697 74.032H544.697ZM548.357 55.901C550.879 50.7776 554.206 46.9498 558.305 44.2935L555.041 39.2585C549.924 42.5755 545.913 47.281 542.974 53.2509L548.357 55.901ZM558.284 44.307C562.482 41.6355 567.125 40.296 572.289 40.296V34.296C566.018 34.296 560.251 35.9432 555.062 39.245L558.284 44.307ZM572.289 40.296C576.84 40.296 580.59 41.1967 583.648 42.8713L586.53 37.6087C582.42 35.358 577.636 34.296 572.289 34.296V40.296ZM583.648 42.8713C586.787 44.5901 589.153 46.8644 590.825 49.7L595.993 46.652C593.74 42.8316 590.559 39.8153 586.53 37.6087L583.648 42.8713ZM596.409 48.176V38.192H590.409V48.176H596.409ZM593.409 41.192H618.497V35.192H593.409V41.192ZM615.497 38.192V110H621.497V38.192H615.497ZM618.497 107H593.409V113H618.497V107ZM596.409 110V100.016H590.409V110H596.409ZM590.825 98.492C589.163 101.31 586.769 103.583 583.546 105.307L586.376 110.597C590.492 108.396 593.729 105.378 595.993 101.54L590.825 98.492ZM583.52 105.321C580.455 106.999 576.745 107.896 572.289 107.896V113.896C577.561 113.896 582.299 112.83 586.402 110.583L583.52 105.321ZM572.289 107.896C567.125 107.896 562.482 106.557 558.284 103.885L555.062 108.947C560.251 112.249 566.018 113.896 572.289 113.896V107.896ZM558.305 103.899C554.206 101.242 550.879 97.4144 548.357 92.2909L542.974 94.941C545.913 100.911 549.924 105.617 555.041 108.933L558.305 103.899ZM548.38 92.3406C545.955 87.1773 544.697 81.0992 544.697 74.032H538.697C538.697 81.8128 540.084 88.7907 542.95 94.8914L548.38 92.3406ZM596.409 74.032C596.409 68.8513 594.954 64.4029 591.725 61.0657L587.413 65.2383C589.304 67.1918 590.409 69.9967 590.409 74.032H596.409ZM591.76 61.1025C588.71 57.8419 584.84 56.184 580.353 56.184V62.184C583.204 62.184 585.479 63.1714 587.378 65.2015L591.76 61.1025ZM580.353 56.184C575.802 56.184 571.883 57.8263 568.818 61.1025L573.2 65.2015C575.084 63.1871 577.394 62.184 580.353 62.184V56.184ZM568.852 61.0669C565.682 64.3464 564.297 68.8161 564.297 74.032H570.297C570.297 69.8613 571.387 67.0776 573.166 65.2371L568.852 61.0669ZM564.297 74.032C564.297 79.1906 565.695 83.6434 568.786 87.0546L573.232 83.0254C571.374 80.9752 570.297 78.0894 570.297 74.032H564.297ZM568.818 87.0895C571.883 90.3657 575.802 92.008 580.353 92.008V86.008C577.394 86.008 575.084 85.0049 573.2 82.9905L568.818 87.0895ZM580.353 92.008C584.84 92.008 588.71 90.35 591.76 87.0895L587.378 82.9905C585.479 85.0206 583.204 86.008 580.353 86.008V92.008ZM591.725 87.1263C594.964 83.7791 596.409 79.2805 596.409 74.032H590.409C590.409 78.1702 589.294 81.0102 587.413 82.9537L591.725 87.1263ZM723.033 19.76L725.988 20.2797L726.607 16.76H723.033V19.76ZM707.161 110V113H709.679L710.116 110.52L707.161 110ZM681.945 110L678.991 109.478L678.369 113H681.945V110ZM688.345 73.776L691.299 74.298L691.922 70.776H688.345V73.776ZM657.881 73.776V70.776H655.365L654.927 73.254L657.881 73.776ZM651.481 110V113H653.997L654.435 110.522L651.481 110ZM626.265 110L623.311 109.476L622.686 113H626.265V110ZM642.265 19.76V16.76H639.75L639.311 19.2362L642.265 19.76ZM667.353 19.76L670.307 20.282L670.93 16.76H667.353V19.76ZM661.337 53.808L658.383 53.286L657.76 56.808H661.337V53.808ZM691.929 53.808V56.808H694.445L694.883 54.33L691.929 53.808ZM697.945 19.76V16.76H695.429L694.991 19.238L697.945 19.76ZM720.078 19.2403L704.206 109.48L710.116 110.52L725.988 20.2797L720.078 19.2403ZM707.161 107H681.945V113H707.161V107ZM684.899 110.522L691.299 74.298L685.391 73.254L678.991 109.478L684.899 110.522ZM688.345 70.776H657.881V76.776H688.345V70.776ZM654.927 73.254L648.527 109.478L654.435 110.522L660.835 74.298L654.927 73.254ZM651.481 107H626.265V113H651.481V107ZM629.219 110.524L645.219 20.2837L639.311 19.2362L623.311 109.476L629.219 110.524ZM642.265 22.76H667.353V16.76H642.265V22.76ZM664.399 19.238L658.383 53.286L664.291 54.33L670.307 20.282L664.399 19.238ZM661.337 56.808H691.929V50.808H661.337V56.808ZM694.883 54.33L700.899 20.282L694.991 19.238L688.975 53.286L694.883 54.33ZM697.945 22.76H723.033V16.76H697.945V22.76ZM807.662 38.192L810.615 38.7185L811.244 35.192H807.662V38.192ZM794.862 110V113H797.375L797.815 110.526L794.862 110ZM769.774 110L766.819 109.483L766.203 113H769.774V110ZM771.566 99.76L774.521 100.277L776.383 89.6378L769.301 97.7929L771.566 99.76ZM761.198 107.696L762.517 110.391L762.528 110.385L762.54 110.379L761.198 107.696ZM731.374 104.624L733.518 102.526L731.374 104.624ZM726.254 79.92L729.206 80.4567L729.207 80.4467L729.209 80.4367L726.254 79.92ZM733.55 38.192V35.192H731.029L730.595 37.6753L733.55 38.192ZM758.638 38.192L761.593 38.7122L762.212 35.192H758.638V38.192ZM751.854 76.72L754.777 77.3946L754.795 77.3178L754.809 77.2402L751.854 76.72ZM754.158 87.344L752.037 89.4653L752.063 89.4912L752.089 89.5164L754.158 87.344ZM770.542 86.576L772.545 88.8097L770.542 86.576ZM775.534 77.36L778.466 77.9973L778.478 77.9395L778.488 77.8814L775.534 77.36ZM782.446 38.192V35.192H779.929L779.492 37.6706L782.446 38.192ZM804.709 37.6655L791.909 109.474L797.815 110.526L810.615 38.7185L804.709 37.6655ZM794.862 107H769.774V113H794.862V107ZM772.729 110.517L774.521 100.277L768.611 99.2429L766.819 109.483L772.729 110.517ZM769.301 97.7929C766.76 100.719 763.624 103.129 759.856 105.013L762.54 110.379C766.964 108.167 770.74 105.286 773.831 101.727L769.301 97.7929ZM759.879 105.001C756.315 106.746 752.334 107.64 747.886 107.64V113.64C753.166 113.64 758.06 112.572 762.517 110.391L759.879 105.001ZM747.886 107.64C741.387 107.64 736.74 105.817 733.518 102.526L729.23 106.722C733.859 111.452 740.22 113.64 747.886 113.64V107.64ZM733.518 102.526C730.282 99.2194 728.486 94.4669 728.486 87.856H722.486C722.486 95.5811 724.615 102.007 729.23 106.722L733.518 102.526ZM728.486 87.856C728.486 85.5866 728.721 83.1224 729.206 80.4567L723.302 79.3833C722.763 82.3496 722.486 85.176 722.486 87.856H728.486ZM729.209 80.4367L736.505 38.7087L730.595 37.6753L723.299 79.4033L729.209 80.4367ZM733.55 41.192H758.638V35.192H733.55V41.192ZM755.683 37.6718L748.899 76.1998L754.809 77.2402L761.593 38.7122L755.683 37.6718ZM748.931 76.0454C748.625 77.3701 748.47 78.7057 748.47 80.048H754.47C754.47 79.1716 754.571 78.2885 754.777 77.3946L748.931 76.0454ZM748.47 80.048C748.47 83.7355 749.566 86.995 752.037 89.4653L756.279 85.2227C755.166 84.109 754.47 82.5045 754.47 80.048H748.47ZM752.089 89.5164C754.566 91.8753 757.807 92.904 761.454 92.904V86.904C758.957 86.904 757.334 86.226 756.227 85.1716L752.089 89.5164ZM761.454 92.904C765.714 92.904 769.474 91.5622 772.545 88.8097L768.539 84.3423C766.66 86.0271 764.362 86.904 761.454 86.904V92.904ZM772.545 88.8097C775.58 86.0881 777.507 82.4078 778.466 77.9973L772.602 76.7227C771.855 80.1629 770.453 82.6265 768.539 84.3423L772.545 88.8097ZM778.488 77.8814L785.4 38.7133L779.492 37.6706L772.58 76.8386L778.488 77.8814ZM782.446 41.192H807.662V35.192H782.446V41.192ZM845.236 48.176L842.283 47.6474L847.643 49.9661L845.236 48.176ZM854.836 40.24L853.517 37.5453L853.506 37.551L853.494 37.5567L854.836 40.24ZM886.196 44.72L883.981 46.7437L883.991 46.754L884 46.7642L886.196 44.72ZM892.34 74.032L895.291 74.5746L895.297 74.5373L895.303 74.4999L892.34 74.032ZM884.788 93.616L887.29 95.2712L887.296 95.2624L887.302 95.2536L884.788 93.616ZM871.476 106.416L869.983 103.814L869.974 103.819L869.964 103.825L871.476 106.416ZM842.932 108.08L841.348 110.628L841.388 110.653L841.429 110.676L842.932 108.08ZM836.148 100.016L838.933 98.9018L835.045 89.1805L833.195 99.486L836.148 100.016ZM834.356 110V113H836.865L837.309 110.53L834.356 110ZM809.14 110L806.186 109.477L805.562 113H809.14V110ZM825.908 15.28V12.28H823.392L822.954 14.757L825.908 15.28ZM851.124 15.28L854.077 15.8086L854.709 12.28H851.124V15.28ZM866.74 74.032L863.798 73.4436L863.789 73.4911L863.781 73.5388L866.74 74.032ZM864.052 62.128L861.931 64.2493L861.953 64.2719L861.976 64.294L864.052 62.128ZM846.26 63.152L844.302 60.8787L844.287 60.8923L844.271 60.9062L846.26 63.152ZM840.628 74.032L843.57 74.6203L843.579 74.5729L843.587 74.5252L840.628 74.032ZM843.188 86.064L841.022 88.1397L841.066 88.1858L841.112 88.23L843.188 86.064ZM861.108 85.04L863.097 87.2858L863.115 87.2701L863.132 87.2541L861.108 85.04ZM847.643 49.9661C849.821 47.0371 852.647 44.6884 856.178 42.9233L853.494 37.5567C849.174 39.717 845.6 42.6589 842.829 46.3859L847.643 49.9661ZM856.155 42.9346C859.719 41.1904 863.7 40.296 868.148 40.296V34.296C862.868 34.296 857.974 35.3643 853.517 37.5453L856.155 42.9346ZM868.148 40.296C874.927 40.296 880.099 42.4946 883.981 46.7437L888.411 42.6963C883.248 37.0467 876.388 34.296 868.148 34.296V40.296ZM884 46.7642C887.961 51.0181 890.108 56.9958 890.108 65.072H896.108C896.108 55.9109 893.647 48.3205 888.392 42.6757L884 46.7642ZM890.108 65.072C890.108 67.6184 889.869 70.4464 889.377 73.5641L895.303 74.4999C895.835 71.1323 896.108 67.9869 896.108 65.072H890.108ZM889.389 73.4894C888.087 80.571 885.702 86.7174 882.274 91.9784L887.302 95.2536C891.213 89.2506 893.862 82.341 895.291 74.5746L889.389 73.4894ZM882.286 91.9608C878.846 97.1603 874.741 101.084 869.983 103.814L872.969 109.018C878.622 105.775 883.391 101.165 887.29 95.2712L882.286 91.9608ZM869.964 103.825C865.286 106.554 860.386 107.896 855.22 107.896V113.896C861.489 113.896 867.426 112.251 872.988 109.007L869.964 103.825ZM855.22 107.896C850.634 107.896 847.097 107.025 844.435 105.484L841.429 110.676C845.252 112.89 849.907 113.896 855.22 113.896V107.896ZM844.516 105.532C841.895 103.903 840.058 101.714 838.933 98.9018L833.363 101.13C834.968 105.144 837.654 108.332 841.348 110.628L844.516 105.532ZM833.195 99.486L831.403 109.47L837.309 110.53L839.101 100.546L833.195 99.486ZM834.356 107H809.14V113H834.356V107ZM812.094 110.523L828.862 15.8029L822.954 14.757L806.186 109.477L812.094 110.523ZM825.908 18.28H851.124V12.28H825.908V18.28ZM848.171 14.7514L842.283 47.6474L848.189 48.7046L854.077 15.8086L848.171 14.7514ZM869.682 74.6204C869.973 73.1643 870.124 71.7295 870.124 70.32H864.124C864.124 71.2999 864.019 72.3397 863.798 73.4436L869.682 74.6204ZM870.124 70.32C870.124 66.2074 868.899 62.6176 866.128 59.962L861.976 64.294C863.301 65.5637 864.124 67.4353 864.124 70.32H870.124ZM866.173 60.0067C863.569 57.4025 860.206 56.184 856.372 56.184V62.184C858.853 62.184 860.61 62.9282 861.931 64.2493L866.173 60.0067ZM856.372 56.184C851.907 56.184 847.858 57.8173 844.302 60.8787L848.218 65.4253C850.806 63.1961 853.498 62.184 856.372 62.184V56.184ZM844.271 60.9062C840.685 64.0827 838.53 68.374 837.669 73.5388L843.587 74.5252C844.262 70.474 845.862 67.512 848.249 65.3978L844.271 60.9062ZM837.686 73.4436C837.398 74.8844 837.244 76.2781 837.244 77.616H843.244C843.244 76.7352 843.346 75.7396 843.57 74.6203L837.686 73.4436ZM837.244 77.616C837.244 81.7604 838.393 85.3963 841.022 88.1397L845.354 83.9883C844.058 82.6357 843.244 80.6396 843.244 77.616H837.244ZM841.112 88.23C843.784 90.7903 847.16 92.008 850.996 92.008V86.008C848.517 86.008 846.688 85.2631 845.264 83.898L841.112 88.23ZM850.996 92.008C855.532 92.008 859.599 90.3839 863.097 87.2858L859.119 82.7942C856.643 84.9868 853.969 86.008 850.996 86.008V92.008ZM863.132 87.2541C866.689 84.0024 868.839 79.6883 869.699 74.5252L863.781 73.5388C863.105 77.5917 861.5 80.6162 859.084 82.8259L863.132 87.2541Z" mask="url(#path-1-outside-1_2_183)"/></svg>