<svg width="662" height="195" viewBox="0 0 662 195" fill="none" xmlns="http://www.w3.org/2000/svg">
<path d="M50.688 81.92C49.472 79.68 47.712 77.984 45.408 76.832C43.168 75.616 40.512 75.008 37.44 75.008C32.128 75.008 27.872 76.768 24.672 80.288C21.472 83.744 19.872 88.384 19.872 94.208C19.872 100.416 21.536 105.28 24.864 108.8C28.256 112.256 32.896 113.984 38.784 113.984C42.816 113.984 46.208 112.96 48.96 110.912C51.776 108.864 53.824 105.92 55.104 102.08H34.272V89.984H69.984V105.248C68.768 109.344 66.688 113.152 63.744 116.672C60.864 120.192 57.184 123.04 52.704 125.216C48.224 127.392 43.168 128.48 37.536 128.48C30.88 128.48 24.928 127.04 19.68 124.16C14.496 121.216 10.432 117.152 7.488 111.968C4.608 106.784 3.168 100.864 3.168 94.208C3.168 87.552 4.608 81.632 7.488 76.448C10.432 71.2 14.496 67.136 19.68 64.256C24.864 61.312 30.784 59.84 37.44 59.84C45.504 59.84 52.288 61.792 57.792 65.696C63.36 69.6 67.04 75.008 68.832 81.92H50.688ZM129.573 100.352C129.573 101.888 129.477 103.488 129.285 105.152H92.133C92.389 108.48 93.445 111.04 95.301 112.832C97.221 114.56 99.557 115.424 102.309 115.424C106.405 115.424 109.253 113.696 110.853 110.24H128.325C127.429 113.76 125.797 116.928 123.429 119.744C121.125 122.56 118.213 124.768 114.693 126.368C111.173 127.968 107.237 128.768 102.885 128.768C97.637 128.768 92.965 127.648 88.869 125.408C84.773 123.168 81.573 119.968 79.269 115.808C76.965 111.648 75.813 106.784 75.813 101.216C75.813 95.648 76.933 90.784 79.173 86.624C81.477 82.464 84.677 79.264 88.773 77.024C92.869 74.784 97.573 73.664 102.885 73.664C108.069 73.664 112.677 74.752 116.709 76.928C120.741 79.104 123.877 82.208 126.117 86.24C128.421 90.272 129.573 94.976 129.573 100.352ZM112.773 96.032C112.773 93.216 111.813 90.976 109.893 89.312C107.973 87.648 105.573 86.816 102.693 86.816C99.941 86.816 97.605 87.616 95.685 89.216C93.829 90.816 92.677 93.088 92.229 96.032H112.773ZM162.617 128.768C157.369 128.768 152.633 127.648 148.409 125.408C144.249 123.168 140.953 119.968 138.521 115.808C136.153 111.648 134.969 106.784 134.969 101.216C134.969 95.712 136.185 90.88 138.617 86.72C141.049 82.496 144.377 79.264 148.601 77.024C152.825 74.784 157.561 73.664 162.809 73.664C168.057 73.664 172.793 74.784 177.017 77.024C181.241 79.264 184.569 82.496 187.001 86.72C189.433 90.88 190.649 95.712 190.649 101.216C190.649 106.72 189.401 111.584 186.905 115.808C184.473 119.968 181.113 123.168 176.825 125.408C172.601 127.648 167.865 128.768 162.617 128.768ZM162.617 114.56C165.753 114.56 168.409 113.408 170.585 111.104C172.825 108.8 173.945 105.504 173.945 101.216C173.945 96.928 172.857 93.632 170.681 91.328C168.569 89.024 165.945 87.872 162.809 87.872C159.609 87.872 156.953 89.024 154.841 91.328C152.729 93.568 151.673 96.864 151.673 101.216C151.673 105.504 152.697 108.8 154.745 111.104C156.857 113.408 159.481 114.56 162.617 114.56ZM226.238 88.064H217.406V128H200.99V88.064H195.038V74.432H200.99V72.896C200.99 66.304 202.878 61.312 206.654 57.92C210.43 54.464 215.966 52.736 223.262 52.736C224.478 52.736 225.374 52.768 225.95 52.832V66.752C222.814 66.56 220.606 67.008 219.326 68.096C218.046 69.184 217.406 71.136 217.406 73.952V74.432H226.238V88.064ZM242.208 68.864C239.328 68.864 236.96 68.032 235.104 66.368C233.312 64.64 232.416 62.528 232.416 60.032C232.416 57.472 233.312 55.36 235.104 53.696C236.96 51.968 239.328 51.104 242.208 51.104C245.024 51.104 247.328 51.968 249.12 53.696C250.976 55.36 251.904 57.472 251.904 60.032C251.904 62.528 250.976 64.64 249.12 66.368C247.328 68.032 245.024 68.864 242.208 68.864ZM250.368 74.432V128H233.952V74.432H250.368ZM284.057 128.768C279.385 128.768 275.225 127.968 271.577 126.368C267.929 124.768 265.049 122.592 262.937 119.84C260.825 117.024 259.641 113.888 259.385 110.432H275.609C275.801 112.288 276.665 113.792 278.201 114.944C279.737 116.096 281.625 116.672 283.865 116.672C285.913 116.672 287.481 116.288 288.569 115.52C289.721 114.688 290.297 113.632 290.297 112.352C290.297 110.816 289.497 109.696 287.897 108.992C286.297 108.224 283.705 107.392 280.121 106.496C276.281 105.6 273.081 104.672 270.521 103.712C267.961 102.688 265.753 101.12 263.897 99.008C262.041 96.832 261.113 93.92 261.113 90.272C261.113 87.2 261.945 84.416 263.609 81.92C265.337 79.36 267.833 77.344 271.097 75.872C274.425 74.4 278.361 73.664 282.905 73.664C289.625 73.664 294.905 75.328 298.745 78.656C302.649 81.984 304.889 86.4 305.465 91.904H290.297C290.041 90.048 289.209 88.576 287.801 87.488C286.457 86.4 284.665 85.856 282.425 85.856C280.505 85.856 279.033 86.24 278.009 87.008C276.985 87.712 276.473 88.704 276.473 89.984C276.473 91.52 277.273 92.672 278.873 93.44C280.537 94.208 283.097 94.976 286.553 95.744C290.521 96.768 293.753 97.792 296.249 98.816C298.745 99.776 300.921 101.376 302.777 103.616C304.697 105.792 305.689 108.736 305.753 112.448C305.753 115.584 304.857 118.4 303.065 120.896C301.337 123.328 298.809 125.248 295.481 126.656C292.217 128.064 288.409 128.768 284.057 128.768ZM324.052 68.864C321.172 68.864 318.804 68.032 316.948 66.368C315.156 64.64 314.26 62.528 314.26 60.032C314.26 57.472 315.156 55.36 316.948 53.696C318.804 51.968 321.172 51.104 324.052 51.104C326.868 51.104 329.172 51.968 330.964 53.696C332.82 55.36 333.748 57.472 333.748 60.032C333.748 62.528 332.82 64.64 330.964 66.368C329.172 68.032 326.868 68.864 324.052 68.864ZM332.212 74.432V128H315.796V74.432H332.212ZM340.844 101.216C340.844 95.648 341.964 90.784 344.204 86.624C346.508 82.464 349.676 79.264 353.708 77.024C357.804 74.784 362.476 73.664 367.724 73.664C374.444 73.664 380.044 75.424 384.524 78.944C389.068 82.464 392.044 87.424 393.452 93.824H375.98C374.508 89.728 371.66 87.68 367.436 87.68C364.428 87.68 362.028 88.864 360.236 91.232C358.444 93.536 357.548 96.864 357.548 101.216C357.548 105.568 358.444 108.928 360.236 111.296C362.028 113.6 364.428 114.752 367.436 114.752C371.66 114.752 374.508 112.704 375.98 108.608H393.452C392.044 114.88 389.068 119.808 384.524 123.392C379.98 126.976 374.38 128.768 367.724 128.768C362.476 128.768 357.804 127.648 353.708 125.408C349.676 123.168 346.508 119.968 344.204 115.808C341.964 111.648 340.844 106.784 340.844 101.216ZM398.969 101.12C398.969 95.616 399.993 90.784 402.041 86.624C404.153 82.464 407.001 79.264 410.585 77.024C414.169 74.784 418.169 73.664 422.585 73.664C426.361 73.664 429.657 74.432 432.473 75.968C435.353 77.504 437.561 79.52 439.097 82.016V74.432H455.513V128H439.097V120.416C437.497 122.912 435.257 124.928 432.377 126.464C429.561 128 426.265 128.768 422.489 128.768C418.137 128.768 414.169 127.648 410.585 125.408C407.001 123.104 404.153 119.872 402.041 115.712C399.993 111.488 398.969 106.624 398.969 101.12ZM439.097 101.216C439.097 97.12 437.945 93.888 435.641 91.52C433.401 89.152 430.649 87.968 427.385 87.968C424.121 87.968 421.337 89.152 419.033 91.52C416.793 93.824 415.673 97.024 415.673 101.12C415.673 105.216 416.793 108.48 419.033 110.912C421.337 113.28 424.121 114.464 427.385 114.464C430.649 114.464 433.401 113.28 435.641 110.912C437.945 108.544 439.097 105.312 439.097 101.216Z" fill="#212121"/>
<path d="M532.766 60.608L520.862 128H504.446L509.342 100.064H483.806L478.91 128H462.494L474.398 60.608H490.814L486.109 87.104H511.646L516.35 60.608H532.766ZM595.016 74.432L585.608 128H569.192L570.44 120.704C568.328 123.072 565.736 124.992 562.664 126.464C559.656 127.872 556.424 128.576 552.968 128.576C547.592 128.576 543.368 127.072 540.296 124.064C537.224 120.992 535.688 116.736 535.688 111.296C535.688 109.248 535.848 107.392 536.168 105.728L541.736 74.432H558.056L552.968 103.52C552.776 104.544 552.68 105.536 552.68 106.496C552.68 109.184 553.416 111.264 554.888 112.736C556.424 114.144 558.536 114.848 561.224 114.848C564.296 114.848 566.888 113.952 569 112.16C571.176 110.304 572.616 107.68 573.32 104.288L578.6 74.432H595.016ZM621.88 82.016C623.928 79.52 626.52 77.504 629.656 75.968C632.792 74.432 636.216 73.664 639.928 73.664C645.688 73.664 650.328 75.552 653.848 79.328C657.432 83.04 659.224 88.128 659.224 94.592C659.224 96.64 659.032 98.816 658.648 101.12C657.688 106.624 655.8 111.488 652.984 115.712C650.168 119.872 646.776 123.104 642.808 125.408C638.84 127.648 634.648 128.768 630.232 128.768C626.456 128.768 623.288 128.032 620.728 126.56C618.168 125.024 616.312 123.008 615.16 120.512L613.816 128H597.4L609.976 56.96H626.392L621.88 82.016ZM642.04 101.12C642.232 100.032 642.328 99.04 642.328 98.144C642.328 94.944 641.4 92.448 639.544 90.656C637.752 88.864 635.448 87.968 632.632 87.968C629.368 87.968 626.392 89.152 623.704 91.52C621.016 93.888 619.288 97.12 618.52 101.216C618.328 102.368 618.232 103.424 618.232 104.384C618.232 107.52 619.128 109.984 620.92 111.776C622.712 113.568 625.016 114.464 627.832 114.464C631.096 114.464 634.072 113.28 636.76 110.912C639.512 108.48 641.272 105.216 642.04 101.12Z" fill="#A2B8F4"/>
<path d="M50.688 81.92L49.3697 82.6356L49.7955 83.42H50.688V81.92ZM45.408 76.832L44.6924 78.1503L44.7146 78.1623L44.7372 78.1736L45.408 76.832ZM24.672 80.288L25.7727 81.3072L25.7819 81.297L24.672 80.288ZM24.864 108.8L23.774 109.831L23.7837 109.841L23.7935 109.851L24.864 108.8ZM48.96 110.912L48.0777 109.699L48.0711 109.704L48.0645 109.709L48.96 110.912ZM55.104 102.08L56.527 102.554L57.1851 100.58H55.104V102.08ZM34.272 102.08H32.772V103.58H34.272V102.08ZM34.272 89.984V88.484H32.772V89.984H34.272ZM69.984 89.984H71.484V88.484H69.984V89.984ZM69.984 105.248L71.422 105.675L71.484 105.466V105.248H69.984ZM63.744 116.672L62.5934 115.71L62.5882 115.716L62.5831 115.722L63.744 116.672ZM52.704 125.216L52.0486 123.867L52.704 125.216ZM19.68 124.16L18.9393 125.464L18.9488 125.47L18.9584 125.475L19.68 124.16ZM7.488 111.968L6.17671 112.696L6.18366 112.709L7.488 111.968ZM7.488 76.448L6.17977 75.7141L6.17676 75.7195L7.488 76.448ZM19.68 64.256L20.4085 65.5673L20.4207 65.5603L19.68 64.256ZM57.792 65.696L56.9242 66.9195L56.9309 66.9242L57.792 65.696ZM68.832 81.92V83.42H70.7705L70.284 81.5436L68.832 81.92ZM52.0063 81.2044C50.642 78.6912 48.6545 76.7782 46.0788 75.4904L44.7372 78.1736C46.7695 79.1898 48.302 80.6688 49.3697 82.6356L52.0063 81.2044ZM46.1236 75.5137C43.6231 74.1563 40.7109 73.508 37.44 73.508V76.508C40.3131 76.508 42.7129 77.0757 44.6924 78.1503L46.1236 75.5137ZM37.44 73.508C31.7601 73.508 27.0812 75.4079 23.5621 79.279L25.7819 81.297C28.6628 78.1281 32.4959 76.508 37.44 76.508V73.508ZM23.5714 79.2689C20.0574 83.064 18.372 88.0998 18.372 94.208H21.372C21.372 88.6682 22.8866 84.424 25.7726 81.3071L23.5714 79.2689ZM18.372 94.208C18.372 100.687 20.1147 105.96 23.774 109.831L25.954 107.769C22.9573 104.6 21.372 100.145 21.372 94.208H18.372ZM23.7935 109.851C27.5266 113.654 32.5863 115.484 38.784 115.484V112.484C33.2057 112.484 28.9854 110.858 25.9345 107.749L23.7935 109.851ZM38.784 115.484C43.0801 115.484 46.8014 114.388 49.8555 112.115L48.0645 109.709C45.6146 111.532 42.5519 112.484 38.784 112.484V115.484ZM49.8423 112.125C52.9504 109.865 55.1647 106.641 56.527 102.554L53.681 101.606C52.4833 105.199 50.6016 107.863 48.0777 109.699L49.8423 112.125ZM55.104 100.58H34.272V103.58H55.104V100.58ZM35.772 102.08V89.984H32.772V102.08H35.772ZM34.272 91.484H69.984V88.484H34.272V91.484ZM68.484 89.984V105.248H71.484V89.984H68.484ZM68.546 104.821C67.3925 108.707 65.4159 112.335 62.5934 115.71L64.8946 117.634C67.9601 113.969 70.1435 109.981 71.422 105.675L68.546 104.821ZM62.5831 115.722C59.8533 119.059 56.352 121.777 52.0486 123.867L53.3594 126.565C58.016 124.303 61.8747 121.325 64.9049 117.622L62.5831 115.722ZM52.0486 123.867C47.7981 125.931 42.9708 126.98 37.536 126.98V129.98C43.3652 129.98 48.6499 128.853 53.3594 126.565L52.0486 123.867ZM37.536 126.98C31.1035 126.98 25.4046 125.59 20.4016 122.845L18.9584 125.475C24.4514 128.49 30.6565 129.98 37.536 129.98V126.98ZM20.4207 122.856C15.472 120.045 11.6027 116.176 8.79234 111.227L6.18366 112.709C9.26126 118.128 13.52 122.387 18.9393 125.464L20.4207 122.856ZM8.79924 111.24C6.05759 106.305 4.668 100.641 4.668 94.208H1.668C1.668 101.087 3.15841 107.263 6.17676 112.696L8.79924 111.24ZM4.668 94.208C4.668 87.7752 6.05759 82.1114 8.79924 77.1765L6.17676 75.7195C3.15841 81.1526 1.668 87.3288 1.668 94.208H4.668ZM8.79621 77.1819C11.6063 72.1726 15.4712 68.3101 20.4085 65.5672L18.9515 62.9448C13.5208 65.9619 9.25769 70.2274 6.17979 75.7141L8.79621 77.1819ZM20.4207 65.5603C25.3535 62.759 31.0128 61.34 37.44 61.34V58.34C30.5552 58.34 24.3745 59.865 18.9393 62.9517L20.4207 65.5603ZM37.44 61.34C45.2551 61.34 51.7201 63.2282 56.9242 66.9195L58.6598 64.4725C52.8559 60.3558 45.7529 58.34 37.44 58.34V61.34ZM56.9309 66.9242C62.1915 70.6126 65.6726 75.7108 67.38 82.2964L70.284 81.5436C68.4074 74.3052 64.5285 68.5874 58.6531 64.4678L56.9309 66.9242ZM68.832 80.42H50.688V83.42H68.832V80.42ZM129.285 105.152V106.652H130.622L130.775 105.324L129.285 105.152ZM92.133 105.152V103.652H90.5132L90.6374 105.267L92.133 105.152ZM95.301 112.832L94.2591 113.911L94.278 113.929L94.2976 113.947L95.301 112.832ZM110.853 110.24V108.74H109.894L109.492 109.61L110.853 110.24ZM128.325 110.24L129.779 110.61L130.255 108.74H128.325V110.24ZM123.429 119.744L122.281 118.779L122.274 118.786L122.268 118.794L123.429 119.744ZM114.693 126.368L115.314 127.734L114.693 126.368ZM88.869 125.408L88.1493 126.724L88.1493 126.724L88.869 125.408ZM79.269 115.808L80.5812 115.081L80.5812 115.081L79.269 115.808ZM79.173 86.624L77.8608 85.8972L77.8565 85.905L77.8523 85.9128L79.173 86.624ZM88.773 77.024L89.4927 78.3401L89.4927 78.3401L88.773 77.024ZM116.709 76.928L115.997 78.248L115.997 78.248L116.709 76.928ZM126.117 86.24L124.806 86.9685L124.81 86.9764L124.815 86.9842L126.117 86.24ZM112.773 96.032V97.532H114.273V96.032H112.773ZM109.893 89.312L110.875 88.1785L110.875 88.1785L109.893 89.312ZM95.685 89.216L94.7247 88.0637L94.7151 88.0717L94.7056 88.0799L95.685 89.216ZM92.229 96.032L90.7461 95.8063L90.4835 97.532H92.229V96.032ZM128.073 100.352C128.073 101.826 127.981 103.368 127.795 104.98L130.775 105.324C130.973 103.608 131.073 101.95 131.073 100.352H128.073ZM129.285 103.652H92.133V106.652H129.285V103.652ZM90.6374 105.267C90.9131 108.851 92.069 111.796 94.2591 113.911L96.3429 111.753C94.821 110.284 93.8649 108.109 93.6286 105.037L90.6374 105.267ZM94.2976 113.947C96.512 115.94 99.2129 116.924 102.309 116.924V113.924C99.9011 113.924 97.93 113.18 96.3044 111.717L94.2976 113.947ZM102.309 116.924C104.569 116.924 106.588 116.446 108.295 115.41C110.009 114.37 111.307 112.829 112.214 110.87L109.492 109.61C108.799 111.107 107.873 112.158 106.739 112.846C105.598 113.538 104.145 113.924 102.309 113.924V116.924ZM110.853 111.74H128.325V108.74H110.853V111.74ZM126.871 109.87C126.032 113.168 124.506 116.133 122.281 118.779L124.577 120.709C127.089 117.723 128.826 114.352 129.779 110.61L126.871 109.87ZM122.268 118.794C120.119 121.421 117.396 123.492 114.072 125.002L115.314 127.734C119.03 126.044 122.131 123.699 124.59 120.694L122.268 118.794ZM114.072 125.002C110.77 126.503 107.05 127.268 102.885 127.268V130.268C107.424 130.268 111.576 129.433 115.314 127.734L114.072 125.002ZM102.885 127.268C97.8568 127.268 93.4378 126.197 89.5887 124.092L88.1493 126.724C92.4922 129.099 97.4172 130.268 102.885 130.268V127.268ZM89.5887 124.092C85.7469 121.991 82.7502 118.998 80.5812 115.081L77.9568 116.535C80.3958 120.938 83.7991 124.345 88.1493 126.724L89.5887 124.092ZM80.5812 115.081C78.4199 111.179 77.313 106.573 77.313 101.216H74.313C74.313 106.995 75.5101 112.117 77.9568 116.535L80.5812 115.081ZM77.313 101.216C77.313 95.8519 78.3908 91.2406 80.4937 87.3351L77.8523 85.9128C75.4752 90.3274 74.313 95.4441 74.313 101.216H77.313ZM80.4852 87.3507C82.6542 83.4344 85.6509 80.441 89.4927 78.3401L88.0533 75.7079C83.7031 78.087 80.2998 81.4936 77.8608 85.8972L80.4852 87.3507ZM89.4927 78.3401C93.3392 76.2365 97.7894 75.164 102.885 75.164V72.164C97.3566 72.164 92.3989 73.3315 88.0533 75.7079L89.4927 78.3401ZM102.885 75.164C107.853 75.164 112.211 76.2049 115.997 78.248L117.421 75.608C113.143 73.299 108.285 72.164 102.885 72.164V75.164ZM115.997 78.248C119.775 80.2871 122.704 83.185 124.806 86.9685L127.428 85.5115C125.05 81.231 121.707 77.9209 117.421 75.608L115.997 78.248ZM124.815 86.9842C126.97 90.756 128.073 95.1954 128.073 100.352H131.073C131.073 94.7566 129.872 89.788 127.419 85.4958L124.815 86.9842ZM114.273 96.032C114.273 92.8339 113.162 90.1603 110.875 88.1785L108.911 90.4455C110.464 91.7917 111.273 93.5981 111.273 96.032H114.273ZM110.875 88.1785C108.646 86.2465 105.883 85.316 102.693 85.316V88.316C105.263 88.316 107.3 89.0495 108.911 90.4455L110.875 88.1785ZM102.693 85.316C99.628 85.316 96.9421 86.2159 94.7247 88.0637L96.6453 90.3683C98.2679 89.0161 100.254 88.316 102.693 88.316V85.316ZM94.7056 88.0799C92.5233 89.9611 91.2358 92.5879 90.7461 95.8063L93.7119 96.2577C94.1182 93.5881 95.1347 91.6709 96.6644 90.3521L94.7056 88.0799ZM92.229 97.532H112.773V94.532H92.229V97.532ZM148.409 125.408L147.698 126.729L147.706 126.733L148.409 125.408ZM138.521 115.808L137.218 116.55L137.222 116.558L137.226 116.565L138.521 115.808ZM138.617 86.72L139.912 87.4771L139.917 87.4684L138.617 86.72ZM148.601 77.024L149.304 78.3492L149.304 78.3492L148.601 77.024ZM177.017 77.024L176.314 78.3492L176.314 78.3492L177.017 77.024ZM187.001 86.72L185.701 87.4685L185.706 87.477L187.001 86.72ZM186.905 115.808L185.614 115.045L185.61 115.051L186.905 115.808ZM176.825 125.408L176.131 124.078L176.122 124.083L176.825 125.408ZM170.585 111.104L169.51 110.058L169.502 110.066L169.495 110.074L170.585 111.104ZM170.681 91.328L169.576 92.3416L169.583 92.3498L169.591 92.3579L170.681 91.328ZM154.841 91.328L155.933 92.357L155.94 92.3494L155.947 92.3416L154.841 91.328ZM154.745 111.104L153.624 112.101L153.632 112.109L153.64 112.118L154.745 111.104ZM162.617 127.268C157.59 127.268 153.099 126.197 149.112 124.083L147.706 126.733C152.168 129.099 157.149 130.268 162.617 130.268V127.268ZM149.12 124.087C145.208 121.981 142.112 118.978 139.816 115.051L137.226 116.565C139.795 120.958 143.29 124.355 147.698 126.729L149.12 124.087ZM139.825 115.066C137.605 111.167 136.469 106.567 136.469 101.216H133.469C133.469 107.001 134.701 112.129 137.218 116.55L139.825 115.066ZM136.469 101.216C136.469 95.9396 137.633 91.3763 139.912 87.477L137.322 85.963C134.738 90.3837 133.469 95.4844 133.469 101.216H136.469ZM139.917 87.4684C142.211 83.484 145.334 80.4543 149.304 78.3492L147.898 75.6988C143.42 78.0737 139.887 81.508 137.317 85.9716L139.917 87.4684ZM149.304 78.3492C153.291 76.2349 157.782 75.164 162.809 75.164V72.164C157.341 72.164 152.36 73.3331 147.898 75.6988L149.304 78.3492ZM162.809 75.164C167.837 75.164 172.328 76.2349 176.314 78.3492L177.72 75.6988C173.259 73.3331 168.278 72.164 162.809 72.164V75.164ZM176.314 78.3492C180.284 80.4543 183.407 83.484 185.701 87.4684L188.301 85.9716C185.731 81.508 182.198 78.0737 177.72 75.6988L176.314 78.3492ZM185.706 87.477C187.986 91.3763 189.149 95.9396 189.149 101.216H192.149C192.149 95.4844 190.881 90.3837 188.296 85.963L185.706 87.477ZM189.149 101.216C189.149 106.485 187.957 111.079 185.614 115.045L188.197 116.571C190.845 112.089 192.149 106.955 192.149 101.216H189.149ZM185.61 115.051C183.321 118.966 180.17 121.969 176.131 124.078L177.52 126.738C182.057 124.367 185.625 120.97 188.2 116.565L185.61 115.051ZM176.122 124.083C172.136 126.197 167.645 127.268 162.617 127.268V130.268C168.086 130.268 173.067 129.099 177.528 126.733L176.122 124.083ZM162.617 116.06C166.171 116.06 169.22 114.734 171.676 112.134L169.495 110.074C167.599 112.082 165.336 113.06 162.617 113.06V116.06ZM171.661 112.15C174.254 109.482 175.445 105.76 175.445 101.216H172.445C172.445 105.248 171.396 108.118 169.51 110.058L171.661 112.15ZM175.445 101.216C175.445 96.6828 174.292 92.9667 171.772 90.2981L169.591 92.3579C171.422 94.2973 172.445 97.1732 172.445 101.216H175.445ZM171.787 90.3144C169.39 87.6993 166.364 86.372 162.809 86.372V89.372C165.526 89.372 167.749 90.3487 169.576 92.3416L171.787 90.3144ZM162.809 86.372C159.2 86.372 156.139 87.6922 153.736 90.3144L155.947 92.3416C157.767 90.3558 160.018 89.372 162.809 89.372V86.372ZM153.75 90.299C151.284 92.9145 150.173 96.64 150.173 101.216H153.173C153.173 97.088 154.175 94.2215 155.933 92.357L153.75 90.299ZM150.173 101.216C150.173 105.728 151.251 109.431 153.624 112.101L155.866 110.107C154.143 108.169 153.173 105.28 153.173 101.216H150.173ZM153.64 112.118C156.037 114.733 159.062 116.06 162.617 116.06V113.06C159.9 113.06 157.678 112.083 155.851 110.09L153.64 112.118ZM226.238 88.064V89.564H227.738V88.064H226.238ZM217.406 88.064V86.564H215.906V88.064H217.406ZM217.406 128V129.5H218.906V128H217.406ZM200.99 128H199.49V129.5H200.99V128ZM200.99 88.064H202.49V86.564H200.99V88.064ZM195.038 88.064H193.538V89.564H195.038V88.064ZM195.038 74.432V72.932H193.538V74.432H195.038ZM200.99 74.432V75.932H202.49V74.432H200.99ZM206.654 57.92L207.657 59.0359L207.667 59.0265L206.654 57.92ZM225.95 52.832H227.45V51.4894L226.116 51.3412L225.95 52.832ZM225.95 66.752L225.859 68.2492L227.45 68.3466V66.752H225.95ZM219.326 68.096L220.298 69.2389L220.298 69.2389L219.326 68.096ZM217.406 74.432H215.906V75.932H217.406V74.432ZM226.238 74.432H227.738V72.932H226.238V74.432ZM226.238 86.564H217.406V89.564H226.238V86.564ZM215.906 88.064V128H218.906V88.064H215.906ZM217.406 126.5H200.99V129.5H217.406V126.5ZM202.49 128V88.064H199.49V128H202.49ZM200.99 86.564H195.038V89.564H200.99V86.564ZM196.538 88.064V74.432H193.538V88.064H196.538ZM195.038 75.932H200.99V72.932H195.038V75.932ZM202.49 74.432V72.896H199.49V74.432H202.49ZM202.49 72.896C202.49 66.5948 204.285 62.0642 207.657 59.0359L205.652 56.8041C201.471 60.5598 199.49 66.0132 199.49 72.896H202.49ZM207.667 59.0265C211.068 55.9135 216.183 54.236 223.262 54.236V51.236C215.75 51.236 209.792 53.0145 205.642 56.8135L207.667 59.0265ZM223.262 54.236C224.469 54.236 225.296 54.2685 225.785 54.3228L226.116 51.3412C225.453 51.2675 224.487 51.236 223.262 51.236V54.236ZM224.45 52.832V66.752H227.45V52.832H224.45ZM226.042 65.2548C222.819 65.0575 220.099 65.4704 218.355 66.9531L220.298 69.2389C221.113 68.5456 222.809 68.0625 225.859 68.2492L226.042 65.2548ZM218.355 66.9531C216.569 68.4709 215.906 70.9839 215.906 73.952H218.906C218.906 71.2881 219.523 69.8971 220.298 69.2389L218.355 66.9531ZM215.906 73.952V74.432H218.906V73.952H215.906ZM217.406 75.932H226.238V72.932H217.406V75.932ZM224.738 74.432V88.064H227.738V74.432H224.738ZM235.104 66.368L234.063 67.4478L234.082 67.4667L234.103 67.4849L235.104 66.368ZM235.104 53.696L236.125 54.7952L236.126 54.7938L235.104 53.696ZM249.12 53.696L248.079 54.7758L248.098 54.7947L248.119 54.8128L249.12 53.696ZM249.12 66.368L250.141 67.4672L250.142 67.4658L249.12 66.368ZM250.368 74.432H251.868V72.932H250.368V74.432ZM250.368 128V129.5H251.868V128H250.368ZM233.952 128H232.452V129.5H233.952V128ZM233.952 74.432V72.932H232.452V74.432H233.952ZM242.208 67.364C239.636 67.364 237.644 66.6304 236.105 65.2511L234.103 67.4849C236.276 69.4336 239.02 70.364 242.208 70.364V67.364ZM236.145 65.2882C234.647 63.8438 233.916 62.1219 233.916 60.032H230.916C230.916 62.9341 231.977 65.4362 234.063 67.4478L236.145 65.2882ZM233.916 60.032C233.916 57.8671 234.654 56.1607 236.125 54.7952L234.083 52.5968C231.97 54.5593 230.916 57.0769 230.916 60.032H233.916ZM236.126 54.7938C237.666 53.3597 239.652 52.604 242.208 52.604V49.604C239.004 49.604 236.254 50.5763 234.082 52.5982L236.126 54.7938ZM242.208 52.604C244.691 52.604 246.604 53.3534 248.079 54.7758L250.161 52.6162C248.052 50.5826 245.357 49.604 242.208 49.604V52.604ZM248.119 54.8128C249.648 56.1837 250.404 57.8851 250.404 60.032H253.404C253.404 57.0589 252.304 54.5363 250.121 52.5791L248.119 54.8128ZM250.404 60.032C250.404 62.1041 249.655 63.8208 248.098 65.2702L250.142 67.4658C252.297 65.4592 253.404 62.9519 253.404 60.032H250.404ZM248.099 65.2688C246.627 66.6362 244.707 67.364 242.208 67.364V70.364C245.341 70.364 248.029 69.4278 250.141 67.4672L248.099 65.2688ZM248.868 74.432V128H251.868V74.432H248.868ZM250.368 126.5H233.952V129.5H250.368V126.5ZM235.452 128V74.432H232.452V128H235.452ZM233.952 75.932H250.368V72.932H233.952V75.932ZM271.577 126.368L272.179 124.994L272.179 124.994L271.577 126.368ZM262.937 119.84L261.737 120.74L261.741 120.747L261.747 120.753L262.937 119.84ZM259.385 110.432V108.932H257.769L257.889 110.543L259.385 110.432ZM275.609 110.432L277.101 110.278L276.961 108.932H275.609V110.432ZM278.201 114.944L279.101 113.744L279.101 113.744L278.201 114.944ZM288.569 115.52L289.434 116.745L289.44 116.741L289.447 116.736L288.569 115.52ZM287.897 108.992L287.247 110.344L287.27 110.355L287.292 110.365L287.897 108.992ZM280.121 106.496L280.484 105.041L280.473 105.038L280.461 105.035L280.121 106.496ZM270.521 103.712L269.963 105.105L269.979 105.111L269.994 105.116L270.521 103.712ZM263.897 99.008L262.755 99.9814L262.762 99.9898L262.77 99.9982L263.897 99.008ZM263.609 81.92L262.365 81.0808L262.36 81.0879L263.609 81.92ZM271.097 75.872L270.49 74.5002L270.48 74.5046L271.097 75.872ZM298.745 78.656L297.762 79.7896L297.771 79.7975L298.745 78.656ZM305.465 91.904V93.404H307.13L306.956 91.7479L305.465 91.904ZM290.297 91.904L288.811 92.109L288.989 93.404H290.297V91.904ZM287.801 87.488L286.857 88.6539L286.87 88.6645L286.883 88.6749L287.801 87.488ZM278.009 87.008L278.858 88.2441L278.884 88.2265L278.909 88.208L278.009 87.008ZM278.873 93.44L278.223 94.7923L278.234 94.7972L278.244 94.8019L278.873 93.44ZM286.553 95.744L286.927 94.2916L286.903 94.2852L286.878 94.2797L286.553 95.744ZM296.249 98.816L295.679 100.204L295.695 100.21L295.71 100.216L296.249 98.816ZM302.777 103.616L301.621 104.573L301.636 104.591L301.652 104.608L302.777 103.616ZM305.753 112.448H307.253V112.435L307.252 112.422L305.753 112.448ZM303.065 120.896L301.846 120.021L301.842 120.027L303.065 120.896ZM295.481 126.656L294.896 125.275L294.886 125.279L295.481 126.656ZM284.057 127.268C279.556 127.268 275.607 126.498 272.179 124.994L270.974 127.742C274.842 129.438 279.213 130.268 284.057 130.268V127.268ZM272.179 124.994C268.728 123.481 266.063 121.45 264.126 118.927L261.747 120.753C264.034 123.734 267.129 126.055 270.974 127.742L272.179 124.994ZM264.137 118.94C262.194 116.35 261.115 113.487 260.88 110.321L257.889 110.543C258.166 114.289 259.455 117.698 261.737 120.74L264.137 118.94ZM259.385 111.932H275.609V108.932H259.385V111.932ZM274.116 110.586C274.353 112.872 275.441 114.749 277.301 116.144L279.101 113.744C277.888 112.835 277.248 111.704 277.101 110.278L274.116 110.586ZM277.301 116.144C279.138 117.522 281.356 118.172 283.865 118.172V115.172C281.893 115.172 280.335 114.67 279.101 113.744L277.301 116.144ZM283.865 118.172C286.067 118.172 287.99 117.765 289.434 116.745L287.703 114.295C286.971 114.811 285.758 115.172 283.865 115.172V118.172ZM289.447 116.736C290.939 115.658 291.797 114.172 291.797 112.352H288.797C288.797 113.092 288.502 113.718 287.69 114.304L289.447 116.736ZM291.797 112.352C291.797 111.309 291.52 110.332 290.917 109.488C290.323 108.657 289.482 108.051 288.501 107.619L287.292 110.365C287.911 110.637 288.27 110.943 288.476 111.232C288.673 111.508 288.797 111.859 288.797 112.352H291.797ZM288.546 107.64C286.801 106.802 284.085 105.941 280.484 105.041L279.757 107.951C283.324 108.843 285.792 109.646 287.247 110.344L288.546 107.64ZM280.461 105.035C276.659 104.148 273.526 103.237 271.047 102.308L269.994 105.116C272.635 106.107 275.902 107.052 279.78 107.957L280.461 105.035ZM271.078 102.319C268.741 101.385 266.727 99.9564 265.023 98.0178L262.77 99.9982C264.778 102.284 267.18 103.991 269.963 105.105L271.078 102.319ZM265.038 98.0346C263.471 96.198 262.613 93.664 262.613 90.272H259.613C259.613 94.176 260.61 97.466 262.755 99.9814L265.038 98.0346ZM262.613 90.272C262.613 87.4886 263.361 84.9954 264.857 82.752L262.36 81.0879C260.528 83.8366 259.613 86.9114 259.613 90.272H262.613ZM264.852 82.7592C266.401 80.4648 268.662 78.6155 271.713 77.2394L270.48 74.5046C267.003 76.0725 264.272 78.2552 262.365 81.0808L264.852 82.7592ZM271.703 77.2438C274.799 75.8746 278.519 75.164 282.905 75.164V72.164C278.202 72.164 274.05 72.9254 270.49 74.5002L271.703 77.2438ZM282.905 75.164C289.382 75.164 294.272 76.7652 297.762 79.7895L299.727 77.5225C295.537 73.8908 289.867 72.164 282.905 72.164V75.164ZM297.771 79.7975C301.358 82.855 303.433 86.9059 303.973 92.0601L306.956 91.7479C306.344 85.8941 303.939 81.113 299.718 77.5145L297.771 79.7975ZM305.465 90.404H290.297V93.404H305.465V90.404ZM291.782 91.699C291.476 89.4767 290.454 87.643 288.718 86.3011L286.883 88.6749C287.963 89.509 288.605 90.6193 288.811 92.109L291.782 91.699ZM288.744 86.3221C287.063 84.9611 284.905 84.356 282.425 84.356V87.356C284.424 87.356 285.85 87.8389 286.857 88.6539L288.744 86.3221ZM282.425 84.356C280.334 84.356 278.493 84.7695 277.109 85.808L278.909 88.208C279.572 87.7105 280.675 87.356 282.425 87.356V84.356ZM277.159 85.7719C275.713 86.7657 274.973 88.2278 274.973 89.984H277.973C277.973 89.1802 278.256 88.6583 278.858 88.2441L277.159 85.7719ZM274.973 89.984C274.973 91.0274 275.249 92.0045 275.84 92.8556C276.423 93.6943 277.25 94.3252 278.223 94.7923L279.522 92.0877C278.895 91.7867 278.522 91.4577 278.305 91.1444C278.096 90.8435 277.973 90.4766 277.973 89.984H274.973ZM278.244 94.8019C280.057 95.6389 282.744 96.4343 286.227 97.2083L286.878 94.2797C283.449 93.5177 281.016 92.7771 279.501 92.0781L278.244 94.8019ZM286.178 97.1964C290.11 98.2111 293.27 99.2153 295.679 100.204L296.818 97.4282C294.235 96.3687 290.931 95.3249 286.927 94.2916L286.178 97.1964ZM295.71 100.216C297.945 101.076 299.915 102.513 301.621 104.573L303.932 102.659C301.926 100.239 299.544 98.4763 296.787 97.416L295.71 100.216ZM301.652 104.608C303.276 106.449 304.193 109.016 304.253 112.474L307.252 112.422C307.184 108.456 306.117 105.135 303.901 102.624L301.652 104.608ZM304.253 112.448C304.253 115.277 303.451 117.786 301.846 120.021L304.283 121.771C306.262 119.014 307.253 115.891 307.253 112.448H304.253ZM301.842 120.027C300.306 122.189 298.022 123.952 294.896 125.275L296.065 128.037C299.595 126.544 302.367 124.467 304.287 121.765L301.842 120.027ZM294.886 125.279C291.847 126.59 288.249 127.268 284.057 127.268V130.268C288.568 130.268 292.586 129.538 296.075 128.033L294.886 125.279ZM316.948 66.368L315.907 67.4478L315.926 67.4667L315.946 67.4849L316.948 66.368ZM316.948 53.696L317.968 54.7952L317.97 54.7938L316.948 53.696ZM330.964 53.696L329.923 54.7758L329.942 54.7947L329.962 54.8128L330.964 53.696ZM330.964 66.368L331.984 67.4672L331.986 67.4658L330.964 66.368ZM332.212 74.432H333.712V72.932H332.212V74.432ZM332.212 128V129.5H333.712V128H332.212ZM315.796 128H314.296V129.5H315.796V128ZM315.796 74.432V72.932H314.296V74.432H315.796ZM324.052 67.364C321.48 67.364 319.488 66.6304 317.949 65.2511L315.946 67.4849C318.12 69.4336 320.863 70.364 324.052 70.364V67.364ZM317.989 65.2882C316.491 63.8438 315.76 62.1219 315.76 60.032H312.76C312.76 62.9341 313.82 65.4362 315.907 67.4478L317.989 65.2882ZM315.76 60.032C315.76 57.8671 316.498 56.1607 317.968 54.7952L315.927 52.5968C313.814 54.5593 312.76 57.0769 312.76 60.032H315.76ZM317.97 54.7938C319.51 53.3597 321.496 52.604 324.052 52.604V49.604C320.848 49.604 318.097 50.5763 315.926 52.5982L317.97 54.7938ZM324.052 52.604C326.535 52.604 328.447 53.3534 329.923 54.7758L332.005 52.6162C329.896 50.5826 327.201 49.604 324.052 49.604V52.604ZM329.962 54.8128C331.491 56.1837 332.248 57.8851 332.248 60.032H335.248C335.248 57.0589 334.148 54.5363 331.965 52.5791L329.962 54.8128ZM332.248 60.032C332.248 62.1041 331.498 63.8208 329.942 65.2702L331.986 67.4658C334.141 65.4592 335.248 62.9519 335.248 60.032H332.248ZM329.943 65.2688C328.471 66.6362 326.551 67.364 324.052 67.364V70.364C327.185 70.364 329.873 69.4278 331.984 67.4672L329.943 65.2688ZM330.712 74.432V128H333.712V74.432H330.712ZM332.212 126.5H315.796V129.5H332.212V126.5ZM317.296 128V74.432H314.296V128H317.296ZM315.796 75.932H332.212V72.932H315.796V75.932ZM344.204 86.624L342.892 85.8972L342.888 85.905L342.884 85.9128L344.204 86.624ZM353.708 77.024L352.989 75.7079L352.98 75.7128L353.708 77.024ZM384.524 78.944L383.597 80.1235L383.606 80.1298L384.524 78.944ZM393.452 93.824V95.324H395.318L394.917 93.5017L393.452 93.824ZM375.98 93.824L374.569 94.3313L374.925 95.324H375.98V93.824ZM360.236 91.232L361.42 92.1529L361.426 92.1451L361.432 92.1372L360.236 91.232ZM360.236 111.296L359.04 112.201L359.046 112.209L359.052 112.217L360.236 111.296ZM375.98 108.608V107.108H374.925L374.569 108.101L375.98 108.608ZM393.452 108.608L394.916 108.937L395.326 107.108H393.452V108.608ZM384.524 123.392L383.595 122.214L383.595 122.214L384.524 123.392ZM353.708 125.408L352.98 126.719L352.989 126.724L353.708 125.408ZM344.204 115.808L342.884 116.519L342.888 116.527L342.892 116.535L344.204 115.808ZM342.344 101.216C342.344 95.8519 343.422 91.2406 345.525 87.3351L342.884 85.9128C340.506 90.3274 339.344 95.4441 339.344 101.216H342.344ZM345.516 87.3507C347.689 83.4284 350.658 80.4345 354.437 78.3352L352.98 75.7128C348.694 78.0935 345.328 81.4996 342.892 85.8972L345.516 87.3507ZM354.428 78.3401C358.277 76.2351 362.696 75.164 367.724 75.164V72.164C362.256 72.164 357.331 73.3329 352.989 75.7079L354.428 78.3401ZM367.724 75.164C374.171 75.164 379.427 76.8468 383.598 80.1235L385.451 77.7645C380.661 74.0012 374.718 72.164 367.724 72.164V75.164ZM383.606 80.1298C387.834 83.4049 390.644 88.0383 391.987 94.1463L394.917 93.5017C393.445 86.8096 390.303 81.5231 385.443 77.7582L383.606 80.1298ZM393.452 92.324H375.98V95.324H393.452V92.324ZM377.392 93.3167C376.578 91.0524 375.34 89.238 373.616 87.9982C371.888 86.7558 369.797 86.18 367.436 86.18V89.18C369.3 89.18 370.744 89.6282 371.865 90.4338C372.988 91.242 373.91 92.4996 374.569 94.3313L377.392 93.3167ZM367.436 86.18C363.966 86.18 361.12 87.5785 359.04 90.3268L361.432 92.1372C362.937 90.1495 364.891 89.18 367.436 89.18V86.18ZM359.052 90.3111C356.976 92.9799 356.048 96.6872 356.048 101.216H359.048C359.048 97.0408 359.912 94.0921 361.42 92.1529L359.052 90.3111ZM356.048 101.216C356.048 105.749 356.978 109.476 359.04 112.201L361.432 110.391C359.91 108.38 359.048 105.387 359.048 101.216H356.048ZM359.052 112.217C361.138 114.899 363.982 116.252 367.436 116.252V113.252C364.875 113.252 362.918 112.301 361.42 110.375L359.052 112.217ZM367.436 116.252C369.797 116.252 371.888 115.676 373.616 114.434C375.34 113.194 376.578 111.38 377.392 109.115L374.569 108.101C373.91 109.932 372.988 111.19 371.865 111.998C370.744 112.804 369.3 113.252 367.436 113.252V116.252ZM375.98 110.108H393.452V107.108H375.98V110.108ZM391.989 108.279C390.647 114.255 387.839 118.867 383.595 122.214L385.453 124.57C390.298 120.749 393.441 115.505 394.916 108.937L391.989 108.279ZM383.595 122.214C379.355 125.559 374.096 127.268 367.724 127.268V130.268C374.664 130.268 380.606 128.393 385.453 124.57L383.595 122.214ZM367.724 127.268C362.696 127.268 358.277 126.197 354.428 124.092L352.989 126.724C357.331 129.099 362.256 130.268 367.724 130.268V127.268ZM354.437 124.097C350.658 121.998 347.689 119.004 345.516 115.081L342.892 116.535C345.328 120.932 348.694 124.338 352.98 126.719L354.437 124.097ZM345.525 115.097C343.422 111.191 342.344 106.58 342.344 101.216H339.344C339.344 106.988 340.506 112.105 342.884 116.519L345.525 115.097ZM402.041 86.624L400.704 85.945L400.7 85.9532L400.695 85.9615L402.041 86.624ZM410.585 77.024L411.38 78.296L411.38 78.296L410.585 77.024ZM432.473 75.968L431.755 77.2849L431.767 77.2915L432.473 75.968ZM439.097 82.016L437.82 82.8021L440.597 87.3156V82.016H439.097ZM439.097 74.432V72.932H437.597V74.432H439.097ZM455.513 74.432H457.013V72.932H455.513V74.432ZM455.513 128V129.5H457.013V128H455.513ZM439.097 128H437.597V129.5H439.097V128ZM439.097 120.416H440.597V115.296L437.834 119.607L439.097 120.416ZM432.377 126.464L431.671 125.14L431.659 125.147L432.377 126.464ZM410.585 125.408L409.774 126.67L409.782 126.675L409.79 126.68L410.585 125.408ZM402.041 115.712L400.692 116.366L400.698 116.379L400.704 116.391L402.041 115.712ZM435.641 91.52L434.552 92.5508L434.559 92.5585L434.566 92.566L435.641 91.52ZM419.033 91.52L417.958 90.474L417.958 90.4744L419.033 91.52ZM419.033 110.912L417.93 111.928L417.944 111.943L417.958 111.958L419.033 110.912ZM435.641 110.912L434.566 109.866L434.559 109.874L434.552 109.881L435.641 110.912ZM400.469 101.12C400.469 95.8031 401.458 91.2053 403.387 87.2865L400.695 85.9615C398.529 90.3627 397.469 95.4289 397.469 101.12H400.469ZM403.379 87.303C405.38 83.3603 408.051 80.3766 411.38 78.296L409.79 75.752C405.951 78.1514 402.926 81.5677 400.704 85.945L403.379 87.303ZM411.38 78.296C414.715 76.2119 418.437 75.164 422.585 75.164V72.164C417.901 72.164 413.624 73.3561 409.79 75.752L411.38 78.296ZM422.585 75.164C426.155 75.164 429.195 75.8887 431.755 77.2848L433.192 74.6512C430.119 72.9753 426.568 72.164 422.585 72.164V75.164ZM431.767 77.2915C434.44 78.7169 436.439 80.5578 437.82 82.8021L440.375 81.2299C438.684 78.4822 436.267 76.2911 433.179 74.6445L431.767 77.2915ZM440.597 82.016V74.432H437.597V82.016H440.597ZM439.097 75.932H455.513V72.932H439.097V75.932ZM454.013 74.432V128H457.013V74.432H454.013ZM455.513 126.5H439.097V129.5H455.513V126.5ZM440.597 128V120.416H437.597V128H440.597ZM437.834 119.607C436.387 121.865 434.348 123.713 431.671 125.14L433.083 127.788C436.166 126.143 438.608 123.959 440.36 121.225L437.834 119.607ZM431.659 125.147C429.099 126.543 426.059 127.268 422.489 127.268V130.268C426.472 130.268 430.023 129.457 433.096 127.781L431.659 125.147ZM422.489 127.268C418.41 127.268 414.718 126.222 411.38 124.136L409.79 126.68C413.62 129.074 417.865 130.268 422.489 130.268V127.268ZM411.396 124.146C408.057 122 405.382 118.979 403.379 115.033L400.704 116.391C402.925 120.765 405.945 124.208 409.774 126.67L411.396 124.146ZM403.391 115.058C401.458 111.07 400.469 106.436 400.469 101.12H397.469C397.469 106.812 398.529 111.906 400.692 116.366L403.391 115.058ZM440.597 101.216C440.597 96.8281 439.355 93.1856 436.716 90.474L434.566 92.566C436.536 94.5904 437.597 97.4119 437.597 101.216H440.597ZM436.731 90.4892C434.207 87.8212 431.061 86.468 427.385 86.468V89.468C430.238 89.468 432.595 90.4828 434.552 92.5508L436.731 90.4892ZM427.385 86.468C423.711 86.468 420.541 87.8197 417.958 90.474L420.108 92.566C422.134 90.4843 424.532 89.468 427.385 89.468V86.468ZM417.958 90.4744C415.376 93.1296 414.173 96.7456 414.173 101.12H417.173C417.173 97.3024 418.21 94.5184 420.109 92.5656L417.958 90.4744ZM414.173 101.12C414.173 105.498 415.378 109.157 417.93 111.928L420.137 109.896C418.209 107.803 417.173 104.934 417.173 101.12H414.173ZM417.958 111.958C420.541 114.612 423.711 115.964 427.385 115.964V112.964C424.532 112.964 422.134 111.948 420.108 109.866L417.958 111.958ZM427.385 115.964C431.061 115.964 434.207 114.611 436.731 111.943L434.552 109.881C432.595 111.949 430.238 112.964 427.385 112.964V115.964ZM436.716 111.958C439.355 109.246 440.597 105.604 440.597 101.216H437.597C437.597 105.02 436.536 107.842 434.566 109.866L436.716 111.958ZM532.766 60.608L534.243 60.8689L534.554 59.108H532.766V60.608ZM520.862 128V129.5H522.12L522.339 128.261L520.862 128ZM504.446 128L502.968 127.741L502.66 129.5H504.446V128ZM509.342 100.064L510.819 100.323L511.127 98.564H509.342V100.064ZM483.806 100.064V98.564H482.546L482.328 99.8051L483.806 100.064ZM478.91 128V129.5H480.169L480.387 128.259L478.91 128ZM462.494 128L461.016 127.739L460.705 129.5H462.494V128ZM474.398 60.608V59.108H473.139L472.92 60.3471L474.398 60.608ZM490.814 60.608L492.29 60.8702L492.603 59.108H490.814V60.608ZM486.109 87.104L484.633 86.8418L484.32 88.604H486.109V87.104ZM511.646 87.104V88.604H512.903L513.122 87.3662L511.646 87.104ZM516.35 60.608V59.108H515.092L514.873 60.3458L516.35 60.608ZM531.288 60.3471L519.384 127.739L522.339 128.261L534.243 60.8689L531.288 60.3471ZM520.862 126.5H504.446V129.5H520.862V126.5ZM505.923 128.259L510.819 100.323L507.864 99.8051L502.968 127.741L505.923 128.259ZM509.342 98.564H483.806V101.564H509.342V98.564ZM482.328 99.8051L477.432 127.741L480.387 128.259L485.283 100.323L482.328 99.8051ZM478.91 126.5H462.494V129.5H478.91V126.5ZM463.971 128.261L475.875 60.8689L472.92 60.3471L461.016 127.739L463.971 128.261ZM474.398 62.108H490.814V59.108H474.398V62.108ZM489.337 60.3458L484.633 86.8418L487.586 87.3662L492.29 60.8702L489.337 60.3458ZM486.109 88.604H511.646V85.604H486.109V88.604ZM513.122 87.3662L517.826 60.8702L514.873 60.3458L510.169 86.8418L513.122 87.3662ZM516.35 62.108H532.766V59.108H516.35V62.108ZM595.016 74.432L596.494 74.6915L596.803 72.932H595.016V74.432ZM585.608 128V129.5H586.868L587.086 128.259L585.608 128ZM569.192 128L567.714 127.747L567.414 129.5H569.192V128ZM570.44 120.704L571.919 120.957L572.8 115.805L569.321 119.706L570.44 120.704ZM562.664 126.464L563.3 127.823L563.312 127.817L562.664 126.464ZM540.296 124.064L539.236 125.125L539.241 125.13L539.247 125.136L540.296 124.064ZM536.168 105.728L537.641 106.011L537.643 106.001L537.645 105.991L536.168 105.728ZM541.736 74.432V72.932H540.48L540.259 74.1693L541.736 74.432ZM558.056 74.432L559.534 74.6904L559.841 72.932H558.056V74.432ZM552.968 103.52L554.443 103.796L554.444 103.787L554.446 103.778L552.968 103.52ZM554.888 112.736L553.828 113.797L553.851 113.82L553.875 113.842L554.888 112.736ZM569 112.16L569.971 113.304L569.974 113.301L569 112.16ZM573.32 104.288L574.789 104.593L574.793 104.571L574.797 104.549L573.32 104.288ZM578.6 74.432V72.932H577.342L577.123 74.1708L578.6 74.432ZM593.539 74.1725L584.131 127.741L587.086 128.259L596.494 74.6915L593.539 74.1725ZM585.608 126.5H569.192V129.5H585.608V126.5ZM570.671 128.253L571.919 120.957L568.962 120.451L567.714 127.747L570.671 128.253ZM569.321 119.706C567.35 121.915 564.922 123.719 562.016 125.111L563.312 127.817C566.55 126.265 569.306 124.229 571.56 121.702L569.321 119.706ZM562.028 125.105C559.228 126.416 556.214 127.076 552.968 127.076V130.076C556.635 130.076 560.085 129.328 563.3 127.823L562.028 125.105ZM552.968 127.076C547.881 127.076 544.071 125.661 541.346 122.992L539.247 125.136C542.665 128.483 547.303 130.076 552.968 130.076V127.076ZM541.357 123.003C538.633 120.28 537.188 116.444 537.188 111.296H534.188C534.188 117.028 535.815 121.704 539.236 125.125L541.357 123.003ZM537.188 111.296C537.188 109.324 537.342 107.565 537.641 106.011L534.695 105.445C534.354 107.219 534.188 109.172 534.188 111.296H537.188ZM537.645 105.991L543.213 74.6947L540.259 74.1693L534.691 105.465L537.645 105.991ZM541.736 75.932H558.056V72.932H541.736V75.932ZM556.579 74.1735L551.491 103.262L554.446 103.778L559.534 74.6904L556.579 74.1735ZM551.494 103.244C551.286 104.351 551.18 105.436 551.18 106.496H554.18C554.18 105.636 554.266 104.737 554.443 103.796L551.494 103.244ZM551.18 106.496C551.18 109.461 551.999 111.968 553.828 113.797L555.949 111.675C554.834 110.56 554.18 108.907 554.18 106.496H551.18ZM553.875 113.842C555.76 115.57 558.273 116.348 561.224 116.348V113.348C558.799 113.348 557.088 112.718 555.902 111.63L553.875 113.842ZM561.224 116.348C564.61 116.348 567.558 115.351 569.971 113.304L568.03 111.016C566.219 112.553 563.982 113.348 561.224 113.348V116.348ZM569.974 113.301C572.453 111.186 574.032 108.24 574.789 104.593L571.852 103.983C571.2 107.12 569.899 109.422 568.027 111.019L569.974 113.301ZM574.797 104.549L580.077 74.6932L577.123 74.1708L571.843 104.027L574.797 104.549ZM578.6 75.932H595.016V72.932H578.6V75.932ZM621.88 82.016L620.403 81.7502L619.382 87.4255L623.039 82.9675L621.88 82.016ZM629.656 75.968L628.996 74.6209L628.996 74.6209L629.656 75.968ZM653.848 79.328L652.751 80.3508L652.76 80.3604L652.769 80.3699L653.848 79.328ZM658.648 101.12L660.125 101.378L660.127 101.367L658.648 101.12ZM652.984 115.712L654.226 116.553L654.232 116.544L652.984 115.712ZM642.808 125.408L643.545 126.714L643.553 126.71L643.561 126.705L642.808 125.408ZM620.728 126.56L619.956 127.846L619.968 127.853L619.98 127.86L620.728 126.56ZM615.16 120.512L616.522 119.883L614.525 115.557L613.683 120.247L615.16 120.512ZM613.816 128V129.5H615.07L615.292 128.265L613.816 128ZM597.4 128L595.923 127.739L595.611 129.5H597.4V128ZM609.976 56.96V55.46H608.718L608.499 56.6985L609.976 56.96ZM626.392 56.96L627.868 57.2258L628.186 55.46H626.392V56.96ZM642.04 101.12L643.514 101.396L643.516 101.389L643.517 101.381L642.04 101.12ZM639.544 90.656L638.483 91.7167L638.492 91.726L638.502 91.7351L639.544 90.656ZM623.704 91.52L624.695 92.6455L624.695 92.6455L623.704 91.52ZM618.52 101.216L617.045 100.94L617.043 100.954L617.04 100.969L618.52 101.216ZM620.92 111.776L621.98 110.715L621.98 110.715L620.92 111.776ZM636.76 110.912L637.751 112.038L637.753 112.036L636.76 110.912ZM623.039 82.9675C624.94 80.6508 627.357 78.7644 630.316 77.3151L628.996 74.6209C625.683 76.2436 622.915 78.3892 620.72 81.0645L623.039 82.9675ZM630.316 77.3151C633.233 75.886 636.43 75.164 639.928 75.164V72.164C636.002 72.164 632.35 72.978 628.996 74.6209L630.316 77.3151ZM639.928 75.164C645.325 75.164 649.549 76.9161 652.751 80.3508L654.945 78.3052C651.107 74.1879 646.051 72.164 639.928 72.164V75.164ZM652.769 80.3699C656.019 83.7359 657.724 88.4136 657.724 94.592H660.724C660.724 87.8424 658.845 82.3441 654.927 78.2861L652.769 80.3699ZM657.724 94.592C657.724 96.5468 657.54 98.6398 657.168 100.873L660.127 101.367C660.523 98.9922 660.724 96.7332 660.724 94.592H657.724ZM657.17 100.862C656.242 106.182 654.425 110.846 651.736 114.88L654.232 116.544C657.175 112.13 659.133 107.066 660.125 101.378L657.17 100.862ZM651.742 114.871C649.04 118.862 645.809 121.931 642.055 124.111L643.561 126.705C647.742 124.277 651.296 120.882 654.226 116.553L651.742 114.871ZM642.07 124.102C638.32 126.219 634.381 127.268 630.232 127.268V130.268C634.915 130.268 639.36 129.077 643.545 126.714L642.07 124.102ZM630.232 127.268C626.646 127.268 623.753 126.569 621.475 125.26L619.98 127.86C622.823 129.495 626.265 130.268 630.232 130.268V127.268ZM621.499 125.274C619.175 123.879 617.537 122.082 616.522 119.883L613.798 121.141C615.087 123.934 617.161 126.169 619.956 127.846L621.499 125.274ZM613.683 120.247L612.339 127.735L615.292 128.265L616.636 120.777L613.683 120.247ZM613.816 126.5H597.4V129.5H613.816V126.5ZM598.877 128.261L611.453 57.2215L608.499 56.6985L595.923 127.739L598.877 128.261ZM609.976 58.46H626.392V55.46H609.976V58.46ZM624.915 56.6942L620.403 81.7502L623.356 82.2818L627.868 57.2258L624.915 56.6942ZM643.517 101.381C643.721 100.226 643.828 99.1448 643.828 98.144H640.828C640.828 98.9352 640.743 99.8384 640.563 100.859L643.517 101.381ZM643.828 98.144C643.828 94.6412 642.802 91.7165 640.586 89.5769L638.502 91.7351C639.998 93.1795 640.828 95.2468 640.828 98.144H643.828ZM640.604 89.5953C638.499 87.4895 635.797 86.468 632.632 86.468V89.468C635.098 89.468 637.005 90.2385 638.483 91.7167L640.604 89.5953ZM632.632 86.468C628.966 86.468 625.645 87.8105 622.712 90.3945L624.695 92.6455C627.138 90.4935 629.769 89.468 632.632 89.468V86.468ZM622.712 90.3945C619.733 93.0187 617.865 96.5707 617.045 100.94L619.994 101.492C620.711 97.6693 622.298 94.7573 624.695 92.6455L622.712 90.3945ZM617.04 100.969C616.837 102.186 616.732 103.326 616.732 104.384H619.732C619.732 103.522 619.818 102.55 619.999 101.463L617.04 100.969ZM616.732 104.384C616.732 107.818 617.722 110.7 619.859 112.837L621.98 110.715C620.533 109.268 619.732 107.222 619.732 104.384H616.732ZM619.859 112.837C621.965 114.942 624.666 115.964 627.832 115.964V112.964C625.365 112.964 623.459 112.194 621.98 110.715L619.859 112.837ZM627.832 115.964C631.497 115.964 634.818 114.621 637.751 112.038L635.768 109.786C633.325 111.939 630.694 112.964 627.832 112.964V115.964ZM637.753 112.036C640.789 109.353 642.693 105.774 643.514 101.396L640.565 100.844C639.85 104.658 638.235 107.607 635.766 109.788L637.753 112.036Z" fill="black"/>
</svg>
