<?xml version="1.0" encoding="utf-8"?>
<!-- Generator: Adobe Illustrator 15.0.2, SVG Export Plug-In . SVG Version: 6.00 Build 0)  -->
<!DOCTYPE svg PUBLIC "-//W3C//DTD SVG 1.1//EN" "http://www.w3.org/Graphics/SVG/1.1/DTD/svg11.dtd">
<svg version="1.1" id="Layer_1" xmlns="http://www.w3.org/2000/svg" xmlns:xlink="http://www.w3.org/1999/xlink" x="0px" y="0px"
	 width="100px" height="100px" viewBox="0 0 100 100" enable-background="new 0 0 100 100" xml:space="preserve">
<circle fill="#FFFFFF" cx="50" cy="50" r="50"/>
<g>
	<path d="M17.262,42.267l2.802,0.847c-0.188,0.786-0.485,1.442-0.889,1.969c-0.405,0.527-0.907,0.924-1.507,1.192
		c-0.6,0.269-1.363,0.402-2.29,0.402c-1.125,0-2.043-0.163-2.756-0.49c-0.712-0.327-1.328-0.902-1.845-1.725
		C10.258,43.64,10,42.587,10,41.304c0-1.711,0.456-3.027,1.366-3.946c0.91-0.92,2.198-1.379,3.864-1.379
		c1.303,0,2.328,0.263,3.074,0.79c0.745,0.527,1.299,1.336,1.662,2.428l-2.823,0.628c-0.099-0.315-0.203-0.546-0.31-0.691
		c-0.179-0.245-0.398-0.433-0.656-0.564c-0.259-0.132-0.549-0.198-0.868-0.198c-0.725,0-1.28,0.292-1.666,0.875
		c-0.292,0.432-0.438,1.111-0.438,2.037c0,1.147,0.174,1.933,0.522,2.358s0.837,0.638,1.468,0.638c0.611,0,1.074-0.171,1.387-0.515
		C16.894,43.419,17.121,42.921,17.262,42.267z"/>
	<path d="M21.214,41.335c0-1.689,0.47-3.004,1.411-3.945s2.251-1.411,3.931-1.411c1.722,0,3.049,0.462,3.98,1.387
		c0.932,0.924,1.397,2.219,1.397,3.885c0,1.209-0.204,2.2-0.61,2.975c-0.407,0.774-0.995,1.376-1.764,1.807
		c-0.77,0.43-1.728,0.646-2.876,0.646c-1.167,0-2.132-0.186-2.897-0.557c-0.765-0.373-1.384-0.96-1.86-1.765
		S21.214,42.544,21.214,41.335z M24.411,41.349c0,1.044,0.194,1.795,0.582,2.251c0.389,0.457,0.917,0.685,1.584,0.685
		c0.687,0,1.219-0.224,1.595-0.671c0.376-0.446,0.564-1.249,0.564-2.406c0-0.974-0.197-1.685-0.589-2.135
		c-0.393-0.449-0.926-0.674-1.598-0.674c-0.646,0-1.163,0.228-1.553,0.684C24.605,39.54,24.411,40.295,24.411,41.349z"/>
	<path d="M33.621,36.155h4.204l1.621,6.295l1.61-6.295h4.202v10.346H42.64v-7.89l-2.018,7.89h-2.369l-2.014-7.89v7.89h-2.618V36.155
		z"/>
	<path d="M47.283,36.155h5.314c1.158,0,2.025,0.275,2.601,0.826c0.576,0.55,0.865,1.334,0.865,2.35c0,1.044-0.314,1.861-0.943,2.449
		c-0.627,0.588-1.586,0.882-2.875,0.882h-1.75v3.839h-3.211V36.155z M50.494,40.566h0.785c0.615,0,1.048-0.107,1.298-0.321
		c0.25-0.214,0.374-0.488,0.374-0.823c0-0.324-0.108-0.6-0.325-0.825c-0.216-0.226-0.624-0.339-1.221-0.339h-0.911V40.566z"/>
	<path d="M62.867,44.793h-3.63l-0.504,1.708h-3.265l3.89-10.346h3.486l3.888,10.346h-3.348L62.867,44.793z M62.204,42.556
		l-1.142-3.719l-1.131,3.719H62.204z"/>
	<path d="M67.771,36.155h2.985l3.895,5.724v-5.724h3.014v10.346H74.65l-3.874-5.681v5.681h-3.006V36.155z"/>
	<path d="M78.743,36.155h3.552l2.085,3.49l2.088-3.49H90l-4.022,6.013v4.333h-3.204v-4.333L78.743,36.155z"/>
	<path d="M27.946,53.499h3.197v7.798h4.989v2.548h-8.187V53.499z"/>
	<path d="M36.937,58.679c0-1.688,0.47-3.004,1.412-3.945c0.941-0.939,2.251-1.411,3.931-1.411c1.722,0,3.048,0.462,3.979,1.387
		c0.932,0.924,1.397,2.22,1.397,3.885c0,1.21-0.204,2.201-0.61,2.975c-0.407,0.774-0.995,1.376-1.764,1.807
		c-0.77,0.431-1.728,0.646-2.876,0.646c-1.167,0-2.132-0.186-2.897-0.559c-0.764-0.371-1.384-0.96-1.859-1.765
		S36.937,59.889,36.937,58.679z M40.134,58.693c0,1.043,0.194,1.794,0.583,2.251c0.388,0.456,0.916,0.684,1.584,0.684
		c0.687,0,1.218-0.223,1.595-0.67s0.565-1.249,0.565-2.406c0-0.974-0.197-1.686-0.589-2.136c-0.394-0.448-0.926-0.674-1.599-0.674
		c-0.645,0-1.163,0.229-1.553,0.686C40.329,56.884,40.134,57.64,40.134,58.693z"/>
	<path d="M54.58,60.097v-2.152h4.94v4.41c-0.945,0.646-1.783,1.084-2.51,1.317c-0.727,0.232-1.588,0.35-2.586,0.35
		c-1.229,0-2.229-0.21-3.003-0.629c-0.774-0.418-1.374-1.042-1.8-1.87c-0.426-0.827-0.638-1.778-0.638-2.851
		c0-1.13,0.232-2.111,0.699-2.946c0.466-0.835,1.148-1.469,2.046-1.902c0.702-0.333,1.645-0.501,2.831-0.501
		c1.143,0,1.997,0.104,2.564,0.311c0.568,0.208,1.038,0.528,1.412,0.963c0.373,0.436,0.654,0.987,0.844,1.655l-3.085,0.551
		c-0.128-0.39-0.342-0.689-0.646-0.896s-0.69-0.311-1.16-0.311c-0.702,0-1.261,0.243-1.677,0.73
		c-0.416,0.486-0.625,1.258-0.625,2.311c0,1.121,0.211,1.92,0.632,2.4c0.421,0.479,1.009,0.72,1.761,0.72
		c0.357,0,0.699-0.052,1.023-0.155c0.325-0.104,0.695-0.28,1.115-0.53v-0.974H54.58z"/>
	<path d="M61.017,58.679c0-1.688,0.47-3.004,1.411-3.945c0.941-0.939,2.251-1.411,3.931-1.411c1.722,0,3.049,0.462,3.98,1.387
		c0.932,0.924,1.397,2.22,1.397,3.885c0,1.21-0.204,2.201-0.61,2.975c-0.407,0.774-0.995,1.376-1.765,1.807
		c-0.769,0.431-1.729,0.646-2.876,0.646c-1.167,0-2.132-0.186-2.897-0.559c-0.765-0.371-1.384-0.96-1.859-1.765
		S61.017,59.889,61.017,58.679z M64.213,58.693c0,1.043,0.194,1.794,0.583,2.251c0.387,0.456,0.916,0.684,1.584,0.684
		c0.688,0,1.219-0.223,1.595-0.67c0.377-0.447,0.564-1.249,0.564-2.406c0-0.974-0.196-1.686-0.589-2.136
		c-0.394-0.448-0.926-0.674-1.599-0.674c-0.646,0-1.162,0.229-1.553,0.686C64.408,56.884,64.213,57.64,64.213,58.693z"/>
</g>
</svg>
