<svg xmlns="http://www.w3.org/2000/svg" width="124" height="126" fill="none" viewBox="0 0 124 126"><g clip-path="url(#clip0_15_4)"><mask id="path-1-outside-1_15_4" width="96" height="99" x="14" y="13" fill="#000" maskUnits="userSpaceOnUse"><rect width="96" height="99" x="14" y="13" fill="#fff"/><path d="M78.3305 47.456C76.8798 45.0667 74.8745 43.232 72.3145 41.952C69.8398 40.672 66.8958 40.032 63.4825 40.032C57.1678 40.032 52.1758 42.08 48.5065 46.176C44.9225 50.272 43.1305 55.776 43.1305 62.688C43.1305 70.4533 45.0505 76.384 48.8905 80.48C52.8158 84.4907 58.4905 86.496 65.9145 86.496C74.7038 86.496 80.9758 82.528 84.7305 74.592H59.5145V56.544H106.363V80.864C104.4 85.6427 101.499 90.1227 97.6585 94.304C93.9038 98.4853 89.1252 101.941 83.3225 104.672C77.5198 107.317 70.9065 108.64 63.4825 108.64C54.4372 108.64 46.4158 106.72 39.4185 102.88C32.5065 98.9547 27.1305 93.536 23.2905 86.624C19.5358 79.6267 17.6585 71.648 17.6585 62.688C17.6585 53.8133 19.5358 45.92 23.2905 39.008C27.1305 32.0107 32.5065 26.592 39.4185 22.752C46.3305 18.8267 54.3092 16.864 63.3545 16.864C74.7038 16.864 84.0905 19.5947 91.5145 25.056C98.9385 30.5173 103.547 37.984 105.339 47.456H78.3305Z"/></mask><path fill="#F5EDED" d="M78.3305 47.456C76.8798 45.0667 74.8745 43.232 72.3145 41.952C69.8398 40.672 66.8958 40.032 63.4825 40.032C57.1678 40.032 52.1758 42.08 48.5065 46.176C44.9225 50.272 43.1305 55.776 43.1305 62.688C43.1305 70.4533 45.0505 76.384 48.8905 80.48C52.8158 84.4907 58.4905 86.496 65.9145 86.496C74.7038 86.496 80.9758 82.528 84.7305 74.592H59.5145V56.544H106.363V80.864C104.4 85.6427 101.499 90.1227 97.6585 94.304C93.9038 98.4853 89.1252 101.941 83.3225 104.672C77.5198 107.317 70.9065 108.64 63.4825 108.64C54.4372 108.64 46.4158 106.72 39.4185 102.88C32.5065 98.9547 27.1305 93.536 23.2905 86.624C19.5358 79.6267 17.6585 71.648 17.6585 62.688C17.6585 53.8133 19.5358 45.92 23.2905 39.008C27.1305 32.0107 32.5065 26.592 39.4185 22.752C46.3305 18.8267 54.3092 16.864 63.3545 16.864C74.7038 16.864 84.0905 19.5947 91.5145 25.056C98.9385 30.5173 103.547 37.984 105.339 47.456H78.3305Z"/><path fill="#000" d="M78.3305 47.456L75.7661 49.0129L76.6423 50.456H78.3305V47.456ZM72.3145 41.952L70.9362 44.6166L70.9545 44.6261L70.9729 44.6353L72.3145 41.952ZM48.5065 46.176L46.272 44.1743L46.2603 44.1873L46.2488 44.2005L48.5065 46.176ZM48.8905 80.48L46.7019 82.5318L46.7239 82.5553L46.7465 82.5784L48.8905 80.48ZM84.7305 74.592L87.4423 75.875L89.4687 71.592H84.7305V74.592ZM59.5145 74.592H56.5145V77.592H59.5145V74.592ZM59.5145 56.544V53.544H56.5145V56.544H59.5145ZM106.363 56.544H109.363V53.544H106.363V56.544ZM106.363 80.864L109.138 82.0038L109.363 81.4561V80.864H106.363ZM97.6585 94.304L95.4489 92.2748L95.4376 92.2871L95.4264 92.2996L97.6585 94.304ZM83.3225 104.672L84.5669 107.402L84.5835 107.394L84.5999 107.386L83.3225 104.672ZM39.4185 102.88L37.937 105.489L37.956 105.499L37.9752 105.51L39.4185 102.88ZM23.2905 86.624L20.647 88.0425L20.6574 88.0618L20.668 88.0809L23.2905 86.624ZM23.2905 39.008L20.6605 37.5647L20.6543 37.576L23.2905 39.008ZM39.4185 22.752L40.8754 25.3745L40.8877 25.3676L40.9 25.3607L39.4185 22.752ZM91.5145 25.056L89.7368 27.4726L89.7368 27.4726L91.5145 25.056ZM105.339 47.456V50.456H108.959L108.286 46.8983L105.339 47.456ZM80.8949 45.8991C79.1435 43.0145 76.7089 40.7951 73.6561 39.2687L70.9729 44.6353C73.0401 45.6689 74.6161 47.1188 75.7661 49.0129L80.8949 45.8991ZM73.6928 39.2873C70.7067 37.7428 67.269 37.032 63.4825 37.032V43.032C66.5226 43.032 68.973 43.6012 70.9362 44.6166L73.6928 39.2873ZM63.4825 37.032C56.4547 37.032 50.5974 39.3459 46.272 44.1743L50.741 48.1777C53.7543 44.8141 57.881 43.032 63.4825 43.032V37.032ZM46.2488 44.2005C42.0681 48.9784 40.1305 55.2514 40.1305 62.688H46.1305C46.1305 56.3006 47.7769 51.5656 50.7642 48.1515L46.2488 44.2005ZM40.1305 62.688C40.1305 70.9207 42.169 77.6967 46.7019 82.5318L51.0791 78.4282C47.932 75.0713 46.1305 69.9859 46.1305 62.688H40.1305ZM46.7465 82.5784C51.401 87.3341 57.9545 89.496 65.9145 89.496V83.496C59.0265 83.496 54.2307 81.6473 51.0345 78.3816L46.7465 82.5784ZM65.9145 89.496C70.771 89.496 75.1162 88.3949 78.8144 86.0552C82.5129 83.7154 85.3669 80.2616 87.4423 75.875L82.0187 73.309C80.3394 76.8584 78.1801 79.3566 75.6066 80.9848C73.0328 82.613 69.8474 83.496 65.9145 83.496V89.496ZM84.7305 71.592H59.5145V77.592H84.7305V71.592ZM62.5145 74.592V56.544H56.5145V74.592H62.5145ZM59.5145 59.544H106.363V53.544H59.5145V59.544ZM103.363 56.544V80.864H109.363V56.544H103.363ZM103.587 79.7242C101.772 84.1445 99.0731 88.3285 95.4489 92.2748L99.8681 96.3332C103.924 91.9169 107.028 87.1408 109.138 82.0038L103.587 79.7242ZM95.4264 92.2996C91.9745 96.1437 87.5362 99.3735 82.0451 101.958L84.5999 107.386C90.7142 104.509 95.8332 100.827 99.8906 96.3084L95.4264 92.2996ZM82.0781 101.942C76.7251 104.383 70.5471 105.64 63.4825 105.64V111.64C71.2659 111.64 78.3146 110.252 84.5669 107.402L82.0781 101.942ZM63.4825 105.64C54.8735 105.64 47.3606 103.816 40.8618 100.25L37.9752 105.51C45.471 109.624 54.0008 111.64 63.4825 111.64V105.64ZM40.9 100.271C34.4641 96.6164 29.4841 91.595 25.913 85.1671L20.668 88.0809C24.7769 95.477 30.5489 101.293 37.937 105.489L40.9 100.271ZM25.934 85.2055C22.442 78.6978 20.6585 71.2174 20.6585 62.688H14.6585C14.6585 72.0786 16.6297 80.5555 20.647 88.0425L25.934 85.2055ZM20.6585 62.688C20.6585 54.2485 22.44 46.8586 25.9267 40.44L20.6543 37.576C16.6317 44.9814 14.6585 53.3782 14.6585 62.688H20.6585ZM25.9205 40.4513C29.4912 33.9448 34.4627 28.9371 40.8754 25.3745L37.9616 20.1295C30.5503 24.2469 24.7698 30.0766 20.6605 37.5647L25.9205 40.4513ZM40.9 25.3607C47.301 21.7255 54.7558 19.864 63.3545 19.864V13.864C53.8626 13.864 45.36 15.9278 37.937 20.1433L40.9 25.3607ZM63.3545 19.864C74.2149 19.864 82.9374 22.4707 89.7368 27.4726L93.2922 22.6394C85.2436 16.7186 75.1928 13.864 63.3545 13.864V19.864ZM89.7368 27.4726C96.5196 32.4622 100.733 39.2492 102.391 48.0137L108.286 46.8983C106.36 36.7188 101.357 28.5725 93.2922 22.6394L89.7368 27.4726ZM105.339 44.456H78.3305V50.456H105.339V44.456Z" mask="url(#path-1-outside-1_15_4)"/></g><defs><clipPath id="clip0_15_4"><rect width="124" height="126" fill="#fff"/></clipPath></defs></svg>