<svg xmlns="http://www.w3.org/2000/svg" width="675" height="91" fill="none" viewBox="0 0 675 91"><rect width="675" height="91" fill="#fff"/><mask id="path-1-outside-1_2_183" width="670" height="86" x="2" y="1" fill="#000" maskUnits="userSpaceOnUse"><rect width="670" height="86" x="2" y="1" fill="#fff"/><path d="M50.951 37.592C49.863 35.8 48.359 34.424 46.439 33.464C44.583 32.504 42.375 32.024 39.815 32.024C35.079 32.024 31.335 33.56 28.583 36.632C25.895 39.704 24.551 43.832 24.551 49.016C24.551 54.84 25.991 59.288 28.871 62.36C31.815 65.368 36.071 66.872 41.639 66.872C48.231 66.872 52.935 63.896 55.751 57.944H36.839V44.408H71.975V62.648C70.503 66.232 68.327 69.592 65.447 72.728C62.631 75.864 59.047 78.456 54.695 80.504C50.343 82.488 45.383 83.48 39.815 83.48C33.031 83.48 27.015 82.04 21.767 79.16C16.583 76.216 12.551 72.152 9.671 66.968C6.855 61.72 5.447 55.736 5.447 49.016C5.447 42.36 6.855 36.44 9.671 31.256C12.551 26.008 16.583 21.944 21.767 19.064C26.951 16.12 32.935 14.648 39.719 14.648C48.231 14.648 55.271 16.696 60.839 20.792C66.407 24.888 69.863 30.488 71.207 37.592H50.951ZM131.863 55.448C131.863 56.92 131.767 58.392 131.575 59.864H95.9593C96.1513 62.808 96.9513 65.016 98.3593 66.488C99.8313 67.896 101.687 68.6 103.927 68.6C107.063 68.6 109.303 67.192 110.647 64.376H130.711C129.879 68.088 128.247 71.416 125.815 74.36C123.447 77.24 120.439 79.512 116.791 81.176C113.143 82.84 109.111 83.672 104.695 83.672C99.3833 83.672 94.6473 82.552 90.4873 80.312C86.3913 78.072 83.1593 74.872 80.7913 70.712C78.4873 66.552 77.3353 61.656 77.3353 56.024C77.3353 50.392 78.4873 45.528 80.7913 41.432C83.0953 37.272 86.2953 34.072 90.3913 31.832C94.5513 29.592 99.3193 28.472 104.695 28.472C110.007 28.472 114.711 29.56 118.807 31.736C122.903 33.912 126.103 37.048 128.407 41.144C130.711 45.176 131.863 49.944 131.863 55.448ZM112.663 50.744C112.663 48.44 111.895 46.648 110.359 45.368C108.823 44.024 106.903 43.352 104.599 43.352C102.295 43.352 100.407 43.992 98.9353 45.272C97.4633 46.488 96.5033 48.312 96.0553 50.744H112.663ZM164.62 83.672C159.244 83.672 154.412 82.552 150.124 80.312C145.9 78.072 142.572 74.872 140.14 70.712C137.708 66.552 136.492 61.656 136.492 56.024C136.492 50.456 137.708 45.592 140.14 41.432C142.636 37.272 145.996 34.072 150.22 31.832C154.508 29.592 159.34 28.472 164.716 28.472C170.092 28.472 174.892 29.592 179.116 31.832C183.404 34.072 186.764 37.272 189.196 41.432C191.692 45.592 192.94 50.456 192.94 56.024C192.94 61.592 191.692 66.488 189.196 70.712C186.764 74.872 183.404 78.072 179.116 80.312C174.828 82.552 169.996 83.672 164.62 83.672ZM164.62 67.352C167.244 67.352 169.42 66.392 171.148 64.472C172.94 62.488 173.836 59.672 173.836 56.024C173.836 52.376 172.94 49.592 171.148 47.672C169.42 45.752 167.276 44.792 164.716 44.792C162.156 44.792 160.012 45.752 158.284 47.672C156.556 49.592 155.692 52.376 155.692 56.024C155.692 59.736 156.524 62.552 158.188 64.472C159.852 66.392 161.996 67.352 164.62 67.352ZM229.683 44.792H221.235V83H202.323V44.792H196.467V29.144H202.323V28.664C202.323 21.752 204.339 16.472 208.371 12.824C212.467 9.112 218.323 7.256 225.939 7.256C227.475 7.256 228.659 7.288 229.491 7.352V23.384C228.979 23.32 228.275 23.288 227.379 23.288C225.331 23.288 223.827 23.768 222.867 24.728C221.907 25.624 221.363 27.096 221.235 29.144H229.683V44.792ZM245.911 24.152C242.583 24.152 239.895 23.256 237.847 21.464C235.863 19.608 234.871 17.304 234.871 14.552C234.871 11.736 235.863 9.4 237.847 7.544C239.895 5.688 242.583 4.75999 245.911 4.75999C249.175 4.75999 251.799 5.688 253.783 7.544C255.831 9.4 256.855 11.736 256.855 14.552C256.855 17.304 255.831 19.608 253.783 21.464C251.799 23.256 249.175 24.152 245.911 24.152ZM255.223 29.144V83H236.407V29.144H255.223ZM288.883 83.672C284.019 83.672 279.667 82.872 275.827 81.272C272.051 79.608 269.043 77.368 266.803 74.552C264.627 71.672 263.411 68.44 263.155 64.856H281.395C281.651 66.584 282.451 67.928 283.795 68.888C285.139 69.848 286.803 70.328 288.786 70.328C290.323 70.328 291.539 70.008 292.435 69.368C293.331 68.728 293.779 67.896 293.779 66.872C293.779 65.528 293.043 64.536 291.571 63.896C290.099 63.256 287.667 62.552 284.275 61.784C280.435 61.016 277.235 60.152 274.674 59.192C272.115 58.232 269.875 56.664 267.955 54.488C266.099 52.312 265.171 49.368 265.171 45.656C265.171 42.456 266.035 39.576 267.763 37.016C269.491 34.392 272.019 32.312 275.347 30.776C278.739 29.24 282.803 28.472 287.539 28.472C294.579 28.472 300.115 30.2 304.147 33.656C308.179 37.112 310.515 41.656 311.155 47.288H294.163C293.843 45.56 293.075 44.248 291.859 43.352C290.707 42.392 289.139 41.912 287.155 41.912C285.619 41.912 284.435 42.2 283.603 42.776C282.835 43.352 282.451 44.152 282.451 45.176C282.451 46.456 283.187 47.448 284.659 48.152C286.131 48.792 288.499 49.464 291.763 50.168C295.667 51 298.899 51.928 301.459 52.952C304.083 53.976 306.355 55.64 308.275 57.944C310.259 60.184 311.25 63.256 311.25 67.16C311.25 70.296 310.323 73.112 308.467 75.608C306.675 78.104 304.083 80.088 300.691 81.56C297.363 82.968 293.427 83.672 288.883 83.672ZM330.005 24.152C326.677 24.152 323.989 23.256 321.941 21.464C319.957 19.608 318.965 17.304 318.965 14.552C318.965 11.736 319.957 9.4 321.941 7.544C323.989 5.688 326.677 4.75999 330.005 4.75999C333.269 4.75999 335.893 5.688 337.877 7.544C339.925 9.4 340.949 11.736 340.949 14.552C340.949 17.304 339.925 19.608 337.877 21.464C335.893 23.256 333.269 24.152 330.005 24.152ZM339.317 29.144V83H320.501V29.144H339.317ZM346.96 56.024C346.96 50.456 348.112 45.592 350.416 41.432C352.72 37.272 355.92 34.072 360.016 31.832C364.176 29.592 368.912 28.472 374.224 28.472C381.072 28.472 386.832 30.36 391.504 34.136C396.176 37.848 399.184 43.064 400.528 49.784H380.56C379.408 46.264 377.168 44.504 373.84 44.504C371.472 44.504 369.584 45.496 368.176 47.48C366.832 49.4 366.16 52.248 366.16 56.024C366.16 59.8 366.832 62.68 368.176 64.664C369.584 66.648 371.472 67.64 373.84 67.64C377.232 67.64 379.472 65.88 380.56 62.36H400.528C399.184 69.016 396.176 74.232 391.504 78.008C386.832 81.784 381.072 83.672 374.224 83.672C368.912 83.672 364.176 82.552 360.016 80.312C355.92 78.072 352.72 74.872 350.416 70.712C348.112 66.552 346.96 61.656 346.96 56.024ZM405.273 56.024C405.273 50.456 406.265 45.592 408.249 41.432C410.297 37.272 413.049 34.072 416.505 31.832C420.025 29.592 423.929 28.472 428.217 28.472C431.929 28.472 435.129 29.208 437.817 30.68C440.505 32.152 442.585 34.136 444.057 36.632V29.144H462.873V83H444.057V75.512C442.585 78.008 440.473 79.992 437.721 81.464C435.033 82.936 431.865 83.672 428.217 83.672C423.929 83.672 420.025 82.552 416.505 80.312C413.049 78.072 410.297 74.872 408.249 70.712C406.265 66.488 405.273 61.592 405.273 56.024ZM444.057 56.024C444.057 52.568 443.097 49.848 441.177 47.864C439.321 45.88 437.017 44.888 434.265 44.888C431.449 44.888 429.113 45.88 427.257 47.864C425.401 49.784 424.473 52.504 424.473 56.024C424.473 59.48 425.401 62.232 427.257 64.28C429.113 66.264 431.449 67.256 434.265 67.256C437.017 67.256 439.321 66.264 441.177 64.28C443.097 62.296 444.057 59.544 444.057 56.024Z"/><path d="M541.275 15.32L529.371 83H510.459L515.259 55.832H492.411L487.611 83H468.699L480.699 15.32H499.515L495.003 40.856H517.947L522.459 15.32H541.275ZM604.747 29.144L595.147 83H576.331L577.675 75.32C575.563 77.752 572.971 79.736 569.899 81.272C566.891 82.744 563.563 83.48 559.915 83.48C554.603 83.48 550.475 81.976 547.531 78.968C544.587 75.96 543.115 71.768 543.115 66.392C543.115 64.536 543.307 62.552 543.691 60.44L549.163 29.144H567.979L562.891 58.04C562.699 58.872 562.603 59.704 562.603 60.536C562.603 62.84 563.275 64.664 564.619 66.008C565.963 67.288 567.787 67.928 570.091 67.928C572.779 67.928 575.051 67.096 576.907 65.432C578.763 63.768 580.011 61.464 580.651 58.52L585.835 29.144H604.747ZM632.927 36.632C634.783 34.136 637.183 32.152 640.127 30.68C643.135 29.208 646.463 28.472 650.111 28.472C655.743 28.472 660.255 30.328 663.647 34.04C667.103 37.752 668.831 42.84 668.831 49.304C668.831 51.352 668.639 53.592 668.255 56.024C667.231 61.592 665.343 66.488 662.591 70.712C659.839 74.872 656.511 78.072 652.607 80.312C648.767 82.552 644.703 83.672 640.415 83.672C636.703 83.672 633.631 82.968 631.199 81.56C628.831 80.088 627.135 78.072 626.111 75.512L624.767 83H605.855L618.431 11.96H637.343L632.927 36.632ZM649.055 56.024C649.247 55.064 649.343 54.136 649.343 53.24C649.343 50.616 648.575 48.568 647.039 47.096C645.567 45.624 643.647 44.888 641.279 44.888C638.527 44.888 635.999 45.88 633.695 47.864C631.455 49.848 630.047 52.568 629.471 56.024C629.279 56.984 629.183 57.88 629.183 58.712C629.183 61.4 629.919 63.512 631.391 65.048C632.927 66.52 634.879 67.256 637.247 67.256C640.063 67.256 642.591 66.264 644.831 64.28C647.071 62.232 648.479 59.48 649.055 56.024Z"/></mask><path fill="#F5EDED" d="M50.951 37.592C49.863 35.8 48.359 34.424 46.439 33.464C44.583 32.504 42.375 32.024 39.815 32.024C35.079 32.024 31.335 33.56 28.583 36.632C25.895 39.704 24.551 43.832 24.551 49.016C24.551 54.84 25.991 59.288 28.871 62.36C31.815 65.368 36.071 66.872 41.639 66.872C48.231 66.872 52.935 63.896 55.751 57.944H36.839V44.408H71.975V62.648C70.503 66.232 68.327 69.592 65.447 72.728C62.631 75.864 59.047 78.456 54.695 80.504C50.343 82.488 45.383 83.48 39.815 83.48C33.031 83.48 27.015 82.04 21.767 79.16C16.583 76.216 12.551 72.152 9.671 66.968C6.855 61.72 5.447 55.736 5.447 49.016C5.447 42.36 6.855 36.44 9.671 31.256C12.551 26.008 16.583 21.944 21.767 19.064C26.951 16.12 32.935 14.648 39.719 14.648C48.231 14.648 55.271 16.696 60.839 20.792C66.407 24.888 69.863 30.488 71.207 37.592H50.951ZM131.863 55.448C131.863 56.92 131.767 58.392 131.575 59.864H95.9593C96.1513 62.808 96.9513 65.016 98.3593 66.488C99.8313 67.896 101.687 68.6 103.927 68.6C107.063 68.6 109.303 67.192 110.647 64.376H130.711C129.879 68.088 128.247 71.416 125.815 74.36C123.447 77.24 120.439 79.512 116.791 81.176C113.143 82.84 109.111 83.672 104.695 83.672C99.3833 83.672 94.6473 82.552 90.4873 80.312C86.3913 78.072 83.1593 74.872 80.7913 70.712C78.4873 66.552 77.3353 61.656 77.3353 56.024C77.3353 50.392 78.4873 45.528 80.7913 41.432C83.0953 37.272 86.2953 34.072 90.3913 31.832C94.5513 29.592 99.3193 28.472 104.695 28.472C110.007 28.472 114.711 29.56 118.807 31.736C122.903 33.912 126.103 37.048 128.407 41.144C130.711 45.176 131.863 49.944 131.863 55.448ZM112.663 50.744C112.663 48.44 111.895 46.648 110.359 45.368C108.823 44.024 106.903 43.352 104.599 43.352C102.295 43.352 100.407 43.992 98.9353 45.272C97.4633 46.488 96.5033 48.312 96.0553 50.744H112.663ZM164.62 83.672C159.244 83.672 154.412 82.552 150.124 80.312C145.9 78.072 142.572 74.872 140.14 70.712C137.708 66.552 136.492 61.656 136.492 56.024C136.492 50.456 137.708 45.592 140.14 41.432C142.636 37.272 145.996 34.072 150.22 31.832C154.508 29.592 159.34 28.472 164.716 28.472C170.092 28.472 174.892 29.592 179.116 31.832C183.404 34.072 186.764 37.272 189.196 41.432C191.692 45.592 192.94 50.456 192.94 56.024C192.94 61.592 191.692 66.488 189.196 70.712C186.764 74.872 183.404 78.072 179.116 80.312C174.828 82.552 169.996 83.672 164.62 83.672ZM164.62 67.352C167.244 67.352 169.42 66.392 171.148 64.472C172.94 62.488 173.836 59.672 173.836 56.024C173.836 52.376 172.94 49.592 171.148 47.672C169.42 45.752 167.276 44.792 164.716 44.792C162.156 44.792 160.012 45.752 158.284 47.672C156.556 49.592 155.692 52.376 155.692 56.024C155.692 59.736 156.524 62.552 158.188 64.472C159.852 66.392 161.996 67.352 164.62 67.352ZM229.683 44.792H221.235V83H202.323V44.792H196.467V29.144H202.323V28.664C202.323 21.752 204.339 16.472 208.371 12.824C212.467 9.112 218.323 7.256 225.939 7.256C227.475 7.256 228.659 7.288 229.491 7.352V23.384C228.979 23.32 228.275 23.288 227.379 23.288C225.331 23.288 223.827 23.768 222.867 24.728C221.907 25.624 221.363 27.096 221.235 29.144H229.683V44.792ZM245.911 24.152C242.583 24.152 239.895 23.256 237.847 21.464C235.863 19.608 234.871 17.304 234.871 14.552C234.871 11.736 235.863 9.4 237.847 7.544C239.895 5.688 242.583 4.75999 245.911 4.75999C249.175 4.75999 251.799 5.688 253.783 7.544C255.831 9.4 256.855 11.736 256.855 14.552C256.855 17.304 255.831 19.608 253.783 21.464C251.799 23.256 249.175 24.152 245.911 24.152ZM255.223 29.144V83H236.407V29.144H255.223ZM288.883 83.672C284.019 83.672 279.667 82.872 275.827 81.272C272.051 79.608 269.043 77.368 266.803 74.552C264.627 71.672 263.411 68.44 263.155 64.856H281.395C281.651 66.584 282.451 67.928 283.795 68.888C285.139 69.848 286.803 70.328 288.786 70.328C290.323 70.328 291.539 70.008 292.435 69.368C293.331 68.728 293.779 67.896 293.779 66.872C293.779 65.528 293.043 64.536 291.571 63.896C290.099 63.256 287.667 62.552 284.275 61.784C280.435 61.016 277.235 60.152 274.674 59.192C272.115 58.232 269.875 56.664 267.955 54.488C266.099 52.312 265.171 49.368 265.171 45.656C265.171 42.456 266.035 39.576 267.763 37.016C269.491 34.392 272.019 32.312 275.347 30.776C278.739 29.24 282.803 28.472 287.539 28.472C294.579 28.472 300.115 30.2 304.147 33.656C308.179 37.112 310.515 41.656 311.155 47.288H294.163C293.843 45.56 293.075 44.248 291.859 43.352C290.707 42.392 289.139 41.912 287.155 41.912C285.619 41.912 284.435 42.2 283.603 42.776C282.835 43.352 282.451 44.152 282.451 45.176C282.451 46.456 283.187 47.448 284.659 48.152C286.131 48.792 288.499 49.464 291.763 50.168C295.667 51 298.899 51.928 301.459 52.952C304.083 53.976 306.355 55.64 308.275 57.944C310.259 60.184 311.25 63.256 311.25 67.16C311.25 70.296 310.323 73.112 308.467 75.608C306.675 78.104 304.083 80.088 300.691 81.56C297.363 82.968 293.427 83.672 288.883 83.672ZM330.005 24.152C326.677 24.152 323.989 23.256 321.941 21.464C319.957 19.608 318.965 17.304 318.965 14.552C318.965 11.736 319.957 9.4 321.941 7.544C323.989 5.688 326.677 4.75999 330.005 4.75999C333.269 4.75999 335.893 5.688 337.877 7.544C339.925 9.4 340.949 11.736 340.949 14.552C340.949 17.304 339.925 19.608 337.877 21.464C335.893 23.256 333.269 24.152 330.005 24.152ZM339.317 29.144V83H320.501V29.144H339.317ZM346.96 56.024C346.96 50.456 348.112 45.592 350.416 41.432C352.72 37.272 355.92 34.072 360.016 31.832C364.176 29.592 368.912 28.472 374.224 28.472C381.072 28.472 386.832 30.36 391.504 34.136C396.176 37.848 399.184 43.064 400.528 49.784H380.56C379.408 46.264 377.168 44.504 373.84 44.504C371.472 44.504 369.584 45.496 368.176 47.48C366.832 49.4 366.16 52.248 366.16 56.024C366.16 59.8 366.832 62.68 368.176 64.664C369.584 66.648 371.472 67.64 373.84 67.64C377.232 67.64 379.472 65.88 380.56 62.36H400.528C399.184 69.016 396.176 74.232 391.504 78.008C386.832 81.784 381.072 83.672 374.224 83.672C368.912 83.672 364.176 82.552 360.016 80.312C355.92 78.072 352.72 74.872 350.416 70.712C348.112 66.552 346.96 61.656 346.96 56.024ZM405.273 56.024C405.273 50.456 406.265 45.592 408.249 41.432C410.297 37.272 413.049 34.072 416.505 31.832C420.025 29.592 423.929 28.472 428.217 28.472C431.929 28.472 435.129 29.208 437.817 30.68C440.505 32.152 442.585 34.136 444.057 36.632V29.144H462.873V83H444.057V75.512C442.585 78.008 440.473 79.992 437.721 81.464C435.033 82.936 431.865 83.672 428.217 83.672C423.929 83.672 420.025 82.552 416.505 80.312C413.049 78.072 410.297 74.872 408.249 70.712C406.265 66.488 405.273 61.592 405.273 56.024ZM444.057 56.024C444.057 52.568 443.097 49.848 441.177 47.864C439.321 45.88 437.017 44.888 434.265 44.888C431.449 44.888 429.113 45.88 427.257 47.864C425.401 49.784 424.473 52.504 424.473 56.024C424.473 59.48 425.401 62.232 427.257 64.28C429.113 66.264 431.449 67.256 434.265 67.256C437.017 67.256 439.321 66.264 441.177 64.28C443.097 62.296 444.057 59.544 444.057 56.024Z"/><path fill="#1077BC" d="M541.275 15.32L529.371 83H510.459L515.259 55.832H492.411L487.611 83H468.699L480.699 15.32H499.515L495.003 40.856H517.947L522.459 15.32H541.275ZM604.747 29.144L595.147 83H576.331L577.675 75.32C575.563 77.752 572.971 79.736 569.899 81.272C566.891 82.744 563.563 83.48 559.915 83.48C554.603 83.48 550.475 81.976 547.531 78.968C544.587 75.96 543.115 71.768 543.115 66.392C543.115 64.536 543.307 62.552 543.691 60.44L549.163 29.144H567.979L562.891 58.04C562.699 58.872 562.603 59.704 562.603 60.536C562.603 62.84 563.275 64.664 564.619 66.008C565.963 67.288 567.787 67.928 570.091 67.928C572.779 67.928 575.051 67.096 576.907 65.432C578.763 63.768 580.011 61.464 580.651 58.52L585.835 29.144H604.747ZM632.927 36.632C634.783 34.136 637.183 32.152 640.127 30.68C643.135 29.208 646.463 28.472 650.111 28.472C655.743 28.472 660.255 30.328 663.647 34.04C667.103 37.752 668.831 42.84 668.831 49.304C668.831 51.352 668.639 53.592 668.255 56.024C667.231 61.592 665.343 66.488 662.591 70.712C659.839 74.872 656.511 78.072 652.607 80.312C648.767 82.552 644.703 83.672 640.415 83.672C636.703 83.672 633.631 82.968 631.199 81.56C628.831 80.088 627.135 78.072 626.111 75.512L624.767 83H605.855L618.431 11.96H637.343L632.927 36.632ZM649.055 56.024C649.247 55.064 649.343 54.136 649.343 53.24C649.343 50.616 648.575 48.568 647.039 47.096C645.567 45.624 643.647 44.888 641.279 44.888C638.527 44.888 635.999 45.88 633.695 47.864C631.455 49.848 630.047 52.568 629.471 56.024C629.279 56.984 629.183 57.88 629.183 58.712C629.183 61.4 629.919 63.512 631.391 65.048C632.927 66.52 634.879 67.256 637.247 67.256C640.063 67.256 642.591 66.264 644.831 64.28C647.071 62.232 648.479 59.48 649.055 56.024Z"/><path fill="#000" d="M50.951 37.592L48.3866 39.1489L49.2628 40.592H50.951V37.592ZM46.439 33.464L45.0607 36.1287L45.079 36.1381L45.0974 36.1473L46.439 33.464ZM28.583 36.632L26.3485 34.6303L26.3368 34.6433L26.3253 34.6565L28.583 36.632ZM28.871 62.36L26.6824 64.4118L26.7044 64.4353L26.727 64.4584L28.871 62.36ZM55.751 57.944L58.4628 59.227L60.4892 54.944H55.751V57.944ZM36.839 57.944H33.839V60.944H36.839V57.944ZM36.839 44.408V41.408H33.839V44.408H36.839ZM71.975 44.408H74.975V41.408H71.975V44.408ZM71.975 62.648L74.7501 63.7878L74.975 63.2401V62.648H71.975ZM65.447 72.728L63.2374 70.6988L63.2261 70.7111L63.2149 70.7236L65.447 72.728ZM54.695 80.504L55.9394 83.2337L55.956 83.2262L55.9724 83.2185L54.695 80.504ZM21.767 79.16L20.2855 81.7687L20.3045 81.7795L20.3237 81.79L21.767 79.16ZM9.671 66.968L7.02752 68.3865L7.03788 68.4058L7.04853 68.4249L9.671 66.968ZM9.671 31.256L7.04098 29.8127L7.03483 29.824L9.671 31.256ZM21.767 19.064L23.2239 21.6865L23.2362 21.6796L23.2485 21.6727L21.767 19.064ZM60.839 20.792L59.0613 23.2086L59.0613 23.2086L60.839 20.792ZM71.207 37.592V40.592H74.8278L74.1547 37.0343L71.207 37.592ZM53.5154 36.0351C52.1267 33.7479 50.1934 31.9871 47.7806 30.7807L45.0974 36.1473C46.5246 36.8609 47.5993 37.8521 48.3866 39.1489L53.5154 36.0351ZM47.8173 30.7993C45.4498 29.5748 42.7482 29.024 39.815 29.024V35.024C42.0018 35.024 43.7162 35.4332 45.0607 36.1287L47.8173 30.7993ZM39.815 29.024C34.3658 29.024 29.7566 30.8259 26.3485 34.6303L30.8175 38.6337C32.9134 36.2941 35.7922 35.024 39.815 35.024V29.024ZM26.3253 34.6565C23.0406 38.4104 21.551 43.3074 21.551 49.016H27.551C27.551 44.3566 28.7494 40.9976 30.8407 38.6075L26.3253 34.6565ZM21.551 49.016C21.551 55.3074 23.1095 60.6007 26.6824 64.4118L31.0596 60.3082C28.8725 57.9753 27.551 54.3726 27.551 49.016H21.551ZM26.727 64.4584C30.4002 68.2114 35.535 69.872 41.639 69.872V63.872C36.607 63.872 33.2298 62.5246 31.015 60.2616L26.727 64.4584ZM41.639 69.872C45.3968 69.872 48.8007 69.0189 51.7149 67.1752C54.6294 65.3314 56.8568 62.6216 58.4628 59.227L53.0392 56.661C51.8293 59.2184 50.2966 60.9726 48.5071 62.1048C46.7173 63.237 44.4732 63.872 41.639 63.872V69.872ZM55.751 54.944H36.839V60.944H55.751V54.944ZM39.839 57.944V44.408H33.839V57.944H39.839ZM36.839 47.408H71.975V41.408H36.839V47.408ZM68.975 44.408V62.648H74.975V44.408H68.975ZM69.1999 61.5082C67.8751 64.7338 65.9016 67.7978 63.2374 70.6988L67.6566 74.7572C70.7524 71.3862 73.1309 67.7302 74.7501 63.7878L69.1999 61.5082ZM63.2149 70.7236C60.7017 73.5224 57.458 75.8882 53.4176 77.7895L55.9724 83.2185C60.636 81.0238 64.5603 78.2056 67.6791 74.7324L63.2149 70.7236ZM53.4506 77.7743C49.5483 79.5533 45.0236 80.48 39.815 80.48V86.48C45.7424 86.48 51.1377 85.4227 55.9394 83.2337L53.4506 77.7743ZM39.815 80.48C33.4674 80.48 27.9598 79.1364 23.2103 76.53L20.3237 81.79C26.0702 84.9436 32.5946 86.48 39.815 86.48V80.48ZM23.2485 76.5513C18.5406 73.8777 14.9046 70.211 12.2935 65.5111L7.04853 68.4249C10.1974 74.093 14.6254 78.5543 20.2855 81.7687L23.2485 76.5513ZM12.3145 65.5495C9.76118 60.7911 8.447 55.3054 8.447 49.016H2.447C2.447 56.1666 3.94882 62.6489 7.02752 68.3865L12.3145 65.5495ZM8.447 49.016C8.447 42.7951 9.75918 37.3786 12.3072 32.688L7.03483 29.824C3.95082 35.5014 2.447 41.9249 2.447 49.016H8.447ZM12.301 32.6993C14.9117 27.9421 18.5392 24.2891 23.2239 21.6865L20.3101 16.4415C14.6268 19.5989 10.1903 24.0739 7.041 29.8127L12.301 32.6993ZM23.2485 21.6727C27.9215 19.0189 33.3816 17.648 39.719 17.648V11.648C32.4884 11.648 25.9805 13.2211 20.2855 16.4553L23.2485 21.6727ZM39.719 17.648C47.742 17.648 54.1179 19.572 59.0613 23.2086L62.6167 18.3754C56.4241 13.82 48.72 11.648 39.719 11.648V17.648ZM59.0613 23.2086C63.9881 26.8329 67.0491 31.7532 68.2593 38.1497L74.1547 37.0343C72.6769 29.2228 68.8259 22.9431 62.6167 18.3754L59.0613 23.2086ZM71.207 34.592H50.951V40.592H71.207V34.592ZM131.575 59.864V62.864H134.209L134.55 60.252L131.575 59.864ZM95.9593 59.864V56.864H92.7572L92.9656 60.0592L95.9593 59.864ZM98.3593 66.488L96.1913 68.5617L96.2374 68.6098L96.2856 68.6559L98.3593 66.488ZM110.647 64.376V61.376H108.755L107.94 63.0838L110.647 64.376ZM130.711 64.376L133.639 65.0321L134.458 61.376H130.711V64.376ZM125.815 74.36L123.502 72.4494L123.498 72.4547L125.815 74.36ZM116.791 81.176L118.036 83.9055L118.036 83.9055L116.791 81.176ZM90.4873 80.312L89.0478 82.9441L89.0564 82.9488L89.065 82.9534L90.4873 80.312ZM80.7913 70.712L78.1669 72.1655L78.1754 72.1808L78.1841 72.1961L80.7913 70.712ZM80.7913 41.432L83.406 42.9028L83.4108 42.8942L83.4156 42.8855L80.7913 41.432ZM90.3913 31.832L88.969 29.1906L88.9604 29.1952L88.9518 29.1999L90.3913 31.832ZM118.807 31.736L120.215 29.0866L120.215 29.0866L118.807 31.736ZM128.407 41.144L125.793 42.6148L125.797 42.6236L125.803 42.6324L128.407 41.144ZM112.663 50.744V53.744H115.663V50.744H112.663ZM110.359 45.368L108.384 47.6257L108.411 47.6495L108.439 47.6727L110.359 45.368ZM98.9353 45.272L100.846 47.5849L100.875 47.5607L100.904 47.5358L98.9353 45.272ZM96.0553 50.744L93.1049 50.2005L92.4521 53.744H96.0553V50.744ZM128.863 55.448C128.863 56.7892 128.776 58.1316 128.6 59.476L134.55 60.252C134.759 58.6524 134.863 57.0508 134.863 55.448H128.863ZM131.575 56.864H95.9593V62.864H131.575V56.864ZM92.9656 60.0592C93.1834 63.3987 94.1181 66.3942 96.1913 68.5617L100.527 64.4143C99.7844 63.6378 99.1191 62.2173 98.9529 59.6688L92.9656 60.0592ZM96.2856 68.6559C98.3738 70.6533 100.999 71.6 103.927 71.6V65.6C102.376 65.6 101.289 65.1387 100.433 64.3201L96.2856 68.6559ZM103.927 71.6C105.954 71.6 107.875 71.1403 109.556 70.0839C111.237 69.0269 112.483 67.4956 113.355 65.6682L107.94 63.0838C107.468 64.0724 106.921 64.6531 106.363 65.0041C105.803 65.3557 105.036 65.6 103.927 65.6V71.6ZM110.647 67.376H130.711V61.376H110.647V67.376ZM127.784 63.7199C127.056 66.9693 125.635 69.8679 123.502 72.4494L128.128 76.2706C130.86 72.9641 132.703 69.2067 133.639 65.0321L127.784 63.7199ZM123.498 72.4547C121.442 74.9558 118.811 76.9575 115.546 78.4465L118.036 83.9055C122.068 82.0665 125.453 79.5242 128.133 76.2653L123.498 72.4547ZM115.546 78.4465C112.327 79.9149 108.726 80.672 104.695 80.672V86.672C109.497 86.672 113.959 85.7651 118.036 83.9055L115.546 78.4465ZM104.695 80.672C99.8171 80.672 95.5804 79.6472 91.9096 77.6706L89.065 82.9534C93.7141 85.4568 98.9494 86.672 104.695 86.672V80.672ZM91.9267 77.6799C88.3317 75.7139 85.4985 72.9172 83.3984 69.2279L78.1841 72.1961C80.82 76.8268 84.4508 80.4301 89.0478 82.9441L91.9267 77.6799ZM83.4156 69.2585C81.3998 65.6188 80.3353 61.2414 80.3353 56.024H74.3353C74.3353 62.0706 75.5747 67.4852 78.1669 72.1655L83.4156 69.2585ZM80.3353 56.024C80.3353 50.8051 81.4003 46.4684 83.406 42.9028L78.1765 39.9612C75.5742 44.5876 74.3353 49.9789 74.3353 56.024H80.3353ZM83.4156 42.8855C85.4497 39.2129 88.2431 36.4261 91.8307 34.4641L88.9518 29.1999C84.3474 31.7179 80.7408 35.3311 78.1669 39.9785L83.4156 42.8855ZM91.8135 34.4734C95.4793 32.4995 99.7465 31.472 104.695 31.472V25.472C98.892 25.472 93.6232 26.6844 88.969 29.1906L91.8135 34.4734ZM104.695 31.472C109.588 31.472 113.797 32.4711 117.4 34.3853L120.215 29.0866C115.626 26.6489 110.426 25.472 104.695 25.472V31.472ZM117.4 34.3853C120.982 36.2883 123.766 39.012 125.793 42.6148L131.022 39.6732C128.441 35.084 124.825 31.5357 120.215 29.0866L117.4 34.3853ZM125.803 42.6324C127.803 46.1337 128.863 50.369 128.863 55.448H134.863C134.863 49.519 133.619 44.2183 131.012 39.6556L125.803 42.6324ZM115.663 50.744C115.663 47.7012 114.608 45.0037 112.28 43.0633L108.439 47.6727C109.182 48.2923 109.663 49.1788 109.663 50.744H115.663ZM112.335 43.1103C110.181 41.2257 107.53 40.352 104.599 40.352V46.352C106.277 46.352 107.466 46.8223 108.384 47.6257L112.335 43.1103ZM104.599 40.352C101.71 40.352 99.0805 41.1701 96.9667 43.0082L100.904 47.5358C101.734 46.8139 102.881 46.352 104.599 46.352V40.352ZM97.0246 42.9591C94.8652 44.743 93.6423 47.2832 93.1049 50.2005L99.0056 51.2875C99.3642 49.3408 100.061 48.233 100.846 47.5849L97.0246 42.9591ZM96.0553 53.744H112.663V47.744H96.0553V53.744ZM150.124 80.312L148.718 82.9624L148.726 82.9667L148.734 82.971L150.124 80.312ZM140.14 70.712L142.729 69.1979L142.729 69.1979L140.14 70.712ZM140.14 41.432L137.567 39.8885L137.558 39.9032L137.55 39.9179L140.14 41.432ZM150.22 31.832L148.83 29.1729L148.822 29.1773L148.814 29.1816L150.22 31.832ZM179.116 31.832L177.71 34.4824L177.718 34.4867L177.726 34.491L179.116 31.832ZM189.196 41.432L186.606 42.9461L186.614 42.9608L186.623 42.9755L189.196 41.432ZM189.196 70.712L186.613 69.1858L186.606 69.1979L189.196 70.712ZM179.116 80.312L177.726 77.653L179.116 80.312ZM171.148 64.472L168.921 62.4611L168.918 62.4651L171.148 64.472ZM171.148 47.672L168.918 49.6789L168.936 49.6991L168.954 49.719L171.148 47.672ZM158.188 64.472L155.92 66.4368L155.92 66.4368L158.188 64.472ZM164.62 80.672C159.673 80.672 155.326 79.645 151.513 77.653L148.734 82.971C153.497 85.459 158.814 86.672 164.62 86.672V80.672ZM151.529 77.6616C147.802 75.6851 144.882 72.8804 142.729 69.1979L137.55 72.2261C140.261 76.8636 143.997 80.4589 148.718 82.9624L151.529 77.6616ZM142.729 69.1979C140.608 65.5698 139.492 61.2146 139.492 56.024H133.492C133.492 62.0974 134.807 67.5342 137.55 72.2261L142.729 69.1979ZM139.492 56.024C139.492 50.9043 140.605 46.5793 142.729 42.9461L137.55 39.9179C134.81 44.6047 133.492 50.0077 133.492 56.024H139.492ZM142.712 42.9755C144.931 39.2766 147.891 36.4626 151.625 34.4824L148.814 29.1816C144.1 31.6814 140.34 35.2674 137.567 39.8885L142.712 42.9755ZM151.609 34.491C155.422 32.499 159.769 31.472 164.716 31.472V25.472C158.91 25.472 153.593 26.685 148.83 29.1729L151.609 34.491ZM164.716 31.472C169.663 31.472 173.97 32.4993 177.71 34.4824L180.521 29.1816C175.813 26.6847 170.52 25.472 164.716 25.472V31.472ZM177.726 34.491C181.517 36.471 184.459 39.2751 186.606 42.9461L191.785 39.9179C189.068 35.2689 185.29 31.673 180.505 29.1729L177.726 34.491ZM186.623 42.9755C188.8 46.6038 189.94 50.918 189.94 56.024H195.94C195.94 49.994 194.583 44.5802 191.768 39.8885L186.623 42.9755ZM189.94 56.024C189.94 61.129 188.8 65.4837 186.613 69.1858L191.778 72.2382C194.583 67.4923 195.94 62.055 195.94 56.024H189.94ZM186.606 69.1979C184.459 72.8689 181.517 75.673 177.726 77.653L180.505 82.971C185.29 80.471 189.068 76.8751 191.785 72.2261L186.606 69.1979ZM177.726 77.653C173.913 79.645 169.566 80.672 164.62 80.672V86.672C170.425 86.672 175.742 85.459 180.505 82.971L177.726 77.653ZM164.62 70.352C168.079 70.352 171.07 69.0424 173.377 66.4789L168.918 62.4651C167.769 63.7416 166.408 64.352 164.62 64.352V70.352ZM173.374 66.4829C175.821 63.7737 176.836 60.1417 176.836 56.024H170.836C170.836 59.2023 170.058 61.2023 168.921 62.4611L173.374 66.4829ZM176.836 56.024C176.836 51.9139 175.824 48.2855 173.341 45.625L168.954 49.719C170.055 50.8985 170.836 52.8381 170.836 56.024H176.836ZM173.377 45.6651C171.086 43.1195 168.135 41.792 164.716 41.792V47.792C166.416 47.792 167.753 48.3845 168.918 49.6789L173.377 45.6651ZM164.716 41.792C161.296 41.792 158.345 43.1195 156.054 45.6651L160.513 49.6789C161.678 48.3845 163.015 47.792 164.716 47.792V41.792ZM156.054 45.6651C153.658 48.3266 152.692 51.9392 152.692 56.024H158.692C158.692 52.8128 159.453 50.8574 160.513 49.6789L156.054 45.6651ZM152.692 56.024C152.692 60.1323 153.607 63.7675 155.92 66.4368L160.455 62.5072C159.44 61.3365 158.692 59.3397 158.692 56.024H152.692ZM155.92 66.4368C158.175 69.0385 161.158 70.352 164.62 70.352V64.352C162.833 64.352 161.528 63.7455 160.455 62.5072L155.92 66.4368ZM229.683 44.792V47.792H232.683V44.792H229.683ZM221.235 44.792V41.792H218.235V44.792H221.235ZM221.235 83V86H224.235V83H221.235ZM202.323 83H199.323V86H202.323V83ZM202.323 44.792H205.323V41.792H202.323V44.792ZM196.467 44.792H193.467V47.792H196.467V44.792ZM196.467 29.144V26.144H193.467V29.144H196.467ZM202.323 29.144V32.144H205.323V29.144H202.323ZM208.371 12.824L210.383 15.0486L210.385 15.047L208.371 12.824ZM229.491 7.352H232.491V4.5739L229.721 4.36083L229.491 7.352ZM229.491 23.384L229.119 26.3608L232.491 26.7823V23.384H229.491ZM222.867 24.728L224.914 26.9212L224.952 26.8859L224.988 26.8493L222.867 24.728ZM221.235 29.144L218.241 28.9569L218.041 32.144H221.235V29.144ZM229.683 29.144H232.683V26.144H229.683V29.144ZM229.683 41.792H221.235V47.792H229.683V41.792ZM218.235 44.792V83H224.235V44.792H218.235ZM221.235 80H202.323V86H221.235V80ZM205.323 83V44.792H199.323V83H205.323ZM202.323 41.792H196.467V47.792H202.323V41.792ZM199.467 44.792V29.144H193.467V44.792H199.467ZM196.467 32.144H202.323V26.144H196.467V32.144ZM205.323 29.144V28.664H199.323V29.144H205.323ZM205.323 28.664C205.323 22.3543 207.142 17.9818 210.383 15.0486L206.358 10.5994C201.536 14.9622 199.323 21.1497 199.323 28.664H205.323ZM210.385 15.047C213.751 11.9971 218.784 10.256 225.939 10.256V4.256C217.861 4.256 211.183 6.22685 206.356 10.601L210.385 15.047ZM225.939 10.256C227.45 10.256 228.544 10.288 229.261 10.3432L229.721 4.36083C228.774 4.28797 227.499 4.256 225.939 4.256V10.256ZM226.491 7.352V23.384H232.491V7.352H226.491ZM229.863 20.4072C229.17 20.3205 228.323 20.288 227.379 20.288V26.288C228.227 26.288 228.788 26.3195 229.119 26.3608L229.863 20.4072ZM227.379 20.288C224.934 20.288 222.498 20.8538 220.745 22.6067L224.988 26.8493C225.155 26.6822 225.727 26.288 227.379 26.288V20.288ZM220.82 22.5348C219.055 24.1816 218.39 26.5587 218.241 28.9569L224.229 29.3311C224.335 27.6333 224.758 27.0664 224.914 26.9212L220.82 22.5348ZM221.235 32.144H229.683V26.144H221.235V32.144ZM226.683 29.144V44.792H232.683V29.144H226.683ZM237.847 21.464L235.798 23.6548L235.834 23.6889L235.872 23.7217L237.847 21.464ZM237.847 7.544L235.833 5.32104L235.815 5.33697L235.798 5.35318L237.847 7.544ZM253.783 7.544L251.734 9.73481L251.751 9.75102L251.769 9.76696L253.783 7.544ZM253.783 21.464L255.794 23.6903L255.798 23.687L253.783 21.464ZM255.223 29.144H258.223V26.144H255.223V29.144ZM255.223 83V86H258.223V83H255.223ZM236.407 83H233.407V86H236.407V83ZM236.407 29.144V26.144H233.407V29.144H236.407ZM245.911 21.152C243.141 21.152 241.209 20.4191 239.823 19.2063L235.872 23.7217C238.582 26.0929 242.026 27.152 245.911 27.152V21.152ZM239.897 19.2732C238.528 17.9927 237.871 16.4859 237.871 14.552H231.871C231.871 18.1221 233.199 21.2233 235.798 23.6548L239.897 19.2732ZM237.871 14.552C237.871 12.5321 238.544 11.0006 239.897 9.73481L235.798 5.35318C233.183 7.7994 231.871 10.9399 231.871 14.552H237.871ZM239.862 9.76696C241.25 8.50903 243.168 7.75999 245.911 7.75999V1.75999C241.999 1.75999 238.541 2.86696 235.833 5.32104L239.862 9.76696ZM245.911 7.75999C248.577 7.75999 250.414 8.49995 251.734 9.73481L255.833 5.35319C253.185 2.87604 249.774 1.75999 245.911 1.75999V7.75999ZM251.769 9.76696C253.176 11.0422 253.855 12.5647 253.855 14.552H259.855C259.855 10.9073 258.487 7.75783 255.798 5.32104L251.769 9.76696ZM253.855 14.552C253.855 16.453 253.192 17.9509 251.769 19.241L255.798 23.687C258.47 21.2651 259.855 18.155 259.855 14.552H253.855ZM251.772 19.2377C250.455 20.4273 248.604 21.152 245.911 21.152V27.152C249.746 27.152 253.143 26.0847 255.794 23.6903L251.772 19.2377ZM252.223 29.144V83H258.223V29.144H252.223ZM255.223 80H236.407V86H255.223V80ZM239.407 83V29.144H233.407V83H239.407ZM236.407 32.144H255.223V26.144H236.407V32.144ZM275.827 81.272L274.617 84.0173L274.645 84.0295L274.673 84.0412L275.827 81.272ZM266.803 74.552L264.409 76.3605L264.431 76.3903L264.455 76.4196L266.803 74.552ZM263.155 64.856V61.856H259.933L260.162 65.0697L263.155 64.856ZM281.395 64.856L284.362 64.4164L283.983 61.856H281.395V64.856ZM291.571 63.896L292.767 61.1448L292.767 61.1448L291.571 63.896ZM284.275 61.784L284.937 58.8581L284.9 58.8497L284.863 58.8423L284.275 61.784ZM274.674 59.192L273.621 62.001L273.621 62.001L274.674 59.192ZM267.955 54.488L265.672 56.4348L265.688 56.454L265.705 56.4729L267.955 54.488ZM267.763 37.016L270.249 38.6944L270.259 38.6802L270.268 38.666L267.763 37.016ZM275.347 30.776L274.109 28.0431L274.099 28.0476L274.089 28.0521L275.347 30.776ZM304.147 33.656L302.194 35.9338L302.194 35.9338L304.147 33.656ZM311.155 47.288V50.288H314.515L314.135 46.9493L311.155 47.288ZM294.163 47.288L291.213 47.8343L291.667 50.288H294.163V47.288ZM291.859 43.352L289.938 45.6567L290.007 45.714L290.079 45.7672L291.859 43.352ZM283.603 42.776L281.895 40.3094L281.848 40.3418L281.802 40.376L283.603 42.776ZM284.659 48.152L283.364 50.8584L283.413 50.8817L283.462 50.9032L284.659 48.152ZM291.763 50.168L291.13 53.1006L291.137 53.1021L291.763 50.168ZM301.459 52.952L300.344 55.7374L300.356 55.7421L300.368 55.7467L301.459 52.952ZM308.275 57.944L305.97 59.8646L305.999 59.8993L306.029 59.9331L308.275 57.944ZM308.467 75.608L306.059 73.8179L306.044 73.838L306.03 73.8584L308.467 75.608ZM300.691 81.56L301.859 84.3229L301.872 84.3175L301.885 84.312L300.691 81.56ZM288.883 80.672C284.348 80.672 280.398 79.9269 276.98 78.5028L274.673 84.0412C278.935 85.8171 283.689 86.672 288.883 86.672V80.672ZM277.036 78.5267C273.639 77.0298 271.046 75.0675 269.15 72.6844L264.455 76.4196C267.039 79.6685 270.462 82.1862 274.617 84.0173L277.036 78.5267ZM269.196 72.7435C267.368 70.3238 266.361 67.6452 266.147 64.6423L260.162 65.0697C260.46 69.2348 261.885 73.0202 264.409 76.3605L269.196 72.7435ZM263.155 67.856H281.395V61.856H263.155V67.856ZM278.427 65.2956C278.795 67.7774 280.003 69.8662 282.051 71.3292L285.538 66.4468C284.898 65.9898 284.506 65.3906 284.362 64.4164L278.427 65.2956ZM282.051 71.3292C283.999 72.7209 286.306 73.328 288.786 73.328V67.328C287.299 67.328 286.278 66.9751 285.538 66.4468L282.051 71.3292ZM288.786 73.328C290.708 73.328 292.608 72.9309 294.178 71.8092L290.691 66.9268C290.469 67.0851 289.937 67.328 288.786 67.328V73.328ZM294.178 71.8092C295.793 70.6558 296.779 68.9473 296.779 66.872H290.779C290.779 66.908 290.775 66.9146 290.778 66.9001C290.782 66.8844 290.79 66.8627 290.801 66.8417C290.812 66.8213 290.818 66.8172 290.807 66.8292C290.795 66.8423 290.761 66.8767 290.691 66.9268L294.178 71.8092ZM296.779 66.872C296.779 65.6162 296.422 64.3916 295.636 63.3325C294.875 62.3064 293.844 61.6131 292.767 61.1448L290.374 66.6472C290.769 66.8189 290.842 66.9416 290.817 66.9075C290.804 66.8898 290.788 66.8608 290.779 66.8315C290.771 66.8049 290.779 66.8122 290.779 66.872H296.779ZM292.767 61.1448C291.019 60.3847 288.351 59.6311 284.937 58.8581L283.612 64.7099C286.982 65.4729 289.178 66.1273 290.374 66.6472L292.767 61.1448ZM284.863 58.8423C281.12 58.0936 278.087 57.2679 275.728 56.383L273.621 62.001C276.382 63.0361 279.749 63.9384 283.686 64.7257L284.863 58.8423ZM275.728 56.383C273.656 55.6062 271.819 54.3339 270.204 52.5031L265.705 56.4729C267.93 58.9941 270.573 60.8578 273.621 62.001L275.728 56.383ZM270.237 52.5412C268.968 51.0529 268.171 48.871 268.171 45.656H262.171C262.171 49.865 263.229 53.5711 265.672 56.4348L270.237 52.5412ZM268.171 45.656C268.171 43.0313 268.868 40.74 270.249 38.6944L265.276 35.3376C263.201 38.412 262.171 41.8807 262.171 45.656H268.171ZM270.268 38.666C271.64 36.5827 273.698 34.8411 276.604 33.4999L274.089 28.0521C270.339 29.7829 267.341 32.2013 265.257 35.366L270.268 38.666ZM276.584 33.5089C279.497 32.1899 283.117 31.472 287.539 31.472V25.472C282.488 25.472 277.98 26.2901 274.109 28.0431L276.584 33.5089ZM287.539 31.472C294.098 31.472 298.862 33.0774 302.194 35.9338L306.099 31.3782C301.367 27.3226 295.059 25.472 287.539 25.472V31.472ZM302.194 35.9338C305.61 38.8613 307.613 42.6922 308.174 47.6267L314.135 46.9493C313.416 40.6198 310.747 35.3627 306.099 31.3782L302.194 35.9338ZM311.155 44.288H294.163V50.288H311.155V44.288ZM297.112 46.7417C296.678 44.3958 295.567 42.3579 293.638 40.9368L290.079 45.7672C290.582 46.1381 291.007 46.7242 291.213 47.8343L297.112 46.7417ZM293.779 41.0473C291.935 39.5106 289.612 38.912 287.155 38.912V44.912C288.665 44.912 289.478 45.2734 289.938 45.6567L293.779 41.0473ZM287.155 38.912C285.305 38.912 283.427 39.2488 281.895 40.3094L285.31 45.2426C285.442 45.1511 285.932 44.912 287.155 44.912V38.912ZM281.802 40.376C280.222 41.5611 279.451 43.281 279.451 45.176H285.451C285.451 45.1075 285.457 45.074 285.458 45.068C285.459 45.065 285.458 45.0677 285.456 45.0751C285.453 45.0827 285.449 45.0933 285.443 45.1062C285.437 45.1191 285.43 45.1322 285.421 45.1449C285.413 45.1575 285.405 45.1679 285.399 45.1758C285.385 45.1924 285.382 45.1913 285.403 45.176L281.802 40.376ZM279.451 45.176C279.451 47.9485 281.193 49.8201 283.364 50.8584L285.953 45.4456C285.742 45.3448 285.605 45.2559 285.52 45.1908C285.478 45.1588 285.451 45.1338 285.434 45.1172C285.426 45.1089 285.42 45.1026 285.417 45.0986C285.415 45.0965 285.414 45.095 285.413 45.094C285.412 45.093 285.412 45.0925 285.412 45.0925C285.412 45.0925 285.412 45.0929 285.413 45.0939C285.413 45.0948 285.414 45.0962 285.415 45.098C285.418 45.1016 285.421 45.1066 285.424 45.113C285.431 45.1262 285.437 45.1415 285.442 45.1575C285.454 45.1929 285.451 45.2047 285.451 45.176H279.451ZM283.462 50.9032C285.221 51.668 287.833 52.3895 291.13 53.1006L292.395 47.2354C289.164 46.5385 287.04 45.916 285.855 45.4008L283.462 50.9032ZM291.137 53.1021C294.941 53.9128 297.996 54.798 300.344 55.7374L302.573 50.1666C299.801 49.058 296.392 48.0872 292.388 47.2339L291.137 53.1021ZM300.368 55.7467C302.489 56.5746 304.353 57.9238 305.97 59.8646L310.579 56.0234C308.356 53.3562 305.676 51.3774 302.549 50.1573L300.368 55.7467ZM306.029 59.9331C307.394 61.4747 308.25 63.7606 308.25 67.16H314.25C314.25 62.7514 313.123 58.8933 310.52 55.9549L306.029 59.9331ZM308.25 67.16C308.25 69.6568 307.527 71.844 306.059 73.8179L310.874 77.3981C313.118 74.38 314.25 70.9352 314.25 67.16H308.25ZM306.03 73.8584C304.612 75.8322 302.492 77.5077 299.496 78.808L301.885 84.312C305.673 82.6683 308.737 80.3758 310.903 77.3576L306.03 73.8584ZM299.522 78.7971C296.645 80.0139 293.125 80.672 288.883 80.672V86.672C293.728 86.672 298.08 85.9221 301.859 84.3229L299.522 78.7971ZM321.941 21.464L319.892 23.6548L319.928 23.6889L319.965 23.7217L321.941 21.464ZM321.941 7.544L319.926 5.32104L319.909 5.33697L319.892 5.35318L321.941 7.544ZM337.877 7.544L335.828 9.73481L335.845 9.75102L335.862 9.76696L337.877 7.544ZM337.877 21.464L339.888 23.6903L339.892 23.687L337.877 21.464ZM339.317 29.144H342.317V26.144H339.317V29.144ZM339.317 83V86H342.317V83H339.317ZM320.501 83H317.501V86H320.501V83ZM320.501 29.144V26.144H317.501V29.144H320.501ZM330.005 21.152C327.235 21.152 325.303 20.4191 323.917 19.2063L319.965 23.7217C322.675 26.0929 326.119 27.152 330.005 27.152V21.152ZM323.99 19.2732C322.622 17.9927 321.965 16.4859 321.965 14.552H315.965C315.965 18.1221 317.292 21.2233 319.892 23.6548L323.99 19.2732ZM321.965 14.552C321.965 12.5321 322.637 11.0006 323.99 9.73481L319.892 5.35318C317.277 7.7994 315.965 10.9399 315.965 14.552H321.965ZM323.956 9.76696C325.344 8.50903 327.262 7.75999 330.005 7.75999V1.75999C326.092 1.75999 322.634 2.86696 319.926 5.32104L323.956 9.76696ZM330.005 7.75999C332.67 7.75999 334.508 8.49995 335.828 9.73481L339.926 5.35319C337.279 2.87604 333.868 1.75999 330.005 1.75999V7.75999ZM335.862 9.76696C337.27 11.0422 337.949 12.5647 337.949 14.552H343.949C343.949 10.9073 342.58 7.75783 339.892 5.32104L335.862 9.76696ZM337.949 14.552C337.949 16.453 337.286 17.9509 335.862 19.241L339.892 23.687C342.564 21.2651 343.949 18.155 343.949 14.552H337.949ZM335.866 19.2377C334.549 20.4273 332.698 21.152 330.005 21.152V27.152C333.84 27.152 337.237 26.0847 339.888 23.6903L335.866 19.2377ZM336.317 29.144V83H342.317V29.144H336.317ZM339.317 80H320.501V86H339.317V80ZM323.501 83V29.144H317.501V83H323.501ZM320.501 32.144H339.317V26.144H320.501V32.144ZM350.416 41.432L353.041 42.8855L353.041 42.8855L350.416 41.432ZM360.016 31.832L358.594 29.1906L358.585 29.1952L358.577 29.1999L360.016 31.832ZM391.504 34.136L389.618 36.4692L389.628 36.4771L389.638 36.4849L391.504 34.136ZM400.528 49.784V52.784H404.188L403.47 49.1957L400.528 49.784ZM380.56 49.784L377.709 50.7171L378.385 52.784H380.56V49.784ZM368.176 47.48L365.73 45.7438L365.724 45.7517L365.719 45.7596L368.176 47.48ZM368.176 64.664L365.692 66.3465L365.711 66.3736L365.73 66.4002L368.176 64.664ZM380.56 62.36V59.36H378.347L377.694 61.4741L380.56 62.36ZM400.528 62.36L403.469 62.9538L404.195 59.36H400.528V62.36ZM391.504 78.008L393.39 80.3412L393.39 80.3412L391.504 78.008ZM360.016 80.312L358.577 82.9441L358.585 82.9488L358.594 82.9534L360.016 80.312ZM350.416 70.712L353.041 69.2585L353.041 69.2585L350.416 70.712ZM349.96 56.024C349.96 50.8772 351.022 46.5301 353.041 42.8855L347.792 39.9785C345.202 44.6539 343.96 50.0348 343.96 56.024H349.96ZM353.041 42.8855C355.075 39.2129 357.868 36.4261 361.456 34.4641L358.577 29.1999C353.972 31.7179 350.366 35.3311 347.792 39.9785L353.041 42.8855ZM361.439 34.4734C365.109 32.4968 369.346 31.472 374.224 31.472V25.472C368.478 25.472 363.243 26.6872 358.594 29.1906L361.439 34.4734ZM374.224 31.472C380.487 31.472 385.554 33.1843 389.618 36.4692L393.39 31.8028C388.11 27.5357 381.657 25.472 374.224 25.472V31.472ZM389.638 36.4849C393.673 39.6909 396.36 44.2386 397.587 50.3723L403.47 49.1957C402.009 41.8894 398.679 36.0051 393.37 31.7871L389.638 36.4849ZM400.528 46.784H380.56V52.784H400.528V46.784ZM383.411 48.8509C382.706 46.6947 381.577 44.8067 379.87 43.465C378.135 42.1023 376.058 41.504 373.84 41.504V47.504C374.95 47.504 375.657 47.7857 376.163 48.183C376.695 48.6013 377.263 49.3533 377.709 50.7171L383.411 48.8509ZM373.84 41.504C370.469 41.504 367.682 42.9928 365.73 45.7438L370.623 49.2162C371.486 47.9992 372.476 47.504 373.84 47.504V41.504ZM365.719 45.7596C363.865 48.4071 363.16 51.9771 363.16 56.024H369.16C369.16 52.5189 369.799 50.3929 370.634 49.2004L365.719 45.7596ZM363.16 56.024C363.16 60.0816 363.869 63.6554 365.692 66.3465L370.66 62.9815C369.795 61.7046 369.16 59.5184 369.16 56.024H363.16ZM365.73 66.4002C367.682 69.1512 370.469 70.64 373.84 70.64V64.64C372.476 64.64 371.486 64.1448 370.623 62.9278L365.73 66.4002ZM373.84 70.64C376.076 70.64 378.173 70.0495 379.918 68.679C381.64 67.3256 382.755 65.4185 383.426 63.2459L377.694 61.4741C377.278 62.8215 376.728 63.5544 376.211 63.961C375.715 64.3505 374.997 64.64 373.84 64.64V70.64ZM380.56 65.36H400.528V59.36H380.56V65.36ZM397.588 61.7662C396.363 67.832 393.676 72.3952 389.618 75.6748L393.39 80.3412C398.676 76.0688 402.006 70.2 403.469 62.9538L397.588 61.7662ZM389.618 75.6748C385.554 78.9597 380.487 80.672 374.224 80.672V86.672C381.657 86.672 388.11 84.6083 393.39 80.3412L389.618 75.6748ZM374.224 80.672C369.346 80.672 365.109 79.6472 361.439 77.6706L358.594 82.9534C363.243 85.4568 368.478 86.672 374.224 86.672V80.672ZM361.456 77.6799C357.868 75.7179 355.075 72.9311 353.041 69.2585L347.792 72.1655C350.366 76.8129 353.972 80.4261 358.577 82.9441L361.456 77.6799ZM353.041 69.2585C351.025 65.6188 349.96 61.2414 349.96 56.024H343.96C343.96 62.0706 345.2 67.4852 347.792 72.1655L353.041 69.2585ZM408.249 41.432L405.557 40.1069L405.549 40.1237L405.541 40.1406L408.249 41.432ZM416.505 31.832L414.894 29.301L414.884 29.3077L414.873 29.3145L416.505 31.832ZM437.817 30.68L436.376 33.3113L436.376 33.3113L437.817 30.68ZM444.057 36.632L441.473 38.156L447.057 47.6246V36.632H444.057ZM444.057 29.144V26.144H441.057V29.144H444.057ZM462.873 29.144H465.873V26.144H462.873V29.144ZM462.873 83V86H465.873V83H462.873ZM444.057 83H441.057V86H444.057V83ZM444.057 75.512H447.057V64.5194L441.473 73.988L444.057 75.512ZM437.721 81.464L436.306 78.8186L436.293 78.8256L436.28 78.8327L437.721 81.464ZM416.505 80.312L414.873 82.8295L414.884 82.8363L414.894 82.843L416.505 80.312ZM408.249 70.712L405.533 71.9874L405.545 72.0123L405.557 72.0371L408.249 70.712ZM441.177 47.864L438.986 49.9135L439.003 49.932L439.021 49.9503L441.177 47.864ZM427.257 47.864L429.414 49.9491L429.431 49.9314L429.448 49.9135L427.257 47.864ZM427.257 64.28L425.034 66.2946L425.05 66.3121L425.066 66.3295L427.257 64.28ZM441.177 64.28L439.021 62.1937L439.003 62.212L438.986 62.2305L441.177 64.28ZM408.273 56.024C408.273 50.8113 409.201 46.4049 410.957 42.7234L405.541 40.1406C403.329 44.7791 402.273 50.1007 402.273 56.024H408.273ZM410.94 42.757C412.78 39.0203 415.19 36.2592 418.136 34.3495L414.873 29.3145C410.907 31.8848 407.814 35.5237 405.557 40.1069L410.94 42.757ZM418.115 34.363C421.14 32.4381 424.483 31.472 428.217 31.472V25.472C423.375 25.472 418.909 26.7458 414.894 29.301L418.115 34.363ZM428.217 31.472C431.531 31.472 434.214 32.1273 436.376 33.3113L439.258 28.0487C436.044 26.2887 432.327 25.472 428.217 25.472V31.472ZM436.376 33.3113C438.618 34.5394 440.291 36.1524 441.473 38.156L446.641 35.108C444.878 32.1196 442.391 29.7646 439.258 28.0487L436.376 33.3113ZM447.057 36.632V29.144H441.057V36.632H447.057ZM444.057 32.144H462.873V26.144H444.057V32.144ZM459.873 29.144V83H465.873V29.144H459.873ZM462.873 80H444.057V86H462.873V80ZM447.057 83V75.512H441.057V83H447.057ZM441.473 73.988C440.302 75.9736 438.611 77.5854 436.306 78.8186L439.136 84.1094C442.334 82.3986 444.868 80.0424 446.641 77.036L441.473 73.988ZM436.28 78.8327C434.111 80.0206 431.457 80.672 428.217 80.672V86.672C432.273 86.672 435.955 85.8514 439.162 84.0953L436.28 78.8327ZM428.217 80.672C424.483 80.672 421.14 79.7059 418.115 77.781L414.894 82.843C418.909 85.3981 423.375 86.672 428.217 86.672V80.672ZM418.136 77.7945C415.19 75.8848 412.78 73.1237 410.94 69.3869L405.557 72.0371C407.814 76.6203 410.907 80.2592 414.873 82.8295L418.136 77.7945ZM410.964 69.4366C409.2 65.6813 408.273 61.2352 408.273 56.024H402.273C402.273 61.9488 403.329 67.2947 405.533 71.9874L410.964 69.4366ZM447.057 56.024C447.057 51.9953 445.922 48.4536 443.333 45.7777L439.021 49.9503C440.271 51.2424 441.057 53.1407 441.057 56.024H447.057ZM443.368 45.8145C440.936 43.2153 437.835 41.888 434.265 41.888V47.888C436.199 47.888 437.705 48.5447 438.986 49.9135L443.368 45.8145ZM434.265 41.888C430.653 41.888 427.512 43.1996 425.066 45.8145L429.448 49.9135C430.713 48.5604 432.245 47.888 434.265 47.888V41.888ZM425.1 45.7789C422.548 48.4184 421.473 51.9814 421.473 56.024H427.473C427.473 53.0266 428.253 51.1496 429.414 49.9491L425.1 45.7789ZM421.473 56.024C421.473 60.0306 422.561 63.5661 425.034 66.2946L429.48 62.2654C428.24 60.8979 427.473 58.9294 427.473 56.024H421.473ZM425.066 66.3295C427.512 68.9444 430.653 70.256 434.265 70.256V64.256C432.245 64.256 430.713 63.5836 429.448 62.2305L425.066 66.3295ZM434.265 70.256C437.835 70.256 440.936 68.9287 443.368 66.3295L438.986 62.2305C437.705 63.5993 436.199 64.256 434.265 64.256V70.256ZM443.333 66.3663C445.932 63.6804 447.057 60.0991 447.057 56.024H441.057C441.057 58.9889 440.262 60.9116 439.021 62.1937L443.333 66.3663ZM541.275 15.32L544.229 15.8397L544.848 12.32H541.275V15.32ZM529.371 83V86H531.889L532.325 83.5197L529.371 83ZM510.459 83L507.505 82.478L506.882 86H510.459V83ZM515.259 55.832L518.213 56.3539L518.835 52.832H515.259V55.832ZM492.411 55.832V52.832H489.894L489.457 55.31L492.411 55.832ZM487.611 83V86H490.127L490.565 83.522L487.611 83ZM468.699 83L465.745 82.4763L465.12 86H468.699V83ZM480.699 15.32V12.32H478.184L477.745 14.7962L480.699 15.32ZM499.515 15.32L502.469 15.842L503.091 12.32H499.515V15.32ZM495.003 40.856L492.049 40.334L491.426 43.856H495.003V40.856ZM517.947 40.856V43.856H520.463L520.901 41.378L517.947 40.856ZM522.459 15.32V12.32H519.942L519.505 14.798L522.459 15.32ZM538.32 14.8003L526.416 82.4803L532.325 83.5197L544.229 15.8397L538.32 14.8003ZM529.371 80H510.459V86H529.371V80ZM513.413 83.522L518.213 56.3539L512.305 55.31L507.505 82.478L513.413 83.522ZM515.259 52.832H492.411V58.832H515.259V52.832ZM489.457 55.31L484.657 82.478L490.565 83.522L495.365 56.3539L489.457 55.31ZM487.611 80H468.699V86H487.611V80ZM471.653 83.5237L483.653 15.8437L477.745 14.7962L465.745 82.4763L471.653 83.5237ZM480.699 18.32H499.515V12.32H480.699V18.32ZM496.561 14.798L492.049 40.334L497.957 41.378L502.469 15.842L496.561 14.798ZM495.003 43.856H517.947V37.856H495.003V43.856ZM520.901 41.378L525.413 15.842L519.505 14.798L514.993 40.334L520.901 41.378ZM522.459 18.32H541.275V12.32H522.459V18.32ZM604.747 29.144L607.7 29.6705L608.329 26.144H604.747V29.144ZM595.147 83V86H597.659L598.1 83.5265L595.147 83ZM576.331 83L573.375 82.4829L572.76 86H576.331V83ZM577.675 75.32L580.63 75.8371L582.491 65.1978L575.409 73.3529L577.675 75.32ZM569.899 81.272L571.217 83.9666L571.229 83.961L571.24 83.9553L569.899 81.272ZM547.531 78.968L549.675 76.8696L549.675 76.8696L547.531 78.968ZM543.691 60.44L546.642 60.9767L546.644 60.9667L546.646 60.9567L543.691 60.44ZM549.163 29.144V26.144H546.642L546.207 28.6273L549.163 29.144ZM567.979 29.144L570.933 29.6642L571.553 26.144H567.979V29.144ZM562.891 58.04L565.814 58.7146L565.831 58.6378L565.845 58.5602L562.891 58.04ZM564.619 66.008L562.497 68.1293L562.523 68.1552L562.55 68.1804L564.619 66.008ZM576.907 65.432L578.909 67.6657L578.909 67.6657L576.907 65.432ZM580.651 58.52L583.582 59.1573L583.595 59.0995L583.605 59.0414L580.651 58.52ZM585.835 29.144V26.144H583.318L582.88 28.6226L585.835 29.144ZM601.793 28.6175L592.193 82.4735L598.1 83.5265L607.7 29.6705L601.793 28.6175ZM595.147 80H576.331V86H595.147V80ZM579.286 83.5171L580.63 75.8371L574.719 74.8029L573.375 82.4829L579.286 83.5171ZM575.409 73.3529C573.572 75.4687 571.301 77.2168 568.557 78.5887L571.24 83.9553C574.64 82.2552 577.553 80.0353 579.94 77.2871L575.409 73.3529ZM568.58 78.5773C566.018 79.831 563.147 80.48 559.915 80.48V86.48C563.978 86.48 567.763 85.657 571.217 83.9666L568.58 78.5773ZM559.915 80.48C555.186 80.48 551.915 79.1588 549.675 76.8696L545.386 81.0664C549.034 84.7932 554.019 86.48 559.915 86.48V80.48ZM549.675 76.8696C547.42 74.5661 546.115 71.2109 546.115 66.392H540.115C540.115 72.3251 541.753 77.3539 545.386 81.0664L549.675 76.8696ZM546.115 66.392C546.115 64.7413 546.285 62.9384 546.642 60.9767L540.739 59.9033C540.328 62.1656 540.115 64.3307 540.115 66.392H546.115ZM546.646 60.9567L552.118 29.6607L546.207 28.6273L540.735 59.9233L546.646 60.9567ZM549.163 32.144H567.979V26.144H549.163V32.144ZM565.024 28.6238L559.936 57.5198L565.845 58.5602L570.933 29.6642L565.024 28.6238ZM559.967 57.3654C559.726 58.4128 559.603 59.471 559.603 60.536H565.603C565.603 59.937 565.671 59.3312 565.814 58.7146L559.967 57.3654ZM559.603 60.536C559.603 63.4555 560.475 66.107 562.497 68.1293L566.74 63.8867C566.074 63.221 565.603 62.2245 565.603 60.536H559.603ZM562.55 68.1804C564.578 70.1127 567.212 70.928 570.091 70.928V64.928C568.361 64.928 567.347 64.4633 566.687 63.8356L562.55 68.1804ZM570.091 70.928C573.455 70.928 576.458 69.8636 578.909 67.6657L574.904 63.1983C573.643 64.3284 572.102 64.928 570.091 64.928V70.928ZM578.909 67.6657C581.326 65.4988 582.837 62.5865 583.582 59.1573L577.719 57.8827C577.184 60.3415 576.199 62.0372 574.904 63.1983L578.909 67.6657ZM583.605 59.0414L588.789 29.6654L582.88 28.6226L577.696 57.9986L583.605 59.0414ZM585.835 32.144H604.747V26.144H585.835V32.144ZM632.927 36.632L629.974 36.1034L635.334 38.4221L632.927 36.632ZM640.127 30.68L638.808 27.9853L638.797 27.991L638.785 27.9967L640.127 30.68ZM663.647 34.04L661.432 36.0637L661.442 36.074L661.451 36.0842L663.647 34.04ZM668.255 56.024L671.206 56.5666L671.212 56.5293L671.218 56.4919L668.255 56.024ZM662.591 70.712L665.093 72.3672L665.099 72.3584L665.105 72.3496L662.591 70.712ZM652.607 80.312L651.114 77.7099L651.105 77.7152L651.095 77.7207L652.607 80.312ZM631.199 81.56L629.615 84.1079L629.655 84.1327L629.696 84.1563L631.199 81.56ZM626.111 75.512L628.896 74.3978L625.008 64.6765L623.158 74.982L626.111 75.512ZM624.767 83V86H627.276L627.72 83.53L624.767 83ZM605.855 83L602.901 82.477L602.277 86H605.855V83ZM618.431 11.96V8.96H615.915L615.477 11.437L618.431 11.96ZM637.343 11.96L640.296 12.4886L640.928 8.96H637.343V11.96ZM649.055 56.024L646.113 55.4356L646.104 55.4831L646.096 55.5308L649.055 56.024ZM647.039 47.096L644.918 49.2173L644.94 49.2399L644.963 49.262L647.039 47.096ZM633.695 47.864L631.737 45.5907L631.722 45.6044L631.706 45.6182L633.695 47.864ZM629.471 56.024L632.413 56.6123L632.422 56.5649L632.43 56.5172L629.471 56.024ZM631.391 65.048L629.225 67.1237L629.269 67.1698L629.315 67.214L631.391 65.048ZM644.831 64.28L646.82 66.5258L646.838 66.5101L646.855 66.4941L644.831 64.28ZM635.334 38.4221C636.894 36.3251 638.92 34.6377 641.469 33.3633L638.785 27.9967C635.446 29.6663 632.672 31.9469 630.52 34.8419L635.334 38.4221ZM641.446 33.3746C644.007 32.121 646.879 31.472 650.111 31.472V25.472C646.047 25.472 642.263 26.295 638.808 27.9853L641.446 33.3746ZM650.111 31.472C655.013 31.472 658.68 33.0519 661.432 36.0637L665.862 32.0163C661.83 27.6041 656.473 25.472 650.111 25.472V31.472ZM661.451 36.0842C664.26 39.1008 665.831 43.3824 665.831 49.304H671.831C671.831 42.2976 669.946 36.4032 665.843 31.9957L661.451 36.0842ZM665.831 49.304C665.831 51.1677 665.656 53.249 665.292 55.5561L671.218 56.4919C671.622 53.935 671.831 51.5363 671.831 49.304H665.831ZM665.304 55.4814C664.343 60.707 662.588 65.2214 660.077 69.0744L665.105 72.3496C668.098 67.7546 670.119 62.477 671.206 56.5666L665.304 55.4814ZM660.089 69.0568C657.567 72.8696 654.57 75.7268 651.114 77.7099L654.1 82.9141C658.452 80.4172 662.111 76.8744 665.093 72.3672L660.089 69.0568ZM651.095 77.7207C647.697 79.7033 644.152 80.672 640.415 80.672V86.672C645.254 86.672 649.837 85.4007 654.119 82.9033L651.095 77.7207ZM640.415 80.672C637.066 80.672 634.553 80.0356 632.702 78.9637L629.696 84.1563C632.709 85.9004 636.34 86.672 640.415 86.672V80.672ZM632.783 79.0121C630.951 77.8737 629.68 76.3569 628.896 74.3978L623.326 76.6262C624.59 79.7871 626.711 82.3023 629.615 84.1079L632.783 79.0121ZM623.158 74.982L621.814 82.47L627.72 83.53L629.064 76.042L623.158 74.982ZM624.767 80H605.855V86H624.767V80ZM608.809 83.523L621.385 12.4829L615.477 11.437L602.901 82.477L608.809 83.523ZM618.431 14.96H637.343V8.96H618.431V14.96ZM634.39 11.4314L629.974 36.1034L635.88 37.1606L640.296 12.4886L634.39 11.4314ZM651.997 56.6124C652.224 55.4763 652.343 54.3508 652.343 53.24H646.343C646.343 53.9212 646.27 54.6517 646.113 55.4356L651.997 56.6124ZM652.343 53.24C652.343 50.0021 651.374 47.0949 649.115 44.93L644.963 49.262C645.776 50.0411 646.343 51.2299 646.343 53.24H652.343ZM649.16 44.9747C647.047 42.8611 644.324 41.888 641.279 41.888V47.888C642.97 47.888 644.087 48.3869 644.918 49.2173L649.16 44.9747ZM641.279 41.888C637.732 41.888 634.525 43.1906 631.737 45.5907L635.653 50.1373C637.473 48.5694 639.322 47.888 641.279 47.888V41.888ZM631.706 45.6182C628.866 48.1334 627.181 51.518 626.512 55.5308L632.43 56.5172C632.913 53.618 634.044 51.5626 635.684 50.1098L631.706 45.6182ZM626.529 55.4356C626.305 56.5564 626.183 57.6514 626.183 58.712H632.183C632.183 58.1086 632.253 57.4116 632.413 56.6123L626.529 55.4356ZM626.183 58.712C626.183 61.9604 627.087 64.8923 629.225 67.1237L633.557 62.9723C632.751 62.1317 632.183 60.8396 632.183 58.712H626.183ZM629.315 67.214C631.475 69.2836 634.201 70.256 637.247 70.256V64.256C635.557 64.256 634.379 63.7564 633.467 62.882L629.315 67.214ZM637.247 70.256C640.844 70.256 644.069 68.9626 646.82 66.5258L642.842 62.0342C641.113 63.5654 639.282 64.256 637.247 64.256V70.256ZM646.855 66.4941C649.665 63.9251 651.346 60.5283 652.014 56.5172L646.096 55.5308C645.612 58.4317 644.477 60.5389 642.807 62.0659L646.855 66.4941Z" mask="url(#path-1-outside-1_2_183)"/></svg>