<svg width="672" height="137" viewBox="0 0 672 137" fill="none" xmlns="http://www.w3.org/2000/svg">
<g clip-path="url(#clip0_39_9)">
<path d="M55.688 59.92C54.472 57.68 52.712 55.984 50.408 54.832C48.168 53.616 45.512 53.008 42.44 53.008C37.128 53.008 32.872 54.768 29.672 58.288C26.472 61.744 24.872 66.384 24.872 72.208C24.872 78.416 26.536 83.28 29.864 86.8C33.256 90.256 37.896 91.984 43.784 91.984C47.816 91.984 51.208 90.96 53.96 88.912C56.776 86.864 58.824 83.92 60.104 80.08H39.272V67.984H74.984V83.248C73.768 87.344 71.688 91.152 68.744 94.672C65.864 98.192 62.184 101.04 57.704 103.216C53.224 105.392 48.168 106.48 42.536 106.48C35.88 106.48 29.928 105.04 24.68 102.16C19.496 99.216 15.432 95.152 12.488 89.968C9.608 84.784 8.168 78.864 8.168 72.208C8.168 65.552 9.608 59.632 12.488 54.448C15.432 49.2 19.496 45.136 24.68 42.256C29.864 39.312 35.784 37.84 42.44 37.84C50.504 37.84 57.288 39.792 62.792 43.696C68.36 47.6 72.04 53.008 73.832 59.92H55.688ZM134.573 78.352C134.573 79.888 134.477 81.488 134.285 83.152H97.133C97.389 86.48 98.445 89.04 100.301 90.832C102.221 92.56 104.557 93.424 107.309 93.424C111.405 93.424 114.253 91.696 115.853 88.24H133.325C132.429 91.76 130.797 94.928 128.429 97.744C126.125 100.56 123.213 102.768 119.693 104.368C116.173 105.968 112.237 106.768 107.885 106.768C102.637 106.768 97.965 105.648 93.869 103.408C89.773 101.168 86.573 97.968 84.269 93.808C81.965 89.648 80.813 84.784 80.813 79.216C80.813 73.648 81.933 68.784 84.173 64.624C86.477 60.464 89.677 57.264 93.773 55.024C97.869 52.784 102.573 51.664 107.885 51.664C113.069 51.664 117.677 52.752 121.709 54.928C125.741 57.104 128.877 60.208 131.117 64.24C133.421 68.272 134.573 72.976 134.573 78.352ZM117.773 74.032C117.773 71.216 116.813 68.976 114.893 67.312C112.973 65.648 110.573 64.816 107.693 64.816C104.941 64.816 102.605 65.616 100.685 67.216C98.829 68.816 97.677 71.088 97.229 74.032H117.773ZM167.617 106.768C162.369 106.768 157.633 105.648 153.409 103.408C149.249 101.168 145.953 97.968 143.521 93.808C141.153 89.648 139.969 84.784 139.969 79.216C139.969 73.712 141.185 68.88 143.617 64.72C146.049 60.496 149.377 57.264 153.601 55.024C157.825 52.784 162.561 51.664 167.809 51.664C173.057 51.664 177.793 52.784 182.017 55.024C186.241 57.264 189.569 60.496 192.001 64.72C194.433 68.88 195.649 73.712 195.649 79.216C195.649 84.72 194.401 89.584 191.905 93.808C189.473 97.968 186.113 101.168 181.825 103.408C177.601 105.648 172.865 106.768 167.617 106.768ZM167.617 92.56C170.753 92.56 173.409 91.408 175.585 89.104C177.825 86.8 178.945 83.504 178.945 79.216C178.945 74.928 177.857 71.632 175.681 69.328C173.569 67.024 170.945 65.872 167.809 65.872C164.609 65.872 161.953 67.024 159.841 69.328C157.729 71.568 156.673 74.864 156.673 79.216C156.673 83.504 157.697 86.8 159.745 89.104C161.857 91.408 164.481 92.56 167.617 92.56ZM231.238 66.064H222.406V106H205.99V66.064H200.038V52.432H205.99V50.896C205.99 44.304 207.878 39.312 211.654 35.92C215.43 32.464 220.966 30.736 228.262 30.736C229.478 30.736 230.374 30.768 230.95 30.832V44.752C227.814 44.56 225.606 45.008 224.326 46.096C223.046 47.184 222.406 49.136 222.406 51.952V52.432H231.238V66.064ZM247.208 46.864C244.328 46.864 241.96 46.032 240.104 44.368C238.312 42.64 237.416 40.528 237.416 38.032C237.416 35.472 238.312 33.36 240.104 31.696C241.96 29.968 244.328 29.104 247.208 29.104C250.024 29.104 252.328 29.968 254.12 31.696C255.976 33.36 256.904 35.472 256.904 38.032C256.904 40.528 255.976 42.64 254.12 44.368C252.328 46.032 250.024 46.864 247.208 46.864ZM255.368 52.432V106H238.952V52.432H255.368ZM289.057 106.768C284.385 106.768 280.225 105.968 276.577 104.368C272.929 102.768 270.049 100.592 267.937 97.84C265.825 95.024 264.641 91.888 264.385 88.432H280.609C280.801 90.288 281.665 91.792 283.201 92.944C284.737 94.096 286.625 94.672 288.865 94.672C290.913 94.672 292.481 94.288 293.569 93.52C294.721 92.688 295.297 91.632 295.297 90.352C295.297 88.816 294.497 87.696 292.897 86.992C291.297 86.224 288.705 85.392 285.121 84.496C281.281 83.6 278.081 82.672 275.521 81.712C272.961 80.688 270.753 79.12 268.897 77.008C267.041 74.832 266.113 71.92 266.113 68.272C266.113 65.2 266.945 62.416 268.609 59.92C270.337 57.36 272.833 55.344 276.097 53.872C279.425 52.4 283.361 51.664 287.905 51.664C294.625 51.664 299.905 53.328 303.745 56.656C307.649 59.984 309.889 64.4 310.465 69.904H295.297C295.041 68.048 294.209 66.576 292.801 65.488C291.457 64.4 289.665 63.856 287.425 63.856C285.505 63.856 284.033 64.24 283.009 65.008C281.985 65.712 281.473 66.704 281.473 67.984C281.473 69.52 282.273 70.672 283.873 71.44C285.537 72.208 288.097 72.976 291.553 73.744C295.521 74.768 298.753 75.792 301.249 76.816C303.745 77.776 305.921 79.376 307.777 81.616C309.697 83.792 310.689 86.736 310.753 90.448C310.753 93.584 309.857 96.4 308.065 98.896C306.337 101.328 303.809 103.248 300.481 104.656C297.217 106.064 293.409 106.768 289.057 106.768ZM329.052 46.864C326.172 46.864 323.804 46.032 321.948 44.368C320.156 42.64 319.26 40.528 319.26 38.032C319.26 35.472 320.156 33.36 321.948 31.696C323.804 29.968 326.172 29.104 329.052 29.104C331.868 29.104 334.172 29.968 335.964 31.696C337.82 33.36 338.748 35.472 338.748 38.032C338.748 40.528 337.82 42.64 335.964 44.368C334.172 46.032 331.868 46.864 329.052 46.864ZM337.212 52.432V106H320.796V52.432H337.212ZM345.844 79.216C345.844 73.648 346.964 68.784 349.204 64.624C351.508 60.464 354.676 57.264 358.708 55.024C362.804 52.784 367.476 51.664 372.724 51.664C379.444 51.664 385.044 53.424 389.524 56.944C394.068 60.464 397.044 65.424 398.452 71.824H380.98C379.508 67.728 376.66 65.68 372.436 65.68C369.428 65.68 367.028 66.864 365.236 69.232C363.444 71.536 362.548 74.864 362.548 79.216C362.548 83.568 363.444 86.928 365.236 89.296C367.028 91.6 369.428 92.752 372.436 92.752C376.66 92.752 379.508 90.704 380.98 86.608H398.452C397.044 92.88 394.068 97.808 389.524 101.392C384.98 104.976 379.38 106.768 372.724 106.768C367.476 106.768 362.804 105.648 358.708 103.408C354.676 101.168 351.508 97.968 349.204 93.808C346.964 89.648 345.844 84.784 345.844 79.216ZM403.969 79.12C403.969 73.616 404.993 68.784 407.041 64.624C409.153 60.464 412.001 57.264 415.585 55.024C419.169 52.784 423.169 51.664 427.585 51.664C431.361 51.664 434.657 52.432 437.473 53.968C440.353 55.504 442.561 57.52 444.097 60.016V52.432H460.513V106H444.097V98.416C442.497 100.912 440.257 102.928 437.377 104.464C434.561 106 431.265 106.768 427.489 106.768C423.137 106.768 419.169 105.648 415.585 103.408C412.001 101.104 409.153 97.872 407.041 93.712C404.993 89.488 403.969 84.624 403.969 79.12ZM444.097 79.216C444.097 75.12 442.945 71.888 440.641 69.52C438.401 67.152 435.649 65.968 432.385 65.968C429.121 65.968 426.337 67.152 424.033 69.52C421.793 71.824 420.673 75.024 420.673 79.12C420.673 83.216 421.793 86.48 424.033 88.912C426.337 91.28 429.121 92.464 432.385 92.464C435.649 92.464 438.401 91.28 440.641 88.912C442.945 86.544 444.097 83.312 444.097 79.216Z" fill="#F1F1F1"/>
<path d="M537.766 38.608L525.862 106H509.446L514.342 78.064H488.806L483.91 106H467.494L479.398 38.608H495.814L491.109 65.104H516.646L521.35 38.608H537.766ZM600.016 52.432L590.608 106H574.192L575.44 98.704C573.328 101.072 570.736 102.992 567.664 104.464C564.656 105.872 561.424 106.576 557.968 106.576C552.592 106.576 548.368 105.072 545.296 102.064C542.224 98.992 540.688 94.736 540.688 89.296C540.688 87.248 540.848 85.392 541.168 83.728L546.736 52.432H563.056L557.968 81.52C557.776 82.544 557.68 83.536 557.68 84.496C557.68 87.184 558.416 89.264 559.888 90.736C561.424 92.144 563.536 92.848 566.224 92.848C569.296 92.848 571.888 91.952 574 90.16C576.176 88.304 577.616 85.68 578.32 82.288L583.6 52.432H600.016ZM626.88 60.016C628.928 57.52 631.52 55.504 634.656 53.968C637.792 52.432 641.216 51.664 644.928 51.664C650.688 51.664 655.328 53.552 658.848 57.328C662.432 61.04 664.224 66.128 664.224 72.592C664.224 74.64 664.032 76.816 663.648 79.12C662.688 84.624 660.8 89.488 657.984 93.712C655.168 97.872 651.776 101.104 647.808 103.408C643.84 105.648 639.648 106.768 635.232 106.768C631.456 106.768 628.288 106.032 625.728 104.56C623.168 103.024 621.312 101.008 620.16 98.512L618.816 106H602.4L614.976 34.96H631.392L626.88 60.016ZM647.04 79.12C647.232 78.032 647.328 77.04 647.328 76.144C647.328 72.944 646.4 70.448 644.544 68.656C642.752 66.864 640.448 65.968 637.632 65.968C634.368 65.968 631.392 67.152 628.704 69.52C626.016 71.888 624.288 75.12 623.52 79.216C623.328 80.368 623.232 81.424 623.232 82.384C623.232 85.52 624.128 87.984 625.92 89.776C627.712 91.568 630.016 92.464 632.832 92.464C636.096 92.464 639.072 91.28 641.76 88.912C644.512 86.48 646.272 83.216 647.04 79.12Z" fill="#A2B8F4"/>
<path d="M55.688 59.92L54.3697 60.6356L54.7955 61.42H55.688V59.92ZM50.408 54.832L49.6924 56.1503L49.7146 56.1623L49.7372 56.1736L50.408 54.832ZM29.672 58.288L30.7727 59.3072L30.7819 59.297L29.672 58.288ZM29.864 86.8L28.774 87.8305L28.7837 87.8407L28.7935 87.8507L29.864 86.8ZM53.96 88.912L53.0777 87.6989L53.0711 87.7037L53.0645 87.7086L53.96 88.912ZM60.104 80.08L61.527 80.5543L62.1851 78.58H60.104V80.08ZM39.272 80.08H37.772V81.58H39.272V80.08ZM39.272 67.984V66.484H37.772V67.984H39.272ZM74.984 67.984H76.484V66.484H74.984V67.984ZM74.984 83.248L76.422 83.6749L76.484 83.466V83.248H74.984ZM68.744 94.672L67.5934 93.7097L67.5882 93.7159L67.5831 93.7221L68.744 94.672ZM57.704 103.216L57.0486 101.867L57.704 103.216ZM24.68 102.16L23.9393 103.464L23.9488 103.47L23.9584 103.475L24.68 102.16ZM12.488 89.968L11.1767 90.6965L11.1837 90.7087L12.488 89.968ZM12.488 54.448L11.1798 53.7141L11.1768 53.7195L12.488 54.448ZM24.68 42.256L25.4085 43.5673L25.4207 43.5603L24.68 42.256ZM62.792 43.696L61.9242 44.9195L61.9309 44.9242L62.792 43.696ZM73.832 59.92V61.42H75.7705L75.284 59.5436L73.832 59.92ZM57.0063 59.2044C55.642 56.6912 53.6545 54.7782 51.0788 53.4904L49.7372 56.1736C51.7695 57.1898 53.302 58.6688 54.3697 60.6356L57.0063 59.2044ZM51.1236 53.5137C48.6231 52.1563 45.7109 51.508 42.44 51.508V54.508C45.3131 54.508 47.7129 55.0757 49.6924 56.1503L51.1236 53.5137ZM42.44 51.508C36.7601 51.508 32.0812 53.4079 28.5621 57.279L30.7819 59.297C33.6628 56.1281 37.4959 54.508 42.44 54.508V51.508ZM28.5714 57.2689C25.0574 61.064 23.372 66.0998 23.372 72.208H26.372C26.372 66.6682 27.8866 62.424 30.7726 59.3071L28.5714 57.2689ZM23.372 72.208C23.372 78.6872 25.1147 83.96 28.774 87.8305L30.954 85.7695C27.9573 82.6 26.372 78.1448 26.372 72.208H23.372ZM28.7935 87.8507C32.5266 91.6543 37.5863 93.484 43.784 93.484V90.484C38.2057 90.484 33.9854 88.8577 30.9345 85.7493L28.7935 87.8507ZM43.784 93.484C48.0801 93.484 51.8014 92.3882 54.8555 90.1154L53.0645 87.7086C50.6146 89.5318 47.5519 90.484 43.784 90.484V93.484ZM54.8423 90.1251C57.9504 87.8646 60.1647 84.6412 61.527 80.5543L58.681 79.6057C57.4833 83.1988 55.6016 85.8634 53.0777 87.6989L54.8423 90.1251ZM60.104 78.58H39.272V81.58H60.104V78.58ZM40.772 80.08V67.984H37.772V80.08H40.772ZM39.272 69.484H74.984V66.484H39.272V69.484ZM73.484 67.984V83.248H76.484V67.984H73.484ZM73.546 82.8211C72.3925 86.7067 70.4159 90.3349 67.5934 93.7097L69.8946 95.6343C72.9601 91.9691 75.1435 87.9813 76.422 83.6749L73.546 82.8211ZM67.5831 93.7221C64.8533 97.0585 61.352 99.7765 57.0486 101.867L58.3594 104.565C63.016 102.303 66.8747 99.3255 69.9049 95.6219L67.5831 93.7221ZM57.0486 101.867C52.7981 103.931 47.9708 104.98 42.536 104.98V107.98C48.3652 107.98 53.6499 106.853 58.3594 104.565L57.0486 101.867ZM42.536 104.98C36.1035 104.98 30.4046 103.59 25.4016 100.845L23.9584 103.475C29.4514 106.49 35.6565 107.98 42.536 107.98V104.98ZM25.4207 100.856C20.472 98.0453 16.6027 94.176 13.7923 89.2273L11.1837 90.7087C14.2613 96.128 18.52 100.387 23.9393 103.464L25.4207 100.856ZM13.7992 89.2395C11.0576 84.3046 9.668 78.6408 9.668 72.208H6.668C6.668 79.0872 8.15841 85.2634 11.1768 90.6965L13.7992 89.2395ZM9.668 72.208C9.668 65.7752 11.0576 60.1114 13.7992 55.1765L11.1768 53.7195C8.15841 59.1526 6.668 65.3288 6.668 72.208H9.668ZM13.7962 55.1819C16.6063 50.1726 20.4712 46.3101 25.4085 43.5672L23.9515 40.9448C18.5208 43.9619 14.2577 48.2274 11.1798 53.7141L13.7962 55.1819ZM25.4207 43.5603C30.3535 40.759 36.0128 39.34 42.44 39.34V36.34C35.5552 36.34 29.3745 37.865 23.9393 40.9517L25.4207 43.5603ZM42.44 39.34C50.2551 39.34 56.7201 41.2282 61.9242 44.9195L63.6598 42.4725C57.8559 38.3558 50.7529 36.34 42.44 36.34V39.34ZM61.9309 44.9242C67.1915 48.6126 70.6726 53.7108 72.38 60.2964L75.284 59.5436C73.4074 52.3052 69.5285 46.5874 63.6531 42.4678L61.9309 44.9242ZM73.832 58.42H55.688V61.42H73.832V58.42ZM134.285 83.152V84.652H135.622L135.775 83.3239L134.285 83.152ZM97.133 83.152V81.652H95.5132L95.6374 83.267L97.133 83.152ZM100.301 90.832L99.2591 91.9111L99.278 91.9294L99.2976 91.9469L100.301 90.832ZM115.853 88.24V86.74H114.894L114.492 87.6098L115.853 88.24ZM133.325 88.24L134.779 88.61L135.255 86.74H133.325V88.24ZM128.429 97.744L127.281 96.7786L127.274 96.7863L127.268 96.7941L128.429 97.744ZM119.693 104.368L120.314 105.734L119.693 104.368ZM93.869 103.408L93.1493 104.724L93.1493 104.724L93.869 103.408ZM84.269 93.808L85.5812 93.0812L85.5812 93.0812L84.269 93.808ZM84.173 64.624L82.8608 63.8972L82.8565 63.905L82.8523 63.9128L84.173 64.624ZM93.773 55.024L94.4927 56.3401L94.4927 56.3401L93.773 55.024ZM121.709 54.928L120.997 56.248L120.997 56.248L121.709 54.928ZM131.117 64.24L129.806 64.9685L129.81 64.9764L129.815 64.9842L131.117 64.24ZM117.773 74.032V75.532H119.273V74.032H117.773ZM114.893 67.312L115.875 66.1785L115.875 66.1785L114.893 67.312ZM100.685 67.216L99.7247 66.0637L99.7151 66.0717L99.7056 66.0799L100.685 67.216ZM97.229 74.032L95.7461 73.8063L95.4835 75.532H97.229V74.032ZM133.073 78.352C133.073 79.8257 132.981 81.3681 132.795 82.9801L135.775 83.3239C135.973 81.6079 136.073 79.9503 136.073 78.352H133.073ZM134.285 81.652H97.133V84.652H134.285V81.652ZM95.6374 83.267C95.9131 86.8508 97.069 89.7965 99.2591 91.9111L101.343 89.7529C99.821 88.2835 98.8649 86.1092 98.6286 83.037L95.6374 83.267ZM99.2976 91.9469C101.512 93.94 104.213 94.924 107.309 94.924V91.924C104.901 91.924 102.93 91.18 101.304 89.7171L99.2976 91.9469ZM107.309 94.924C109.569 94.924 111.588 94.4461 113.295 93.4104C115.009 92.3704 116.307 90.8288 117.214 88.8702L114.492 87.6098C113.799 89.1072 112.873 90.1576 111.739 90.8456C110.598 91.5378 109.145 91.924 107.309 91.924V94.924ZM115.853 89.74H133.325V86.74H115.853V89.74ZM131.871 87.87C131.032 91.1681 129.506 94.1332 127.281 96.7786L129.577 98.7094C132.089 95.7228 133.826 92.3519 134.779 88.61L131.871 87.87ZM127.268 96.7941C125.119 99.4209 122.396 101.492 119.072 103.002L120.314 105.734C124.03 104.044 127.131 101.699 129.59 98.6939L127.268 96.7941ZM119.072 103.002C115.77 104.503 112.05 105.268 107.885 105.268V108.268C112.424 108.268 116.576 107.433 120.314 105.734L119.072 103.002ZM107.885 105.268C102.857 105.268 98.4378 104.197 94.5887 102.092L93.1493 104.724C97.4922 107.099 102.417 108.268 107.885 108.268V105.268ZM94.5887 102.092C90.7469 99.991 87.7502 96.9976 85.5812 93.0812L82.9568 94.5347C85.3958 98.9384 88.7991 102.345 93.1493 104.724L94.5887 102.092ZM85.5812 93.0812C83.4199 89.179 82.313 84.5734 82.313 79.216H79.313C79.313 84.9946 80.5101 90.117 82.9568 94.5347L85.5812 93.0812ZM82.313 79.216C82.313 73.8519 83.3908 69.2406 85.4937 65.3351L82.8523 63.9128C80.4752 68.3274 79.313 73.4441 79.313 79.216H82.313ZM85.4852 65.3507C87.6542 61.4344 90.6509 58.441 94.4927 56.3401L93.0533 53.7079C88.7031 56.087 85.2998 59.4936 82.8608 63.8972L85.4852 65.3507ZM94.4927 56.3401C98.3392 54.2365 102.789 53.164 107.885 53.164V50.164C102.357 50.164 97.3989 51.3315 93.0533 53.7079L94.4927 56.3401ZM107.885 53.164C112.853 53.164 117.211 54.2049 120.997 56.248L122.421 53.608C118.143 51.299 113.285 50.164 107.885 50.164V53.164ZM120.997 56.248C124.775 58.2871 127.704 61.185 129.806 64.9685L132.428 63.5115C130.05 59.231 126.707 55.9209 122.421 53.608L120.997 56.248ZM129.815 64.9842C131.97 68.756 133.073 73.1954 133.073 78.352H136.073C136.073 72.7566 134.872 67.788 132.419 63.4958L129.815 64.9842ZM119.273 74.032C119.273 70.8339 118.162 68.1603 115.875 66.1785L113.911 68.4455C115.464 69.7917 116.273 71.5981 116.273 74.032H119.273ZM115.875 66.1785C113.646 64.2465 110.883 63.316 107.693 63.316V66.316C110.263 66.316 112.3 67.0495 113.911 68.4455L115.875 66.1785ZM107.693 63.316C104.628 63.316 101.942 64.2159 99.7247 66.0637L101.645 68.3683C103.268 67.0161 105.254 66.316 107.693 66.316V63.316ZM99.7056 66.0799C97.5233 67.9611 96.2358 70.5879 95.7461 73.8063L98.7119 74.2577C99.1182 71.5881 100.135 69.6709 101.664 68.3521L99.7056 66.0799ZM97.229 75.532H117.773V72.532H97.229V75.532ZM153.409 103.408L152.698 104.729L152.706 104.733L153.409 103.408ZM143.521 93.808L142.218 94.55L142.222 94.5576L142.226 94.565L143.521 93.808ZM143.617 64.72L144.912 65.4771L144.917 65.4684L143.617 64.72ZM153.601 55.024L154.304 56.3492L154.304 56.3492L153.601 55.024ZM182.017 55.024L181.314 56.3492L181.314 56.3492L182.017 55.024ZM192.001 64.72L190.701 65.4685L190.706 65.477L192.001 64.72ZM191.905 93.808L190.614 93.0449L190.61 93.051L191.905 93.808ZM181.825 103.408L181.131 102.078L181.122 102.083L181.825 103.408ZM175.585 89.104L174.51 88.0584L174.502 88.0662L174.495 88.0741L175.585 89.104ZM175.681 69.328L174.576 70.3416L174.583 70.3498L174.591 70.3579L175.681 69.328ZM159.841 69.328L160.933 70.357L160.94 70.3494L160.947 70.3416L159.841 69.328ZM159.745 89.104L158.624 90.1005L158.632 90.1091L158.64 90.1176L159.745 89.104ZM167.617 105.268C162.59 105.268 158.099 104.197 154.112 102.083L152.706 104.733C157.168 107.099 162.149 108.268 167.617 108.268V105.268ZM154.12 102.087C150.208 99.9807 147.112 96.978 144.816 93.051L142.226 94.565C144.795 98.958 148.29 102.355 152.698 104.729L154.12 102.087ZM144.825 93.066C142.605 89.1666 141.469 84.5667 141.469 79.216H138.469C138.469 85.0013 139.701 90.1294 142.218 94.55L144.825 93.066ZM141.469 79.216C141.469 73.9396 142.633 69.3763 144.912 65.477L142.322 63.963C139.738 68.3837 138.469 73.4844 138.469 79.216H141.469ZM144.917 65.4684C147.211 61.484 150.334 58.4543 154.304 56.3492L152.898 53.6988C148.42 56.0737 144.887 59.508 142.317 63.9716L144.917 65.4684ZM154.304 56.3492C158.291 54.2349 162.782 53.164 167.809 53.164V50.164C162.341 50.164 157.36 51.3331 152.898 53.6988L154.304 56.3492ZM167.809 53.164C172.837 53.164 177.328 54.2349 181.314 56.3492L182.72 53.6988C178.259 51.3331 173.278 50.164 167.809 50.164V53.164ZM181.314 56.3492C185.284 58.4543 188.407 61.484 190.701 65.4684L193.301 63.9716C190.731 59.508 187.198 56.0737 182.72 53.6988L181.314 56.3492ZM190.706 65.477C192.986 69.3763 194.149 73.9396 194.149 79.216H197.149C197.149 73.4844 195.881 68.3837 193.296 63.963L190.706 65.477ZM194.149 79.216C194.149 84.485 192.957 89.0792 190.614 93.0449L193.197 94.5711C195.845 90.0888 197.149 84.955 197.149 79.216H194.149ZM190.61 93.051C188.321 96.9665 185.17 99.9685 181.131 102.078L182.52 104.738C187.057 102.367 190.625 98.9695 193.2 94.565L190.61 93.051ZM181.122 102.083C177.136 104.197 172.645 105.268 167.617 105.268V108.268C173.086 108.268 178.067 107.099 182.528 104.733L181.122 102.083ZM167.617 94.06C171.171 94.06 174.22 92.7344 176.676 90.1339L174.495 88.0741C172.599 90.0816 170.336 91.06 167.617 91.06V94.06ZM176.661 90.1496C179.254 87.4822 180.445 83.7602 180.445 79.216H177.445C177.445 83.2478 176.396 86.1178 174.51 88.0584L176.661 90.1496ZM180.445 79.216C180.445 74.6828 179.292 70.9667 176.772 68.2981L174.591 70.3579C176.422 72.2973 177.445 75.1732 177.445 79.216H180.445ZM176.787 68.3144C174.39 65.6993 171.364 64.372 167.809 64.372V67.372C170.526 67.372 172.749 68.3487 174.576 70.3416L176.787 68.3144ZM167.809 64.372C164.2 64.372 161.139 65.6922 158.736 68.3144L160.947 70.3416C162.767 68.3558 165.018 67.372 167.809 67.372V64.372ZM158.75 68.299C156.284 70.9145 155.173 74.64 155.173 79.216H158.173C158.173 75.088 159.175 72.2215 160.933 70.357L158.75 68.299ZM155.173 79.216C155.173 83.7277 156.251 87.4308 158.624 90.1005L160.866 88.1075C159.143 86.1692 158.173 83.2803 158.173 79.216H155.173ZM158.64 90.1176C161.037 92.7327 164.062 94.06 167.617 94.06V91.06C164.9 91.06 162.678 90.0833 160.851 88.0904L158.64 90.1176ZM231.238 66.064V67.564H232.738V66.064H231.238ZM222.406 66.064V64.564H220.906V66.064H222.406ZM222.406 106V107.5H223.906V106H222.406ZM205.99 106H204.49V107.5H205.99V106ZM205.99 66.064H207.49V64.564H205.99V66.064ZM200.038 66.064H198.538V67.564H200.038V66.064ZM200.038 52.432V50.932H198.538V52.432H200.038ZM205.99 52.432V53.932H207.49V52.432H205.99ZM211.654 35.92L212.657 37.0359L212.667 37.0265L211.654 35.92ZM230.95 30.832H232.45V29.4894L231.116 29.3412L230.95 30.832ZM230.95 44.752L230.859 46.2492L232.45 46.3466V44.752H230.95ZM224.326 46.096L225.298 47.2389L225.298 47.2389L224.326 46.096ZM222.406 52.432H220.906V53.932H222.406V52.432ZM231.238 52.432H232.738V50.932H231.238V52.432ZM231.238 64.564H222.406V67.564H231.238V64.564ZM220.906 66.064V106H223.906V66.064H220.906ZM222.406 104.5H205.99V107.5H222.406V104.5ZM207.49 106V66.064H204.49V106H207.49ZM205.99 64.564H200.038V67.564H205.99V64.564ZM201.538 66.064V52.432H198.538V66.064H201.538ZM200.038 53.932H205.99V50.932H200.038V53.932ZM207.49 52.432V50.896H204.49V52.432H207.49ZM207.49 50.896C207.49 44.5948 209.285 40.0642 212.657 37.0359L210.652 34.8041C206.471 38.5598 204.49 44.0132 204.49 50.896H207.49ZM212.667 37.0265C216.068 33.9135 221.183 32.236 228.262 32.236V29.236C220.75 29.236 214.792 31.0145 210.642 34.8135L212.667 37.0265ZM228.262 32.236C229.469 32.236 230.296 32.2685 230.785 32.3228L231.116 29.3412C230.453 29.2675 229.487 29.236 228.262 29.236V32.236ZM229.45 30.832V44.752H232.45V30.832H229.45ZM231.042 43.2548C227.819 43.0575 225.099 43.4704 223.355 44.9531L225.298 47.2389C226.113 46.5456 227.809 46.0625 230.859 46.2492L231.042 43.2548ZM223.355 44.9531C221.569 46.4709 220.906 48.9839 220.906 51.952H223.906C223.906 49.2881 224.523 47.8971 225.298 47.2389L223.355 44.9531ZM220.906 51.952V52.432H223.906V51.952H220.906ZM222.406 53.932H231.238V50.932H222.406V53.932ZM229.738 52.432V66.064H232.738V52.432H229.738ZM240.104 44.368L239.063 45.4478L239.082 45.4667L239.103 45.4849L240.104 44.368ZM240.104 31.696L241.125 32.7952L241.126 32.7938L240.104 31.696ZM254.12 31.696L253.079 32.7758L253.098 32.7947L253.119 32.8128L254.12 31.696ZM254.12 44.368L255.141 45.4672L255.142 45.4658L254.12 44.368ZM255.368 52.432H256.868V50.932H255.368V52.432ZM255.368 106V107.5H256.868V106H255.368ZM238.952 106H237.452V107.5H238.952V106ZM238.952 52.432V50.932H237.452V52.432H238.952ZM247.208 45.364C244.636 45.364 242.644 44.6304 241.105 43.2511L239.103 45.4849C241.276 47.4336 244.02 48.364 247.208 48.364V45.364ZM241.145 43.2882C239.647 41.8438 238.916 40.1219 238.916 38.032H235.916C235.916 40.9341 236.977 43.4362 239.063 45.4478L241.145 43.2882ZM238.916 38.032C238.916 35.8671 239.654 34.1607 241.125 32.7952L239.083 30.5968C236.97 32.5593 235.916 35.0769 235.916 38.032H238.916ZM241.126 32.7938C242.666 31.3597 244.652 30.604 247.208 30.604V27.604C244.004 27.604 241.254 28.5763 239.082 30.5982L241.126 32.7938ZM247.208 30.604C249.691 30.604 251.604 31.3534 253.079 32.7758L255.161 30.6162C253.052 28.5826 250.357 27.604 247.208 27.604V30.604ZM253.119 32.8128C254.648 34.1837 255.404 35.8851 255.404 38.032H258.404C258.404 35.0589 257.304 32.5363 255.121 30.5791L253.119 32.8128ZM255.404 38.032C255.404 40.1041 254.655 41.8208 253.098 43.2702L255.142 45.4658C257.297 43.4592 258.404 40.9519 258.404 38.032H255.404ZM253.099 43.2688C251.627 44.6362 249.707 45.364 247.208 45.364V48.364C250.341 48.364 253.029 47.4278 255.141 45.4672L253.099 43.2688ZM253.868 52.432V106H256.868V52.432H253.868ZM255.368 104.5H238.952V107.5H255.368V104.5ZM240.452 106V52.432H237.452V106H240.452ZM238.952 53.932H255.368V50.932H238.952V53.932ZM276.577 104.368L277.179 102.994L277.179 102.994L276.577 104.368ZM267.937 97.84L266.737 98.74L266.741 98.7466L266.747 98.7532L267.937 97.84ZM264.385 88.432V86.932H262.769L262.889 88.5428L264.385 88.432ZM280.609 88.432L282.101 88.2776L281.961 86.932H280.609V88.432ZM283.201 92.944L284.101 91.744L284.101 91.744L283.201 92.944ZM293.569 93.52L294.434 94.7455L294.44 94.7408L294.447 94.736L293.569 93.52ZM292.897 86.992L292.247 88.3443L292.27 88.355L292.292 88.365L292.897 86.992ZM285.121 84.496L285.484 83.0408L285.473 83.0379L285.461 83.0352L285.121 84.496ZM275.521 81.712L274.963 83.1047L274.979 83.1108L274.994 83.1165L275.521 81.712ZM268.897 77.008L267.755 77.9814L267.762 77.9898L267.77 77.9982L268.897 77.008ZM268.609 59.92L267.365 59.0808L267.36 59.0879L268.609 59.92ZM276.097 53.872L275.49 52.5002L275.48 52.5046L276.097 53.872ZM303.745 56.656L302.762 57.7896L302.771 57.7975L303.745 56.656ZM310.465 69.904V71.404H312.13L311.956 69.7479L310.465 69.904ZM295.297 69.904L293.811 70.109L293.989 71.404H295.297V69.904ZM292.801 65.488L291.857 66.6539L291.87 66.6645L291.883 66.6749L292.801 65.488ZM283.009 65.008L283.858 66.2441L283.884 66.2265L283.909 66.208L283.009 65.008ZM283.873 71.44L283.223 72.7923L283.234 72.7972L283.244 72.8019L283.873 71.44ZM291.553 73.744L291.927 72.2916L291.903 72.2852L291.878 72.2797L291.553 73.744ZM301.249 76.816L300.679 78.2038L300.695 78.2101L300.71 78.216L301.249 76.816ZM307.777 81.616L306.621 82.573L306.636 82.591L306.652 82.6084L307.777 81.616ZM310.753 90.448H312.253V90.4351L312.252 90.4221L310.753 90.448ZM308.065 98.896L306.846 98.0212L306.842 98.0272L308.065 98.896ZM300.481 104.656L299.896 103.275L299.886 103.279L300.481 104.656ZM289.057 105.268C284.556 105.268 280.607 104.498 277.179 102.994L275.974 105.742C279.842 107.438 284.213 108.268 289.057 108.268V105.268ZM277.179 102.994C273.728 101.481 271.063 99.4502 269.126 96.9268L266.747 98.7532C269.034 101.734 272.129 104.055 275.974 105.742L277.179 102.994ZM269.137 96.94C267.194 94.3496 266.115 91.4865 265.88 88.3212L262.889 88.5428C263.166 92.2895 264.455 95.6984 266.737 98.74L269.137 96.94ZM264.385 89.932H280.609V86.932H264.385V89.932ZM279.116 88.5863C279.353 90.8716 280.441 92.7494 282.301 94.144L284.101 91.744C282.888 90.8346 282.248 89.7044 282.101 88.2776L279.116 88.5863ZM282.301 94.144C284.138 95.5219 286.356 96.172 288.865 96.172V93.172C286.893 93.172 285.335 92.6701 284.101 91.744L282.301 94.144ZM288.865 96.172C291.067 96.172 292.99 95.7647 294.434 94.7455L292.703 92.2945C291.971 92.8113 290.758 93.172 288.865 93.172V96.172ZM294.447 94.736C295.939 93.658 296.797 92.172 296.797 90.352H293.797C293.797 91.092 293.502 91.718 292.69 92.304L294.447 94.736ZM296.797 90.352C296.797 89.3093 296.52 88.3317 295.917 87.4881C295.323 86.6569 294.482 86.0507 293.501 85.619L292.292 88.365C292.911 88.6373 293.27 88.9431 293.476 89.2319C293.673 89.5083 293.797 89.8587 293.797 90.352H296.797ZM293.546 85.6397C291.801 84.8023 289.085 83.9409 285.484 83.0408L284.757 85.9512C288.324 86.8431 290.792 87.6457 292.247 88.3443L293.546 85.6397ZM285.461 83.0352C281.659 82.1481 278.526 81.2372 276.047 80.3075L274.994 83.1165C277.635 84.1068 280.902 85.0519 284.78 85.9568L285.461 83.0352ZM276.078 80.3193C273.741 79.3846 271.727 77.9564 270.023 76.0178L267.77 77.9982C269.778 80.2836 272.18 81.9914 274.963 83.1047L276.078 80.3193ZM270.038 76.0346C268.471 74.198 267.613 71.664 267.613 68.272H264.613C264.613 72.176 265.61 75.466 267.755 77.9814L270.038 76.0346ZM267.613 68.272C267.613 65.4886 268.361 62.9954 269.857 60.752L267.36 59.0879C265.528 61.8366 264.613 64.9114 264.613 68.272H267.613ZM269.852 60.7592C271.401 58.4648 273.662 56.6155 276.713 55.2394L275.48 52.5046C272.003 54.0725 269.272 56.2552 267.365 59.0808L269.852 60.7592ZM276.703 55.2438C279.799 53.8746 283.519 53.164 287.905 53.164V50.164C283.202 50.164 279.05 50.9254 275.49 52.5002L276.703 55.2438ZM287.905 53.164C294.382 53.164 299.272 54.7652 302.762 57.7895L304.727 55.5225C300.537 51.8908 294.867 50.164 287.905 50.164V53.164ZM302.771 57.7975C306.358 60.855 308.433 64.9059 308.973 70.0601L311.956 69.7479C311.344 63.8941 308.939 59.113 304.718 55.5145L302.771 57.7975ZM310.465 68.404H295.297V71.404H310.465V68.404ZM296.782 69.699C296.476 67.4767 295.454 65.643 293.718 64.3011L291.883 66.6749C292.963 67.509 293.605 68.6193 293.811 70.109L296.782 69.699ZM293.744 64.3221C292.063 62.9611 289.905 62.356 287.425 62.356V65.356C289.424 65.356 290.85 65.8389 291.857 66.6539L293.744 64.3221ZM287.425 62.356C285.334 62.356 283.493 62.7695 282.109 63.808L283.909 66.208C284.572 65.7105 285.675 65.356 287.425 65.356V62.356ZM282.159 63.7719C280.713 64.7657 279.973 66.2278 279.973 67.984H282.973C282.973 67.1802 283.256 66.6583 283.858 66.2441L282.159 63.7719ZM279.973 67.984C279.973 69.0274 280.249 70.0045 280.84 70.8556C281.423 71.6943 282.25 72.3252 283.223 72.7923L284.522 70.0877C283.895 69.7867 283.522 69.4577 283.305 69.1444C283.096 68.8435 282.973 68.4766 282.973 67.984H279.973ZM283.244 72.8019C285.057 73.6389 287.744 74.4343 291.227 75.2083L291.878 72.2797C288.449 71.5177 286.016 70.7771 284.501 70.0781L283.244 72.8019ZM291.178 75.1964C295.11 76.2111 298.27 77.2153 300.679 78.2038L301.818 75.4282C299.235 74.3687 295.931 73.3249 291.927 72.2916L291.178 75.1964ZM300.71 78.216C302.945 79.0757 304.915 80.5132 306.621 82.573L308.932 80.659C306.926 78.2388 304.544 76.4763 301.787 75.416L300.71 78.216ZM306.652 82.6084C308.276 84.4494 309.193 87.0164 309.253 90.4739L312.252 90.4221C312.184 86.4556 311.117 83.1346 308.901 80.6236L306.652 82.6084ZM309.253 90.448C309.253 93.2771 308.451 95.7857 306.846 98.0212L309.283 99.7708C311.262 97.0143 312.253 93.8909 312.253 90.448H309.253ZM306.842 98.0272C305.306 100.189 303.022 101.952 299.896 103.275L301.065 106.037C304.595 104.544 307.367 102.467 309.287 99.7648L306.842 98.0272ZM299.886 103.279C296.847 104.59 293.249 105.268 289.057 105.268V108.268C293.568 108.268 297.586 107.538 301.075 106.033L299.886 103.279ZM321.948 44.368L320.907 45.4478L320.926 45.4667L320.946 45.4849L321.948 44.368ZM321.948 31.696L322.968 32.7952L322.97 32.7938L321.948 31.696ZM335.964 31.696L334.923 32.7758L334.942 32.7947L334.962 32.8128L335.964 31.696ZM335.964 44.368L336.984 45.4672L336.986 45.4658L335.964 44.368ZM337.212 52.432H338.712V50.932H337.212V52.432ZM337.212 106V107.5H338.712V106H337.212ZM320.796 106H319.296V107.5H320.796V106ZM320.796 52.432V50.932H319.296V52.432H320.796ZM329.052 45.364C326.48 45.364 324.488 44.6304 322.949 43.2511L320.946 45.4849C323.12 47.4336 325.863 48.364 329.052 48.364V45.364ZM322.989 43.2882C321.491 41.8438 320.76 40.1219 320.76 38.032H317.76C317.76 40.9341 318.82 43.4362 320.907 45.4478L322.989 43.2882ZM320.76 38.032C320.76 35.8671 321.498 34.1607 322.968 32.7952L320.927 30.5968C318.814 32.5593 317.76 35.0769 317.76 38.032H320.76ZM322.97 32.7938C324.51 31.3597 326.496 30.604 329.052 30.604V27.604C325.848 27.604 323.097 28.5763 320.926 30.5982L322.97 32.7938ZM329.052 30.604C331.535 30.604 333.447 31.3534 334.923 32.7758L337.005 30.6162C334.896 28.5826 332.201 27.604 329.052 27.604V30.604ZM334.962 32.8128C336.491 34.1837 337.248 35.8851 337.248 38.032H340.248C340.248 35.0589 339.148 32.5363 336.965 30.5791L334.962 32.8128ZM337.248 38.032C337.248 40.1041 336.498 41.8208 334.942 43.2702L336.986 45.4658C339.141 43.4592 340.248 40.9519 340.248 38.032H337.248ZM334.943 43.2688C333.471 44.6362 331.551 45.364 329.052 45.364V48.364C332.185 48.364 334.873 47.4278 336.984 45.4672L334.943 43.2688ZM335.712 52.432V106H338.712V52.432H335.712ZM337.212 104.5H320.796V107.5H337.212V104.5ZM322.296 106V52.432H319.296V106H322.296ZM320.796 53.932H337.212V50.932H320.796V53.932ZM349.204 64.624L347.892 63.8972L347.888 63.905L347.884 63.9128L349.204 64.624ZM358.708 55.024L357.989 53.7079L357.98 53.7128L358.708 55.024ZM389.524 56.944L388.597 58.1235L388.606 58.1298L389.524 56.944ZM398.452 71.824V73.324H400.318L399.917 71.5017L398.452 71.824ZM380.98 71.824L379.569 72.3313L379.925 73.324H380.98V71.824ZM365.236 69.232L366.42 70.1529L366.426 70.1451L366.432 70.1372L365.236 69.232ZM365.236 89.296L364.04 90.2012L364.046 90.2091L364.052 90.2169L365.236 89.296ZM380.98 86.608V85.108H379.925L379.569 86.1007L380.98 86.608ZM398.452 86.608L399.916 86.9366L400.326 85.108H398.452V86.608ZM389.524 101.392L388.595 100.214L388.595 100.214L389.524 101.392ZM358.708 103.408L357.98 104.719L357.989 104.724L358.708 103.408ZM349.204 93.808L347.884 94.5191L347.888 94.527L347.892 94.5347L349.204 93.808ZM347.344 79.216C347.344 73.8519 348.422 69.2406 350.525 65.3351L347.884 63.9128C345.506 68.3274 344.344 73.4441 344.344 79.216H347.344ZM350.516 65.3507C352.689 61.4284 355.658 58.4345 359.437 56.3352L357.98 53.7128C353.694 56.0935 350.328 59.4996 347.892 63.8972L350.516 65.3507ZM359.428 56.3401C363.277 54.2351 367.696 53.164 372.724 53.164V50.164C367.256 50.164 362.331 51.3329 357.989 53.7079L359.428 56.3401ZM372.724 53.164C379.171 53.164 384.427 54.8468 388.598 58.1235L390.451 55.7645C385.661 52.0012 379.718 50.164 372.724 50.164V53.164ZM388.606 58.1298C392.834 61.4049 395.644 66.0383 396.987 72.1463L399.917 71.5017C398.445 64.8096 395.303 59.5231 390.443 55.7582L388.606 58.1298ZM398.452 70.324H380.98V73.324H398.452V70.324ZM382.392 71.3167C381.578 69.0524 380.34 67.238 378.616 65.9982C376.888 64.7558 374.797 64.18 372.436 64.18V67.18C374.3 67.18 375.744 67.6282 376.865 68.4338C377.988 69.242 378.91 70.4996 379.569 72.3313L382.392 71.3167ZM372.436 64.18C368.966 64.18 366.12 65.5785 364.04 68.3268L366.432 70.1372C367.937 68.1495 369.891 67.18 372.436 67.18V64.18ZM364.052 68.3111C361.976 70.9799 361.048 74.6872 361.048 79.216H364.048C364.048 75.0408 364.912 72.0921 366.42 70.1529L364.052 68.3111ZM361.048 79.216C361.048 83.7487 361.978 87.4762 364.04 90.2012L366.432 88.3908C364.91 86.3798 364.048 83.3873 364.048 79.216H361.048ZM364.052 90.2169C366.138 92.8991 368.982 94.252 372.436 94.252V91.252C369.875 91.252 367.918 90.3009 366.42 88.3751L364.052 90.2169ZM372.436 94.252C374.797 94.252 376.888 93.6762 378.616 92.4338C380.34 91.194 381.578 89.3796 382.392 87.1153L379.569 86.1007C378.91 87.9324 377.988 89.19 376.865 89.9982C375.744 90.8038 374.3 91.252 372.436 91.252V94.252ZM380.98 88.108H398.452V85.108H380.98V88.108ZM396.989 86.2794C395.647 92.255 392.839 96.8674 388.595 100.214L390.453 102.57C395.298 98.7486 398.441 93.505 399.916 86.9366L396.989 86.2794ZM388.595 100.214C384.355 103.559 379.096 105.268 372.724 105.268V108.268C379.664 108.268 385.606 106.393 390.453 102.57L388.595 100.214ZM372.724 105.268C367.696 105.268 363.277 104.197 359.428 102.092L357.989 104.724C362.331 107.099 367.256 108.268 372.724 108.268V105.268ZM359.437 102.097C355.658 99.9975 352.689 97.0036 350.516 93.0812L347.892 94.5347C350.328 98.9324 353.694 102.338 357.98 104.719L359.437 102.097ZM350.525 93.0968C348.422 89.1914 347.344 84.5801 347.344 79.216H344.344C344.344 84.9879 345.506 90.1046 347.884 94.5191L350.525 93.0968ZM407.041 64.624L405.704 63.945L405.7 63.9532L405.695 63.9615L407.041 64.624ZM415.585 55.024L416.38 56.296L416.38 56.296L415.585 55.024ZM437.473 53.968L436.755 55.2849L436.767 55.2915L437.473 53.968ZM444.097 60.016L442.82 60.8021L445.597 65.3156V60.016H444.097ZM444.097 52.432V50.932H442.597V52.432H444.097ZM460.513 52.432H462.013V50.932H460.513V52.432ZM460.513 106V107.5H462.013V106H460.513ZM444.097 106H442.597V107.5H444.097V106ZM444.097 98.416H445.597V93.2965L442.834 97.6065L444.097 98.416ZM437.377 104.464L436.671 103.14L436.659 103.147L437.377 104.464ZM415.585 103.408L414.774 104.67L414.782 104.675L414.79 104.68L415.585 103.408ZM407.041 93.712L405.692 94.3664L405.698 94.3788L405.704 94.391L407.041 93.712ZM440.641 69.52L439.552 70.5508L439.559 70.5585L439.566 70.566L440.641 69.52ZM424.033 69.52L422.958 68.474L422.958 68.4744L424.033 69.52ZM424.033 88.912L422.93 89.9282L422.944 89.9433L422.958 89.958L424.033 88.912ZM440.641 88.912L439.566 87.866L439.559 87.8735L439.552 87.8812L440.641 88.912ZM405.469 79.12C405.469 73.8031 406.458 69.2053 408.387 65.2865L405.695 63.9615C403.529 68.3627 402.469 73.4289 402.469 79.12H405.469ZM408.379 65.303C410.38 61.3603 413.051 58.3766 416.38 56.296L414.79 53.752C410.951 56.1514 407.926 59.5677 405.704 63.945L408.379 65.303ZM416.38 56.296C419.715 54.2119 423.437 53.164 427.585 53.164V50.164C422.901 50.164 418.624 51.3561 414.79 53.752L416.38 56.296ZM427.585 53.164C431.155 53.164 434.195 53.8887 436.755 55.2848L438.192 52.6512C435.119 50.9753 431.568 50.164 427.585 50.164V53.164ZM436.767 55.2915C439.44 56.7169 441.439 58.5578 442.82 60.8021L445.375 59.2299C443.684 56.4822 441.267 54.2911 438.179 52.6445L436.767 55.2915ZM445.597 60.016V52.432H442.597V60.016H445.597ZM444.097 53.932H460.513V50.932H444.097V53.932ZM459.013 52.432V106H462.013V52.432H459.013ZM460.513 104.5H444.097V107.5H460.513V104.5ZM445.597 106V98.416H442.597V106H445.597ZM442.834 97.6065C441.387 99.865 439.348 101.713 436.671 103.14L438.083 105.788C441.166 104.143 443.608 101.959 445.36 99.2255L442.834 97.6065ZM436.659 103.147C434.099 104.543 431.059 105.268 427.489 105.268V108.268C431.472 108.268 435.023 107.457 438.096 105.781L436.659 103.147ZM427.489 105.268C423.41 105.268 419.718 104.222 416.38 102.136L414.79 104.68C418.62 107.074 422.865 108.268 427.489 108.268V105.268ZM416.396 102.146C413.057 99.9998 410.382 96.9787 408.379 93.033L405.704 94.391C407.925 98.7653 410.945 102.208 414.774 104.67L416.396 102.146ZM408.391 93.0576C406.458 89.0699 405.469 84.4362 405.469 79.12H402.469C402.469 84.8118 403.529 89.9061 405.692 94.3664L408.391 93.0576ZM445.597 79.216C445.597 74.8281 444.355 71.1856 441.716 68.474L439.566 70.566C441.536 72.5904 442.597 75.4119 442.597 79.216H445.597ZM441.731 68.4892C439.207 65.8212 436.061 64.468 432.385 64.468V67.468C435.238 67.468 437.595 68.4828 439.552 70.5508L441.731 68.4892ZM432.385 64.468C428.711 64.468 425.541 65.8197 422.958 68.474L425.108 70.566C427.134 68.4843 429.532 67.468 432.385 67.468V64.468ZM422.958 68.4744C420.376 71.1296 419.173 74.7456 419.173 79.12H422.173C422.173 75.3024 423.21 72.5184 425.109 70.5656L422.958 68.4744ZM419.173 79.12C419.173 83.4984 420.378 87.1571 422.93 89.9282L425.137 87.8958C423.209 85.8029 422.173 82.9336 422.173 79.12H419.173ZM422.958 89.958C425.541 92.6123 428.711 93.964 432.385 93.964V90.964C429.532 90.964 427.134 89.9477 425.108 87.866L422.958 89.958ZM432.385 93.964C436.061 93.964 439.207 92.6108 441.731 89.9428L439.552 87.8812C437.595 89.9492 435.238 90.964 432.385 90.964V93.964ZM441.716 89.958C444.355 87.2464 445.597 83.6039 445.597 79.216H442.597C442.597 83.0201 441.536 85.8416 439.566 87.866L441.716 89.958ZM537.766 38.608L539.243 38.8689L539.554 37.108H537.766V38.608ZM525.862 106V107.5H527.12L527.339 106.261L525.862 106ZM509.446 106L507.968 105.741L507.66 107.5H509.446V106ZM514.342 78.064L515.819 78.3229L516.127 76.564H514.342V78.064ZM488.806 78.064V76.564H487.546L487.328 77.8051L488.806 78.064ZM483.91 106V107.5H485.169L485.387 106.259L483.91 106ZM467.494 106L466.016 105.739L465.705 107.5H467.494V106ZM479.398 38.608V37.108H478.139L477.92 38.3471L479.398 38.608ZM495.814 38.608L497.29 38.8702L497.603 37.108H495.814V38.608ZM491.109 65.104L489.633 64.8418L489.32 66.604H491.109V65.104ZM516.646 65.104V66.604H517.903L518.122 65.3662L516.646 65.104ZM521.35 38.608V37.108H520.092L519.873 38.3458L521.35 38.608ZM536.288 38.3471L524.384 105.739L527.339 106.261L539.243 38.8689L536.288 38.3471ZM525.862 104.5H509.446V107.5H525.862V104.5ZM510.923 106.259L515.819 78.3229L512.864 77.8051L507.968 105.741L510.923 106.259ZM514.342 76.564H488.806V79.564H514.342V76.564ZM487.328 77.8051L482.432 105.741L485.387 106.259L490.283 78.3229L487.328 77.8051ZM483.91 104.5H467.494V107.5H483.91V104.5ZM468.971 106.261L480.875 38.8689L477.92 38.3471L466.016 105.739L468.971 106.261ZM479.398 40.108H495.814V37.108H479.398V40.108ZM494.337 38.3458L489.633 64.8418L492.586 65.3662L497.29 38.8702L494.337 38.3458ZM491.109 66.604H516.646V63.604H491.109V66.604ZM518.122 65.3662L522.826 38.8702L519.873 38.3458L515.169 64.8418L518.122 65.3662ZM521.35 40.108H537.766V37.108H521.35V40.108ZM600.016 52.432L601.494 52.6915L601.803 50.932H600.016V52.432ZM590.608 106V107.5H591.868L592.086 106.259L590.608 106ZM574.192 106L572.714 105.747L572.414 107.5H574.192V106ZM575.44 98.704L576.919 98.9569L577.8 93.8046L574.321 97.7056L575.44 98.704ZM567.664 104.464L568.3 105.823L568.312 105.817L567.664 104.464ZM545.296 102.064L544.236 103.125L544.241 103.13L544.247 103.136L545.296 102.064ZM541.168 83.728L542.641 84.0113L542.643 84.001L542.645 83.9907L541.168 83.728ZM546.736 52.432V50.932H545.48L545.259 52.1693L546.736 52.432ZM563.056 52.432L564.534 52.6904L564.841 50.932H563.056V52.432ZM557.968 81.52L559.443 81.7964L559.444 81.7875L559.446 81.7784L557.968 81.52ZM559.888 90.736L558.828 91.7967L558.851 91.8197L558.875 91.8417L559.888 90.736ZM574 90.16L574.971 91.3038L574.974 91.3013L574 90.16ZM578.32 82.288L579.789 82.5928L579.793 82.5711L579.797 82.5492L578.32 82.288ZM583.6 52.432V50.932H582.342L582.123 52.1708L583.6 52.432ZM598.539 52.1725L589.131 105.741L592.086 106.259L601.494 52.6915L598.539 52.1725ZM590.608 104.5H574.192V107.5H590.608V104.5ZM575.671 106.253L576.919 98.9569L573.962 98.4511L572.714 105.747L575.671 106.253ZM574.321 97.7056C572.35 99.9148 569.922 101.719 567.016 103.111L568.312 105.817C571.55 104.265 574.306 102.229 576.56 99.7024L574.321 97.7056ZM567.028 103.105C564.228 104.416 561.214 105.076 557.968 105.076V108.076C561.635 108.076 565.085 107.328 568.3 105.823L567.028 103.105ZM557.968 105.076C552.881 105.076 549.071 103.661 546.346 100.992L544.247 103.136C547.665 106.483 552.303 108.076 557.968 108.076V105.076ZM546.357 101.003C543.633 98.2796 542.188 94.4441 542.188 89.296H539.188C539.188 95.0279 540.815 99.7044 544.236 103.125L546.357 101.003ZM542.188 89.296C542.188 87.3241 542.342 85.565 542.641 84.0113L539.695 83.4447C539.354 85.219 539.188 87.1719 539.188 89.296H542.188ZM542.645 83.9907L548.213 52.6947L545.259 52.1693L539.691 83.4653L542.645 83.9907ZM546.736 53.932H563.056V50.932H546.736V53.932ZM561.579 52.1735L556.491 81.2615L559.446 81.7784L564.534 52.6904L561.579 52.1735ZM556.494 81.2436C556.286 82.3511 556.18 83.4358 556.18 84.496H559.18C559.18 83.6362 559.266 82.7369 559.443 81.7964L556.494 81.2436ZM556.18 84.496C556.18 87.4608 556.999 89.968 558.828 91.7967L560.949 89.6753C559.834 88.56 559.18 86.9072 559.18 84.496H556.18ZM558.875 91.8417C560.76 93.5702 563.273 94.348 566.224 94.348V91.348C563.799 91.348 562.088 90.7178 560.902 89.6303L558.875 91.8417ZM566.224 94.348C569.61 94.348 572.558 93.3512 574.971 91.3038L573.03 89.0162C571.219 90.5528 568.982 91.348 566.224 91.348V94.348ZM574.974 91.3013C577.453 89.1864 579.032 86.2399 579.789 82.5928L576.852 81.9832C576.2 85.1201 574.899 87.4216 573.027 89.0187L574.974 91.3013ZM579.797 82.5492L585.077 52.6932L582.123 52.1708L576.843 82.0268L579.797 82.5492ZM583.6 53.932H600.016V50.932H583.6V53.932ZM626.88 60.016L625.403 59.7502L624.382 65.4255L628.039 60.9675L626.88 60.016ZM634.656 53.968L633.996 52.6209L633.996 52.6209L634.656 53.968ZM658.848 57.328L657.751 58.3508L657.76 58.3604L657.769 58.3699L658.848 57.328ZM663.648 79.12L665.125 79.3777L665.127 79.3666L663.648 79.12ZM657.984 93.712L659.226 94.5529L659.232 94.544L657.984 93.712ZM647.808 103.408L648.545 104.714L648.553 104.71L648.561 104.705L647.808 103.408ZM625.728 104.56L624.956 105.846L624.968 105.853L624.98 105.86L625.728 104.56ZM620.16 98.512L621.522 97.8834L619.525 93.5574L618.683 98.247L620.16 98.512ZM618.816 106V107.5H620.07L620.292 106.265L618.816 106ZM602.4 106L600.923 105.739L600.611 107.5H602.4V106ZM614.976 34.96V33.46H613.718L613.499 34.6985L614.976 34.96ZM631.392 34.96L632.868 35.2258L633.186 33.46H631.392V34.96ZM647.04 79.12L648.514 79.3964L648.516 79.3886L648.517 79.3807L647.04 79.12ZM644.544 68.656L643.483 69.7167L643.492 69.726L643.502 69.7351L644.544 68.656ZM628.704 69.52L629.695 70.6455L629.695 70.6455L628.704 69.52ZM623.52 79.216L622.045 78.9396L622.043 78.9545L622.04 78.9694L623.52 79.216ZM625.92 89.776L626.98 88.7153L626.98 88.7153L625.92 89.776ZM641.76 88.912L642.751 90.0375L642.753 90.036L641.76 88.912ZM628.039 60.9675C629.94 58.6508 632.357 56.7644 635.316 55.3151L633.996 52.6209C630.683 54.2436 627.915 56.3892 625.72 59.0645L628.039 60.9675ZM635.316 55.3151C638.233 53.886 641.43 53.164 644.928 53.164V50.164C641.002 50.164 637.35 50.978 633.996 52.6209L635.316 55.3151ZM644.928 53.164C650.325 53.164 654.549 54.9161 657.751 58.3508L659.945 56.3052C656.107 52.1879 651.051 50.164 644.928 50.164V53.164ZM657.769 58.3699C661.019 61.7359 662.724 66.4136 662.724 72.592H665.724C665.724 65.8424 663.845 60.3441 659.927 56.2861L657.769 58.3699ZM662.724 72.592C662.724 74.5468 662.54 76.6398 662.168 78.8734L665.127 79.3666C665.523 76.9922 665.724 74.7332 665.724 72.592H662.724ZM662.17 78.8623C661.242 84.1817 659.425 88.8461 656.736 92.8799L659.232 94.544C662.175 90.1299 664.133 85.0663 665.125 79.3777L662.17 78.8623ZM656.742 92.8711C654.04 96.8622 650.809 99.9306 647.055 102.111L648.561 104.705C652.742 102.277 656.296 98.8818 659.226 94.5528L656.742 92.8711ZM647.07 102.102C643.32 104.219 639.381 105.268 635.232 105.268V108.268C639.915 108.268 644.36 107.077 648.545 104.714L647.07 102.102ZM635.232 105.268C631.646 105.268 628.753 104.569 626.475 103.26L624.98 105.86C627.823 107.495 631.265 108.268 635.232 108.268V105.268ZM626.499 103.274C624.175 101.879 622.537 100.082 621.522 97.8834L618.798 99.1406C620.087 101.934 622.161 104.169 624.956 105.846L626.499 103.274ZM618.683 98.247L617.339 105.735L620.292 106.265L621.636 98.777L618.683 98.247ZM618.816 104.5H602.4V107.5H618.816V104.5ZM603.877 106.261L616.453 35.2215L613.499 34.6985L600.923 105.739L603.877 106.261ZM614.976 36.46H631.392V33.46H614.976V36.46ZM629.915 34.6942L625.403 59.7502L628.356 60.2818L632.868 35.2258L629.915 34.6942ZM648.517 79.3807C648.721 78.2256 648.828 77.1448 648.828 76.144H645.828C645.828 76.9352 645.743 77.8384 645.563 78.8593L648.517 79.3807ZM648.828 76.144C648.828 72.6412 647.802 69.7165 645.586 67.5769L643.502 69.7351C644.998 71.1795 645.828 73.2468 645.828 76.144H648.828ZM645.604 67.5953C643.499 65.4895 640.797 64.468 637.632 64.468V67.468C640.098 67.468 642.005 68.2385 643.483 69.7167L645.604 67.5953ZM637.632 64.468C633.966 64.468 630.645 65.8105 627.712 68.3945L629.695 70.6455C632.138 68.4935 634.769 67.468 637.632 67.468V64.468ZM627.712 68.3945C624.733 71.0187 622.865 74.5707 622.045 78.9396L624.994 79.4924C625.711 75.6693 627.298 72.7573 629.695 70.6455L627.712 68.3945ZM622.04 78.9694C621.837 80.1861 621.732 81.3259 621.732 82.384H624.732C624.732 81.5221 624.818 80.5499 624.999 79.4626L622.04 78.9694ZM621.732 82.384C621.732 85.8177 622.722 88.6997 624.859 90.8367L626.98 88.7153C625.533 87.2683 624.732 85.2223 624.732 82.384H621.732ZM624.859 90.8367C626.965 92.9425 629.666 93.964 632.832 93.964V90.964C630.365 90.964 628.459 90.1935 626.98 88.7153L624.859 90.8367ZM632.832 93.964C636.497 93.964 639.818 92.6215 642.751 90.0375L640.768 87.7865C638.325 89.9385 635.694 90.964 632.832 90.964V93.964ZM642.753 90.036C645.789 87.3535 647.693 83.7742 648.514 79.3964L645.565 78.8436C644.85 82.6578 643.235 85.6065 640.766 87.788L642.753 90.036Z" fill="black"/>
</g>
<defs>
<clipPath id="clip0_39_9">
<rect width="672" height="137" fill="white"/>
</clipPath>
</defs>
</svg>
