<svg width="366" height="279" viewBox="0 0 366 279" fill="none" xmlns="http://www.w3.org/2000/svg">
<g clip-path="url(#clip0_39_12)">
<path d="M123.904 69.704C121.685 66.12 118.528 63.3893 114.432 61.512C110.336 59.464 105.387 58.44 99.584 58.44C88.6613 58.44 80.2133 62.024 74.24 69.192C68.2667 76.1893 65.28 85.832 65.28 98.12C65.28 112.285 68.608 122.867 75.264 129.864C81.92 136.861 92.16 140.36 105.984 140.36C119.125 140.36 129.707 135.069 137.728 124.488H92.416V84.296H184.832V141.128C176.981 154.611 166.144 166.216 152.32 175.944C138.496 185.501 121.003 190.28 99.84 190.28C81.0667 190.28 64.6827 186.44 50.688 178.76C36.864 170.909 26.1973 159.987 18.688 145.992C11.3493 131.997 7.68 116.04 7.68 98.12C7.68 80.2 11.3493 64.2427 18.688 50.248C26.1973 36.2533 36.864 25.416 50.688 17.736C64.512 9.88533 80.7253 5.95999 99.328 5.95999C123.051 5.95999 142.336 11.6773 157.184 23.112C172.203 34.5467 181.077 50.0773 183.808 69.704H123.904Z" fill="#F1F1F1"/>
<path d="M123.904 69.704L121.778 71.0199L122.511 72.204H123.904V69.704ZM114.432 61.512L113.314 63.7481L113.352 63.767L113.39 63.7847L114.432 61.512ZM74.24 69.192L76.1414 70.8152L76.1511 70.8039L76.1606 70.7924L74.24 69.192ZM75.264 129.864L73.4526 131.587L75.264 129.864ZM137.728 124.488L139.72 125.998L142.76 121.988H137.728V124.488ZM92.416 124.488H89.916V126.988H92.416V124.488ZM92.416 84.296V81.796H89.916V84.296H92.416ZM184.832 84.296H187.332V81.796H184.832V84.296ZM184.832 141.128L186.992 142.386L187.332 141.803V141.128H184.832ZM152.32 175.944L153.742 178L153.75 177.994L153.759 177.989L152.32 175.944ZM50.688 178.76L49.4534 180.934L49.4693 180.943L49.4853 180.952L50.688 178.76ZM18.688 145.992L16.474 147.153L16.4795 147.164L16.4851 147.174L18.688 145.992ZM18.688 50.248L16.4851 49.0659L16.4795 49.0764L16.474 49.087L18.688 50.248ZM50.688 17.736L51.9021 19.9214L51.9124 19.9157L51.9226 19.9099L50.688 17.736ZM157.184 23.112L155.659 25.0927L155.67 25.1011L157.184 23.112ZM183.808 69.704V72.204H186.68L186.284 69.3595L183.808 69.704ZM126.03 68.3881C123.534 64.3561 119.985 61.307 115.474 59.2393L113.39 63.7847C117.071 65.4716 119.837 67.8839 121.778 71.0199L126.03 68.3881ZM115.55 59.2759C111.027 57.0143 105.674 55.94 99.584 55.94V60.94C105.099 60.94 109.645 61.9137 113.314 63.7481L115.55 59.2759ZM99.584 55.94C88.0601 55.94 78.8511 59.7536 72.3195 67.5915L76.1606 70.7924C81.5756 64.2944 89.2625 60.94 99.584 60.94V55.94ZM72.3386 67.5688C65.8656 75.1515 62.78 85.4385 62.78 98.12H67.78C67.78 86.2255 70.6677 77.2272 76.1414 70.8152L72.3386 67.5688ZM62.78 98.12C62.78 112.63 66.1856 123.947 73.4526 131.587L77.0754 128.141C71.0304 121.786 67.78 111.94 67.78 98.12H62.78ZM73.4526 131.587C80.7534 139.262 91.7749 142.86 105.984 142.86V137.86C92.5451 137.86 83.0866 134.46 77.0754 128.141L73.4526 131.587ZM105.984 142.86C119.917 142.86 131.232 137.195 139.72 125.998L135.736 122.978C128.181 132.943 118.333 137.86 105.984 137.86V142.86ZM137.728 121.988H92.416V126.988H137.728V121.988ZM94.916 124.488V84.296H89.916V124.488H94.916ZM92.416 86.796H184.832V81.796H92.416V86.796ZM182.332 84.296V141.128H187.332V84.296H182.332ZM182.672 139.87C175.017 153.016 164.436 164.361 150.881 173.899L153.759 177.989C167.852 168.071 178.946 156.205 186.992 142.386L182.672 139.87ZM150.898 173.888C137.589 183.089 120.627 187.78 99.84 187.78V192.78C121.379 192.78 139.403 187.914 153.742 178L150.898 173.888ZM99.84 187.78C81.4129 187.78 65.4568 184.013 51.8907 176.568L49.4853 180.952C63.9085 188.867 80.7204 192.78 99.84 192.78V187.78ZM51.9226 176.586C38.508 168.968 28.1772 158.389 20.8909 144.81L16.4851 147.174C24.2175 161.584 35.22 172.851 49.4534 180.934L51.9226 176.586ZM20.9021 144.831C13.7751 131.24 10.18 115.69 10.18 98.12H5.18C5.18 116.39 8.92357 132.755 16.474 147.153L20.9021 144.831ZM10.18 98.12C10.18 80.5497 13.7751 65 20.9021 51.409L16.474 49.087C8.92357 63.4854 5.18 79.8503 5.18 98.12H10.18ZM20.8909 51.43C28.1747 37.8558 38.499 27.3676 51.9021 19.9214L49.4739 15.5506C35.229 23.4644 24.22 34.6509 16.4851 49.0659L20.8909 51.43ZM51.9226 19.9099C65.3106 12.3068 81.084 8.45999 99.328 8.45999V3.45999C80.3667 3.45999 63.7134 7.46382 49.4534 15.5621L51.9226 19.9099ZM99.328 8.45999C122.648 8.45999 141.353 14.0755 155.659 25.0927L158.709 21.1313C143.319 9.2792 123.454 3.45999 99.328 3.45999V8.45999ZM155.67 25.1011C170.135 36.1144 178.687 51.0393 181.332 70.0485L186.284 69.3595C183.468 49.1153 174.271 32.9789 158.698 21.1229L155.67 25.1011ZM183.808 67.204H123.904V72.204H183.808V67.204Z" fill="black"/>
<mask id="path-3-outside-1_39_12" maskUnits="userSpaceOnUse" x="148" y="81" width="212" height="192" fill="black">
<rect fill="white" x="148" y="81" width="212" height="192"/>
<path d="M353.68 86.752L321.68 268H264.848L277.392 197.344H223.376L210.832 268H154L186 86.752H242.832L231.312 152.032H285.328L296.848 86.752H353.68Z"/>
</mask>
<path d="M353.68 86.752L321.68 268H264.848L277.392 197.344H223.376L210.832 268H154L186 86.752H242.832L231.312 152.032H285.328L296.848 86.752H353.68Z" fill="#A2B8F4"/>
<path d="M353.68 86.752L358.604 87.6213L359.64 81.752H353.68V86.752ZM321.68 268V273H325.875L326.604 268.869L321.68 268ZM264.848 268L259.925 267.126L258.882 273H264.848V268ZM277.392 197.344L282.315 198.218L283.358 192.344H277.392V197.344ZM223.376 197.344V192.344H219.186L218.453 196.47L223.376 197.344ZM210.832 268V273H215.023L215.755 268.874L210.832 268ZM154 268L149.076 267.131L148.04 273H154V268ZM186 86.752V81.752H181.805L181.076 85.8827L186 86.752ZM242.832 86.752L247.756 87.6209L248.792 81.752H242.832V86.752ZM231.312 152.032L226.388 151.163L225.352 157.032H231.312V152.032ZM285.328 152.032V157.032H289.523L290.252 152.901L285.328 152.032ZM296.848 86.752V81.752H292.653L291.924 85.8831L296.848 86.752ZM348.756 85.8827L316.756 267.131L326.604 268.869L358.604 87.6213L348.756 85.8827ZM321.68 263H264.848V273H321.68V263ZM269.771 268.874L282.315 198.218L272.469 196.47L259.925 267.126L269.771 268.874ZM277.392 192.344H223.376V202.344H277.392V192.344ZM218.453 196.47L205.909 267.126L215.755 268.874L228.299 198.218L218.453 196.47ZM210.832 263H154V273H210.832V263ZM158.924 268.869L190.924 87.6213L181.076 85.8827L149.076 267.131L158.924 268.869ZM186 91.752H242.832V81.752H186V91.752ZM237.908 85.8831L226.388 151.163L236.236 152.901L247.756 87.6209L237.908 85.8831ZM231.312 157.032H285.328V147.032H231.312V157.032ZM290.252 152.901L301.772 87.6209L291.924 85.8831L280.404 151.163L290.252 152.901ZM296.848 91.752H353.68V81.752H296.848V91.752Z" fill="black" mask="url(#path-3-outside-1_39_12)"/>
</g>
<defs>
<clipPath id="clip0_39_12">
<rect width="366" height="279" fill="white"/>
</clipPath>
</defs>
</svg>
