<?xml version="1.0" encoding="UTF-8"?>
<svg id="Layer_1" xmlns="http://www.w3.org/2000/svg" version="1.1" xmlns:xlink="http://www.w3.org/1999/xlink" viewBox="0 0 124 126">
  <!-- Generator: Adobe Illustrator 29.4.0, SVG Export Plug-In . SVG Version: 2.1.0 Build 152)  -->
  <defs>
    <style>
      .st0 {
        fill: #f5eded;
      }

      .st0, .st1 {
        stroke: #231f20;
        stroke-miterlimit: 10;
        stroke-width: 2px;
      }

      .st1 {
        fill: #1077bc;
      }

      .st2 {
        fill: none;
      }

      .st3 {
        clip-path: url(#clippath);
      }
    </style>
    <clipPath id="clippath">
      <rect class="st2" x=".3" y="-1.5" width="124" height="126"/>
    </clipPath>
  </defs>
  <g class="st3">
    <g>
      <path class="st0" d="M50.06,37.21c-1.09-1.79-2.58-3.17-4.46-4.13-1.89-.96-4.11-1.44-6.67-1.44-4.74,0-8.46,1.54-11.19,4.61-2.72,3.07-4.08,7.2-4.08,12.38,0,5.82,1.46,10.26,4.37,13.3,2.91,3.04,7.15,4.56,12.72,4.56,6.59,0,11.29-2.98,14.11-8.93h-18.91v-13.54h35.13v18.24c-1.47,3.58-3.63,6.94-6.48,10.08-2.85,3.14-6.45,5.71-10.8,7.73-4.35,2.02-9.31,3.02-14.88,3.02-6.79,0-12.79-1.46-18-4.37-5.22-2.91-9.25-6.97-12.1-12.19-2.85-5.22-4.27-11.18-4.27-17.9s1.42-12.59,4.27-17.81c2.85-5.22,6.86-9.28,12.05-12.19,5.18-2.91,11.17-4.37,17.95-4.37,8.51,0,15.55,2.05,21.12,6.14,5.57,4.1,9.02,9.7,10.37,16.8h-20.26Z"/>
      <path class="st1" d="M119.45,44.05l-11.9,67.68h-18.91l4.8-27.17h-22.85l-4.8,27.17h-18.91l12-67.68h18.82l-4.51,25.54h22.94l4.51-25.54h18.82Z"/>
    </g>
  </g>
</svg>