<svg id="visual" viewBox="0 0 960 540" width="960" height="540" xmlns="http://www.w3.org/2000/svg" xmlns:xlink="http://www.w3.org/1999/xlink" version="1.1"><rect x="0" y="0" width="960" height="540" fill="#14161a"></rect><path d="M0 402L17.8 409.2C35.7 416.3 71.3 430.7 106.8 433C142.3 435.3 177.7 425.7 213.2 425.3C248.7 425 284.3 434 320 435.3C355.7 436.7 391.3 430.3 426.8 424.7C462.3 419 497.7 414 533.2 413.5C568.7 413 604.3 417 640 423C675.7 429 711.3 437 746.8 436.8C782.3 436.7 817.7 428.3 853.2 427.3C888.7 426.3 924.3 432.7 942.2 435.8L960 439L960 541L942.2 541C924.3 541 888.7 541 853.2 541C817.7 541 782.3 541 746.8 541C711.3 541 675.7 541 640 541C604.3 541 568.7 541 533.2 541C497.7 541 462.3 541 426.8 541C391.3 541 355.7 541 320 541C284.3 541 248.7 541 213.2 541C177.7 541 142.3 541 106.8 541C71.3 541 35.7 541 17.8 541L0 541Z" fill="#53a6e8"></path><path d="M0 442L17.8 439.3C35.7 436.7 71.3 431.3 106.8 432C142.3 432.7 177.7 439.3 213.2 439.5C248.7 439.7 284.3 433.3 320 435.5C355.7 437.7 391.3 448.3 426.8 451.5C462.3 454.7 497.7 450.3 533.2 447.2C568.7 444 604.3 442 640 443.2C675.7 444.3 711.3 448.7 746.8 448.7C782.3 448.7 817.7 444.3 853.2 443.3C888.7 442.3 924.3 444.7 942.2 445.8L960 447L960 541L942.2 541C924.3 541 888.7 541 853.2 541C817.7 541 782.3 541 746.8 541C711.3 541 675.7 541 640 541C604.3 541 568.7 541 533.2 541C497.7 541 462.3 541 426.8 541C391.3 541 355.7 541 320 541C284.3 541 248.7 541 213.2 541C177.7 541 142.3 541 106.8 541C71.3 541 35.7 541 17.8 541L0 541Z" fill="#8a9eeb"></path><path d="M0 438L17.8 443.8C35.7 449.7 71.3 461.3 106.8 461.3C142.3 461.3 177.7 449.7 213.2 449C248.7 448.3 284.3 458.7 320 462.7C355.7 466.7 391.3 464.3 426.8 459.8C462.3 455.3 497.7 448.7 533.2 446.7C568.7 444.7 604.3 447.3 640 448.3C675.7 449.3 711.3 448.7 746.8 452.2C782.3 455.7 817.7 463.3 853.2 466.3C888.7 469.3 924.3 467.7 942.2 466.8L960 466L960 541L942.2 541C924.3 541 888.7 541 853.2 541C817.7 541 782.3 541 746.8 541C711.3 541 675.7 541 640 541C604.3 541 568.7 541 533.2 541C497.7 541 462.3 541 426.8 541C391.3 541 355.7 541 320 541C284.3 541 248.7 541 213.2 541C177.7 541 142.3 541 106.8 541C71.3 541 35.7 541 17.8 541L0 541Z" fill="#b993e1"></path><path d="M0 483L17.8 480.5C35.7 478 71.3 473 106.8 471.2C142.3 469.3 177.7 470.7 213.2 467.7C248.7 464.7 284.3 457.3 320 454.2C355.7 451 391.3 452 426.8 455C462.3 458 497.7 463 533.2 464.3C568.7 465.7 604.3 463.3 640 462.7C675.7 462 711.3 463 746.8 464C782.3 465 817.7 466 853.2 466.5C888.7 467 924.3 467 942.2 467L960 467L960 541L942.2 541C924.3 541 888.7 541 853.2 541C817.7 541 782.3 541 746.8 541C711.3 541 675.7 541 640 541C604.3 541 568.7 541 533.2 541C497.7 541 462.3 541 426.8 541C391.3 541 355.7 541 320 541C284.3 541 248.7 541 213.2 541C177.7 541 142.3 541 106.8 541C71.3 541 35.7 541 17.8 541L0 541Z" fill="#de87ca"></path><path d="M0 467L17.8 468.5C35.7 470 71.3 473 106.8 476.7C142.3 480.3 177.7 484.7 213.2 485.3C248.7 486 284.3 483 320 482.5C355.7 482 391.3 484 426.8 482.5C462.3 481 497.7 476 533.2 474.2C568.7 472.3 604.3 473.7 640 476C675.7 478.3 711.3 481.7 746.8 482C782.3 482.3 817.7 479.7 853.2 479.3C888.7 479 924.3 481 942.2 482L960 483L960 541L942.2 541C924.3 541 888.7 541 853.2 541C817.7 541 782.3 541 746.8 541C711.3 541 675.7 541 640 541C604.3 541 568.7 541 533.2 541C497.7 541 462.3 541 426.8 541C391.3 541 355.7 541 320 541C284.3 541 248.7 541 213.2 541C177.7 541 142.3 541 106.8 541C71.3 541 35.7 541 17.8 541L0 541Z" fill="#f680aa"></path><path d="M0 484L17.8 483.8C35.7 483.7 71.3 483.3 106.8 486.5C142.3 489.7 177.7 496.3 213.2 500.2C248.7 504 284.3 505 320 502.5C355.7 500 391.3 494 426.8 492.2C462.3 490.3 497.7 492.7 533.2 494.3C568.7 496 604.3 497 640 495.5C675.7 494 711.3 490 746.8 488.2C782.3 486.3 817.7 486.7 853.2 486.5C888.7 486.3 924.3 485.7 942.2 485.3L960 485L960 541L942.2 541C924.3 541 888.7 541 853.2 541C817.7 541 782.3 541 746.8 541C711.3 541 675.7 541 640 541C604.3 541 568.7 541 533.2 541C497.7 541 462.3 541 426.8 541C391.3 541 355.7 541 320 541C284.3 541 248.7 541 213.2 541C177.7 541 142.3 541 106.8 541C71.3 541 35.7 541 17.8 541L0 541Z" fill="#fe8287"></path><path d="M0 508L17.8 507.7C35.7 507.3 71.3 506.7 106.8 505.7C142.3 504.7 177.7 503.3 213.2 502.7C248.7 502 284.3 502 320 502.8C355.7 503.7 391.3 505.3 426.8 506.7C462.3 508 497.7 509 533.2 508.7C568.7 508.3 604.3 506.7 640 506.8C675.7 507 711.3 509 746.8 509C782.3 509 817.7 507 853.2 505.5C888.7 504 924.3 503 942.2 502.5L960 502L960 541L942.2 541C924.3 541 888.7 541 853.2 541C817.7 541 782.3 541 746.8 541C711.3 541 675.7 541 640 541C604.3 541 568.7 541 533.2 541C497.7 541 462.3 541 426.8 541C391.3 541 355.7 541 320 541C284.3 541 248.7 541 213.2 541C177.7 541 142.3 541 106.8 541C71.3 541 35.7 541 17.8 541L0 541Z" fill="#f78d66"></path><path d="M0 520L17.8 519.7C35.7 519.3 71.3 518.7 106.8 518.7C142.3 518.7 177.7 519.3 213.2 518.5C248.7 517.7 284.3 515.3 320 515C355.7 514.7 391.3 516.3 426.8 518.7C462.3 521 497.7 524 533.2 524C568.7 524 604.3 521 640 520C675.7 519 711.3 520 746.8 520.3C782.3 520.7 817.7 520.3 853.2 521.7C888.7 523 924.3 526 942.2 527.5L960 529L960 541L942.2 541C924.3 541 888.7 541 853.2 541C817.7 541 782.3 541 746.8 541C711.3 541 675.7 541 640 541C604.3 541 568.7 541 533.2 541C497.7 541 462.3 541 426.8 541C391.3 541 355.7 541 320 541C284.3 541 248.7 541 213.2 541C177.7 541 142.3 541 106.8 541C71.3 541 35.7 541 17.8 541L0 541Z" fill="#e39c4b"></path></svg>